%TF.GenerationSoftware,Altium Limited,Altium Designer,20.0.13 (296)*%
G04 Layer_Color=8388736*
%FSLAX25Y25*%
%MOIN*%
%TF.FileFunction,Soldermask,Top*%
%TF.Part,Single*%
G01*
G75*
%TA.AperFunction,ComponentPad*%
%ADD36C,0.06800*%
%ADD37R,0.06800X0.06800*%
%ADD38C,0.27965*%
%ADD39C,0.05800*%
%ADD40R,0.05800X0.05800*%
%ADD41R,0.05800X0.05800*%
%TA.AperFunction,ViaPad*%
%ADD42C,0.04737*%
%ADD43C,0.04737*%
%ADD44C,0.03162*%
%TA.AperFunction,SMDPad,CuDef*%
%ADD53R,0.04343X0.03556*%
%ADD54R,0.03556X0.04343*%
%ADD55R,0.09100X0.22800*%
%ADD56R,0.05131X0.06115*%
%ADD57R,0.13595X0.09265*%
%ADD58R,0.04540X0.09265*%
%ADD59O,0.06509X0.01981*%
%ADD60O,0.01981X0.06509*%
%ADD61R,0.02572X0.02965*%
%ADD62R,0.08280X0.08280*%
%ADD63R,0.07887X0.08280*%
%ADD64R,0.09068X0.07099*%
%ADD65R,0.02375X0.06115*%
%ADD66R,0.07493X0.04934*%
D36*
X586500Y156000D02*
D03*
X566500D02*
D03*
X576500D02*
D03*
X473000Y156500D02*
D03*
X453000D02*
D03*
X463000D02*
D03*
D37*
X556500Y156000D02*
D03*
X443000Y156500D02*
D03*
D38*
X617500Y356500D02*
D03*
X408122D02*
D03*
X406500Y171000D02*
D03*
X617500Y172378D02*
D03*
D39*
X432500Y240126D02*
D03*
Y203626D02*
D03*
Y276626D02*
D03*
Y313126D02*
D03*
X405000Y203500D02*
D03*
Y240000D02*
D03*
Y313000D02*
D03*
Y276500D02*
D03*
X557626Y359000D02*
D03*
X549752D02*
D03*
X511626D02*
D03*
X503752D02*
D03*
X464500D02*
D03*
X456626D02*
D03*
X622000Y318083D02*
D03*
Y281374D02*
D03*
X595500Y318665D02*
D03*
Y281874D02*
D03*
Y245083D02*
D03*
X622000Y244665D02*
D03*
X595500Y208291D02*
D03*
X622000Y207957D02*
D03*
D40*
X432500Y248000D02*
D03*
Y211500D02*
D03*
Y284500D02*
D03*
Y321000D02*
D03*
X405000Y211374D02*
D03*
Y247874D02*
D03*
Y320874D02*
D03*
Y284374D02*
D03*
X622000Y310209D02*
D03*
Y273500D02*
D03*
X595500Y310791D02*
D03*
Y274000D02*
D03*
Y237209D02*
D03*
X622000Y236791D02*
D03*
X595500Y200417D02*
D03*
X622000Y200083D02*
D03*
D41*
X565500Y359000D02*
D03*
X519500D02*
D03*
X472374D02*
D03*
D42*
X469000Y298500D02*
D03*
X498000Y227500D02*
D03*
X497938Y306476D02*
D03*
X484000Y273000D02*
D03*
X556000Y282500D02*
D03*
X564500Y293500D02*
D03*
X544000Y258500D02*
D03*
X521215Y281785D02*
D03*
X519000Y275500D02*
D03*
X576500Y217000D02*
D03*
D43*
X495500Y233500D02*
D03*
D44*
X534000Y221000D02*
D03*
Y217000D02*
D03*
X557500Y206000D02*
D03*
X534000Y227000D02*
D03*
X557000Y234500D02*
D03*
X552500D02*
D03*
X557000Y253500D02*
D03*
X552500D02*
D03*
X547500D02*
D03*
X552500Y239000D02*
D03*
X547000Y234500D02*
D03*
X557000Y239000D02*
D03*
X547000D02*
D03*
X534000Y213000D02*
D03*
Y201000D02*
D03*
Y209000D02*
D03*
Y197000D02*
D03*
Y205000D02*
D03*
X497000Y264000D02*
D03*
X466000Y323500D02*
D03*
X513500Y324000D02*
D03*
X558500Y322500D02*
D03*
X554500Y293500D02*
D03*
X564500Y280000D02*
D03*
X554500Y264500D02*
D03*
X546500Y216500D02*
D03*
X576000Y178000D02*
D03*
X455500Y221500D02*
D03*
Y212500D02*
D03*
X498500Y190000D02*
D03*
X484000Y312500D02*
D03*
X522000Y241000D02*
D03*
X471500Y214500D02*
D03*
X512000Y213500D02*
D03*
X449500Y316000D02*
D03*
X503500Y197500D02*
D03*
X524000Y195000D02*
D03*
D53*
X455500Y233256D02*
D03*
Y227744D02*
D03*
X491500Y315512D02*
D03*
Y310000D02*
D03*
X455500Y202256D02*
D03*
Y196744D02*
D03*
X521000Y246244D02*
D03*
Y251756D02*
D03*
X490500Y264988D02*
D03*
Y270500D02*
D03*
X564500Y258244D02*
D03*
Y263756D02*
D03*
X513000Y197488D02*
D03*
Y203000D02*
D03*
X505000Y180744D02*
D03*
Y186256D02*
D03*
X513000Y181000D02*
D03*
Y186512D02*
D03*
X520500Y186012D02*
D03*
Y180500D02*
D03*
X565374Y323244D02*
D03*
Y328756D02*
D03*
Y340256D02*
D03*
Y334744D02*
D03*
X519000Y323744D02*
D03*
Y329256D02*
D03*
Y340756D02*
D03*
Y335244D02*
D03*
X472000Y324488D02*
D03*
Y330000D02*
D03*
Y341256D02*
D03*
Y335744D02*
D03*
X487000Y211744D02*
D03*
Y217256D02*
D03*
X564500Y269488D02*
D03*
Y275000D02*
D03*
D54*
X547756Y283500D02*
D03*
X542244D02*
D03*
X549500Y264500D02*
D03*
X543988D02*
D03*
X548756Y291500D02*
D03*
X543244D02*
D03*
X547744Y209500D02*
D03*
X553256D02*
D03*
X547744Y202500D02*
D03*
X553256D02*
D03*
X570744Y297500D02*
D03*
X576256D02*
D03*
X570744Y304500D02*
D03*
X576256D02*
D03*
X458756Y302000D02*
D03*
X453244D02*
D03*
X458756Y308000D02*
D03*
X453244D02*
D03*
D55*
X471000Y233201D02*
D03*
Y195801D02*
D03*
D56*
X573000Y239610D02*
D03*
Y228390D02*
D03*
X569000Y207610D02*
D03*
Y196390D02*
D03*
D57*
X552500Y246417D02*
D03*
D58*
X561555Y223583D02*
D03*
X552500D02*
D03*
X543445D02*
D03*
D59*
X530634Y273673D02*
D03*
Y275642D02*
D03*
Y277610D02*
D03*
Y279579D02*
D03*
Y281547D02*
D03*
Y283516D02*
D03*
Y285484D02*
D03*
Y287453D02*
D03*
Y289421D02*
D03*
Y291390D02*
D03*
Y293358D02*
D03*
Y295327D02*
D03*
X497366D02*
D03*
Y293358D02*
D03*
Y291390D02*
D03*
Y289421D02*
D03*
Y287453D02*
D03*
Y285484D02*
D03*
Y283516D02*
D03*
Y281547D02*
D03*
Y279579D02*
D03*
Y277610D02*
D03*
Y275642D02*
D03*
Y273673D02*
D03*
D60*
X524827Y301134D02*
D03*
X522858D02*
D03*
X520890D02*
D03*
X518921D02*
D03*
X516953D02*
D03*
X514984D02*
D03*
X513016D02*
D03*
X511047D02*
D03*
X509079D02*
D03*
X507110D02*
D03*
X505142D02*
D03*
X503173D02*
D03*
Y267866D02*
D03*
X505142D02*
D03*
X507110D02*
D03*
X509079D02*
D03*
X511047D02*
D03*
X513016D02*
D03*
X514984D02*
D03*
X516953D02*
D03*
X518921D02*
D03*
X520890D02*
D03*
X522858D02*
D03*
X524827D02*
D03*
D61*
X569000Y178500D02*
D03*
Y188736D02*
D03*
X557374Y338118D02*
D03*
Y327882D02*
D03*
X464500Y338618D02*
D03*
Y328382D02*
D03*
X511500Y338118D02*
D03*
Y327882D02*
D03*
D62*
X519949Y157500D02*
D03*
X510500D02*
D03*
D63*
X530185D02*
D03*
X500264D02*
D03*
D64*
X527429Y167539D02*
D03*
X503020D02*
D03*
D65*
X520342Y168032D02*
D03*
X510106D02*
D03*
X512665D02*
D03*
X517783D02*
D03*
X515224D02*
D03*
D66*
X541500Y192807D02*
D03*
Y181193D02*
D03*
%TF.MD5,120029ed362dacfc8ee78300b0be0197*%
M02*
