G04*
G04 #@! TF.GenerationSoftware,Altium Limited,Altium Designer,20.0.13 (296)*
G04*
G04 Layer_Physical_Order=1*
G04 Layer_Color=255*
%FSLAX25Y25*%
%MOIN*%
G70*
G01*
G75*
%ADD18C,0.01000*%
%ADD42R,0.03543X0.02756*%
%ADD43R,0.02756X0.03543*%
%ADD44R,0.08300X0.22000*%
%ADD45R,0.04331X0.05315*%
%ADD46R,0.12795X0.08465*%
%ADD47R,0.03740X0.08465*%
%ADD48O,0.05709X0.01181*%
%ADD49O,0.01181X0.05709*%
%ADD50R,0.01772X0.02165*%
%ADD51R,0.07480X0.07480*%
%ADD52R,0.07087X0.07480*%
%ADD53R,0.08268X0.06299*%
%ADD54R,0.01575X0.05315*%
%ADD55R,0.06693X0.04134*%
%ADD56C,0.03000*%
%ADD57C,0.06000*%
%ADD58R,0.06000X0.06000*%
%ADD59C,0.27165*%
%ADD60C,0.05000*%
%ADD61R,0.05000X0.05000*%
%ADD62R,0.05000X0.05000*%
%ADD63C,0.02362*%
%ADD64C,0.03937*%
%ADD65C,0.03937*%
G36*
X620970Y379894D02*
X623247Y379442D01*
X625468Y378768D01*
X627612Y377880D01*
X629659Y376786D01*
X631589Y375496D01*
X633383Y374024D01*
X635024Y372383D01*
X636496Y370589D01*
X637786Y368659D01*
X638880Y366612D01*
X639768Y364468D01*
X640442Y362247D01*
X640895Y359970D01*
X641122Y357661D01*
Y356500D01*
Y172378D01*
Y171218D01*
X640895Y168908D01*
X640442Y166631D01*
X639768Y164410D01*
X638880Y162266D01*
X637786Y160219D01*
X636496Y158289D01*
X635024Y156495D01*
X633383Y154854D01*
X631589Y153382D01*
X629659Y152092D01*
X627612Y150998D01*
X625468Y150110D01*
X623247Y149436D01*
X620970Y148983D01*
X618660Y148756D01*
X617500D01*
X406681Y148756D01*
X405235D01*
X402368Y149133D01*
X399575Y149882D01*
X396903Y150989D01*
X394398Y152435D01*
X392104Y154195D01*
X390059Y156240D01*
X388298Y158535D01*
X386852Y161039D01*
X385746Y163711D01*
X384997Y166505D01*
X384619Y169372D01*
Y170818D01*
X384619Y356500D01*
X384500D01*
Y357661D01*
X384728Y359970D01*
X385180Y362247D01*
X385854Y364468D01*
X386742Y366612D01*
X387836Y368659D01*
X389126Y370589D01*
X390598Y372383D01*
X392239Y374024D01*
X394033Y375496D01*
X395963Y376786D01*
X398010Y377880D01*
X400154Y378768D01*
X402375Y379442D01*
X404652Y379894D01*
X406962Y380122D01*
X408122D01*
Y380122D01*
X617500Y380122D01*
X618660D01*
X620970Y379894D01*
D02*
G37*
%LPC*%
G36*
X457126Y362464D02*
Y359500D01*
X460090D01*
X460036Y359914D01*
X459683Y360765D01*
X459122Y361496D01*
X458391Y362057D01*
X457540Y362410D01*
X457126Y362464D01*
D02*
G37*
G36*
X504252Y362464D02*
Y359500D01*
X507216D01*
X507162Y359914D01*
X506809Y360765D01*
X506248Y361496D01*
X505517Y362057D01*
X504666Y362410D01*
X504252Y362464D01*
D02*
G37*
G36*
X550252D02*
Y359500D01*
X553216D01*
X553162Y359914D01*
X552809Y360765D01*
X552248Y361496D01*
X551517Y362057D01*
X550666Y362410D01*
X550252Y362464D01*
D02*
G37*
G36*
X503252Y362464D02*
X502838Y362410D01*
X501987Y362057D01*
X501256Y361496D01*
X500695Y360765D01*
X500342Y359914D01*
X500288Y359500D01*
X503252D01*
Y362464D01*
D02*
G37*
G36*
X549252D02*
X548838Y362410D01*
X547987Y362057D01*
X547256Y361496D01*
X546695Y360765D01*
X546342Y359914D01*
X546288Y359500D01*
X549252D01*
Y362464D01*
D02*
G37*
G36*
X456126Y362464D02*
X455712Y362410D01*
X454861Y362057D01*
X454130Y361496D01*
X453569Y360765D01*
X453216Y359914D01*
X453162Y359500D01*
X456126D01*
Y362464D01*
D02*
G37*
G36*
X618000Y371088D02*
Y357000D01*
X632088D01*
X631948Y358788D01*
X631412Y361020D01*
X630533Y363141D01*
X629334Y365098D01*
X627843Y366843D01*
X626098Y368334D01*
X624141Y369533D01*
X622020Y370412D01*
X619788Y370948D01*
X618000Y371088D01*
D02*
G37*
G36*
X617000D02*
X615212Y370948D01*
X612980Y370412D01*
X610859Y369533D01*
X608902Y368334D01*
X607157Y366843D01*
X605666Y365098D01*
X604467Y363141D01*
X603588Y361020D01*
X603052Y358788D01*
X602912Y357000D01*
X617000D01*
Y371088D01*
D02*
G37*
G36*
X408622D02*
Y357000D01*
X422711D01*
X422570Y358788D01*
X422034Y361020D01*
X421156Y363141D01*
X419956Y365098D01*
X418465Y366843D01*
X416720Y368334D01*
X414763Y369533D01*
X412642Y370412D01*
X410410Y370948D01*
X408622Y371088D01*
D02*
G37*
G36*
X407622D02*
X405834Y370948D01*
X403602Y370412D01*
X401481Y369533D01*
X399524Y368334D01*
X397779Y366843D01*
X396288Y365098D01*
X395089Y363141D01*
X394210Y361020D01*
X393674Y358788D01*
X393534Y357000D01*
X407622D01*
Y371088D01*
D02*
G37*
G36*
X460090Y358500D02*
X457126D01*
Y355536D01*
X457540Y355590D01*
X458391Y355943D01*
X459122Y356504D01*
X459683Y357235D01*
X460036Y358086D01*
X460090Y358500D01*
D02*
G37*
G36*
X549252D02*
X546288D01*
X546342Y358086D01*
X546695Y357235D01*
X547256Y356504D01*
X547987Y355943D01*
X548838Y355590D01*
X549252Y355536D01*
Y358500D01*
D02*
G37*
G36*
X503252D02*
X500288D01*
X500342Y358086D01*
X500695Y357235D01*
X501256Y356504D01*
X501987Y355943D01*
X502838Y355590D01*
X503252Y355536D01*
Y358500D01*
D02*
G37*
G36*
X553216D02*
X550252D01*
Y355536D01*
X550666Y355590D01*
X551517Y355943D01*
X552248Y356504D01*
X552809Y357235D01*
X553162Y358086D01*
X553216Y358500D01*
D02*
G37*
G36*
X507216D02*
X504252D01*
Y355536D01*
X504666Y355590D01*
X505517Y355943D01*
X506248Y356504D01*
X506809Y357235D01*
X507162Y358086D01*
X507216Y358500D01*
D02*
G37*
G36*
X456126D02*
X453162D01*
X453216Y358086D01*
X453569Y357235D01*
X454130Y356504D01*
X454861Y355943D01*
X455712Y355590D01*
X456126Y355536D01*
Y358500D01*
D02*
G37*
G36*
X569000Y362500D02*
X562000D01*
Y355500D01*
X569000D01*
Y362500D01*
D02*
G37*
G36*
X523000D02*
X516000D01*
Y355500D01*
X523000D01*
Y362500D01*
D02*
G37*
G36*
X475874D02*
X468874D01*
Y355500D01*
X475874D01*
Y362500D01*
D02*
G37*
G36*
X632088Y356000D02*
X618000D01*
Y341912D01*
X619788Y342052D01*
X622020Y342588D01*
X624141Y343467D01*
X626098Y344666D01*
X627843Y346157D01*
X629334Y347902D01*
X630533Y349859D01*
X631412Y351980D01*
X631948Y354212D01*
X632088Y356000D01*
D02*
G37*
G36*
X617000D02*
X602912D01*
X603052Y354212D01*
X603588Y351980D01*
X604467Y349859D01*
X605666Y347902D01*
X607157Y346157D01*
X608902Y344666D01*
X610859Y343467D01*
X612980Y342588D01*
X615212Y342052D01*
X617000Y341912D01*
Y356000D01*
D02*
G37*
G36*
X422711D02*
X408622D01*
Y341912D01*
X410410Y342052D01*
X412642Y342588D01*
X414763Y343467D01*
X416720Y344666D01*
X418465Y346157D01*
X419956Y347902D01*
X421156Y349859D01*
X422034Y351980D01*
X422570Y354212D01*
X422711Y356000D01*
D02*
G37*
G36*
X407622D02*
X393534D01*
X393674Y354212D01*
X394210Y351980D01*
X395089Y349859D01*
X396288Y347902D01*
X397779Y346157D01*
X399524Y344666D01*
X401481Y343467D01*
X403602Y342588D01*
X405834Y342052D01*
X407622Y341912D01*
Y356000D01*
D02*
G37*
G36*
X464500Y362530D02*
X463586Y362410D01*
X462735Y362057D01*
X462004Y361496D01*
X461443Y360765D01*
X461090Y359914D01*
X460970Y359000D01*
X461090Y358086D01*
X461443Y357235D01*
X462004Y356504D01*
X462735Y355943D01*
X462971Y355845D01*
Y346809D01*
Y340701D01*
X462614D01*
Y336535D01*
X466386D01*
Y340701D01*
X466029D01*
Y344017D01*
X466491Y344208D01*
X469228Y341471D01*
Y338878D01*
X474772D01*
Y343634D01*
X471391D01*
X467135Y347890D01*
X466638Y348222D01*
X466053Y348339D01*
X466029D01*
Y355845D01*
X466265Y355943D01*
X466996Y356504D01*
X467557Y357235D01*
X467910Y358086D01*
X468030Y359000D01*
X467910Y359914D01*
X467557Y360765D01*
X466996Y361496D01*
X466265Y362057D01*
X465414Y362410D01*
X464500Y362530D01*
D02*
G37*
G36*
X511626D02*
X510712Y362410D01*
X509861Y362057D01*
X509130Y361496D01*
X508569Y360765D01*
X508216Y359914D01*
X508096Y359000D01*
X508216Y358086D01*
X508569Y357235D01*
X509130Y356504D01*
X509814Y355979D01*
Y346559D01*
Y340201D01*
X509614D01*
Y336035D01*
X513386D01*
Y340201D01*
X512873D01*
Y343673D01*
X513335Y343864D01*
X516228Y340971D01*
Y338378D01*
X521772D01*
Y343134D01*
X518391D01*
X513885Y347640D01*
X513388Y347972D01*
X512873Y348075D01*
Y355728D01*
X513391Y355943D01*
X514122Y356504D01*
X514683Y357235D01*
X515036Y358086D01*
X515156Y359000D01*
X515036Y359914D01*
X514683Y360765D01*
X514122Y361496D01*
X513391Y362057D01*
X512540Y362410D01*
X511626Y362530D01*
D02*
G37*
G36*
X557626D02*
X556712Y362410D01*
X555861Y362057D01*
X555130Y361496D01*
X554569Y360765D01*
X554216Y359914D01*
X554096Y359000D01*
X554216Y358086D01*
X554569Y357235D01*
X555130Y356504D01*
X555861Y355943D01*
X556095Y355846D01*
Y346559D01*
Y340201D01*
X555488D01*
Y336035D01*
X559260D01*
Y340201D01*
X559153D01*
Y343267D01*
X559615Y343458D01*
X562602Y340471D01*
Y337878D01*
X568146D01*
Y342634D01*
X564765D01*
X559759Y347640D01*
X559262Y347972D01*
X559153Y347994D01*
Y355844D01*
X559391Y355943D01*
X560122Y356504D01*
X560683Y357235D01*
X561036Y358086D01*
X561156Y359000D01*
X561036Y359914D01*
X560683Y360765D01*
X560122Y361496D01*
X559391Y362057D01*
X558540Y362410D01*
X557626Y362530D01*
D02*
G37*
G36*
X466386Y330465D02*
X465000D01*
Y328882D01*
X466386D01*
Y330465D01*
D02*
G37*
G36*
X464000D02*
X462614D01*
Y328882D01*
X464000D01*
Y330465D01*
D02*
G37*
G36*
X559260Y329965D02*
X557874D01*
Y328382D01*
X559260D01*
Y329965D01*
D02*
G37*
G36*
X556874D02*
X555488D01*
Y328382D01*
X556874D01*
Y329965D01*
D02*
G37*
G36*
X513386D02*
X512000D01*
Y328382D01*
X513386D01*
Y329965D01*
D02*
G37*
G36*
X511000D02*
X509614D01*
Y328382D01*
X511000D01*
Y329965D01*
D02*
G37*
G36*
X466386Y327882D02*
X465000D01*
Y326299D01*
X466386D01*
Y327882D01*
D02*
G37*
G36*
X464000D02*
X462614D01*
Y326299D01*
X464000D01*
Y327882D01*
D02*
G37*
G36*
X559260Y327382D02*
X557874D01*
Y325799D01*
X559260D01*
Y327382D01*
D02*
G37*
G36*
X556874D02*
X555488D01*
Y325799D01*
X556874D01*
Y327382D01*
D02*
G37*
G36*
X474772Y326866D02*
X472500D01*
Y324988D01*
X474772D01*
Y326866D01*
D02*
G37*
G36*
X471500D02*
X469228D01*
Y324988D01*
X471500D01*
Y326866D01*
D02*
G37*
G36*
X513386Y327382D02*
X509614D01*
Y325799D01*
X511478D01*
X511745Y325299D01*
X511445Y324851D01*
X511376Y324500D01*
X515624D01*
X515555Y324851D01*
X515072Y325572D01*
X514351Y326055D01*
X513500Y326224D01*
X513386Y326318D01*
Y327382D01*
D02*
G37*
G36*
X518500Y326122D02*
X516228D01*
Y324244D01*
X518500D01*
Y326122D01*
D02*
G37*
G36*
X466500Y325624D02*
Y324000D01*
X468124D01*
X468055Y324351D01*
X467572Y325073D01*
X466851Y325555D01*
X466500Y325624D01*
D02*
G37*
G36*
X465500D02*
X465149Y325555D01*
X464428Y325073D01*
X463945Y324351D01*
X463876Y324000D01*
X465500D01*
Y325624D01*
D02*
G37*
G36*
X564874Y325622D02*
X562602D01*
Y323744D01*
X564874D01*
Y325622D01*
D02*
G37*
G36*
X559000Y324624D02*
Y323000D01*
X560624D01*
X560555Y323351D01*
X560073Y324073D01*
X559351Y324555D01*
X559000Y324624D01*
D02*
G37*
G36*
X558000D02*
X557649Y324555D01*
X556927Y324073D01*
X556445Y323351D01*
X556376Y323000D01*
X558000D01*
Y324624D01*
D02*
G37*
G36*
X474772Y338122D02*
X469228D01*
Y333366D01*
X470471D01*
Y332378D01*
X469228D01*
Y327622D01*
X474772D01*
Y328471D01*
X497872D01*
X500351Y325991D01*
X500160Y325529D01*
X478752D01*
X478167Y325413D01*
X477670Y325081D01*
X475234Y322645D01*
X474772Y322836D01*
Y323988D01*
X472500D01*
Y322110D01*
X474046D01*
X474237Y321648D01*
X472209Y319620D01*
X465543D01*
X450991Y334172D01*
X450495Y334504D01*
X449909Y334620D01*
X425842D01*
X425257Y334504D01*
X424761Y334172D01*
X408962Y318373D01*
X408500Y318564D01*
Y324374D01*
X401500D01*
Y317374D01*
X407310D01*
X407501Y316912D01*
X406681Y316092D01*
X405914Y316410D01*
X405000Y316530D01*
X404086Y316410D01*
X403235Y316057D01*
X402504Y315496D01*
X401943Y314765D01*
X401590Y313914D01*
X401470Y313000D01*
X401590Y312086D01*
X401943Y311235D01*
X402504Y310504D01*
X403235Y309943D01*
X404086Y309590D01*
X405000Y309470D01*
X405914Y309590D01*
X406765Y309943D01*
X407496Y310504D01*
X408057Y311235D01*
X408410Y312086D01*
X408530Y313000D01*
X408459Y313544D01*
X412328Y317413D01*
X412789Y317221D01*
Y286452D01*
X408962Y282625D01*
X408500Y282816D01*
Y287874D01*
X401500D01*
Y280874D01*
X406558D01*
X406749Y280412D01*
X406149Y279812D01*
X405914Y279910D01*
X405000Y280030D01*
X404086Y279910D01*
X403235Y279557D01*
X402504Y278996D01*
X401943Y278265D01*
X401590Y277414D01*
X401470Y276500D01*
X401590Y275586D01*
X401943Y274735D01*
X402504Y274004D01*
X403235Y273443D01*
X404086Y273090D01*
X405000Y272970D01*
X405914Y273090D01*
X406765Y273443D01*
X407496Y274004D01*
X408057Y274735D01*
X408410Y275586D01*
X408530Y276500D01*
X408410Y277414D01*
X408312Y277649D01*
X413918Y283255D01*
X414380Y283064D01*
Y251543D01*
X408962Y246125D01*
X408500Y246316D01*
Y251374D01*
X401500D01*
Y244374D01*
X406558D01*
X406749Y243912D01*
X406149Y243312D01*
X405914Y243410D01*
X405000Y243530D01*
X404086Y243410D01*
X403235Y243057D01*
X402504Y242496D01*
X401943Y241765D01*
X401590Y240914D01*
X401470Y240000D01*
X401590Y239086D01*
X401943Y238235D01*
X402504Y237504D01*
X403235Y236943D01*
X404086Y236590D01*
X405000Y236470D01*
X405914Y236590D01*
X406765Y236943D01*
X407496Y237504D01*
X408057Y238235D01*
X408410Y239086D01*
X408530Y240000D01*
X408410Y240914D01*
X408312Y241149D01*
X415509Y248346D01*
X415971Y248154D01*
Y216634D01*
X408962Y209625D01*
X408500Y209816D01*
Y214874D01*
X401500D01*
Y207874D01*
X406558D01*
X406749Y207412D01*
X406149Y206812D01*
X405914Y206910D01*
X405000Y207030D01*
X404086Y206910D01*
X403235Y206557D01*
X402504Y205996D01*
X401943Y205265D01*
X401590Y204414D01*
X401470Y203500D01*
X401590Y202586D01*
X401943Y201735D01*
X402504Y201004D01*
X403235Y200443D01*
X404086Y200090D01*
X405000Y199970D01*
X405914Y200090D01*
X406765Y200443D01*
X407496Y201004D01*
X408057Y201735D01*
X408410Y202586D01*
X408530Y203500D01*
X408410Y204414D01*
X408312Y204649D01*
X418581Y214919D01*
X418913Y215415D01*
X419029Y216000D01*
Y317367D01*
X428133Y326471D01*
X447367D01*
X461919Y311919D01*
X462415Y311587D01*
X463000Y311471D01*
X474500D01*
X475085Y311587D01*
X475582Y311919D01*
X481134Y317471D01*
X488728D01*
Y316012D01*
X491500D01*
X494272D01*
Y317471D01*
X498366D01*
X507549Y308288D01*
Y305326D01*
X507163Y305009D01*
X507110Y305019D01*
X506490Y304896D01*
X506126Y304653D01*
X505762Y304896D01*
X505642Y304920D01*
Y304063D01*
X505612Y304018D01*
X505488Y303398D01*
Y301134D01*
Y298870D01*
X505612Y298249D01*
X505642Y298205D01*
Y297348D01*
X505762Y297372D01*
X506126Y297615D01*
X506490Y297372D01*
X507110Y297248D01*
X507731Y297372D01*
X508095Y297615D01*
X508458Y297372D01*
X509079Y297248D01*
X509699Y297372D01*
X510063Y297615D01*
X510427Y297372D01*
X511047Y297248D01*
X511668Y297372D01*
X512032Y297615D01*
X512395Y297372D01*
X513016Y297248D01*
X513636Y297372D01*
X514000Y297615D01*
X514364Y297372D01*
X514984Y297248D01*
X515605Y297372D01*
X515969Y297615D01*
X516332Y297372D01*
X516953Y297248D01*
X517573Y297372D01*
X517937Y297615D01*
X518301Y297372D01*
X518921Y297248D01*
X519542Y297372D01*
X519906Y297615D01*
X520269Y297372D01*
X520890Y297248D01*
X521510Y297372D01*
X521874Y297615D01*
X522238Y297372D01*
X522858Y297248D01*
X523479Y297372D01*
X523842Y297615D01*
X524206Y297372D01*
X524827Y297248D01*
X525447Y297372D01*
X525974Y297723D01*
X526325Y298250D01*
X526448Y298870D01*
Y303398D01*
X526325Y304018D01*
X525974Y304544D01*
X525867Y304615D01*
X525862Y304642D01*
X525530Y305138D01*
X523875Y306793D01*
X523875Y306793D01*
X499587Y331081D01*
X499091Y331413D01*
X498505Y331529D01*
X474772D01*
Y332378D01*
X473529D01*
Y333366D01*
X474772D01*
Y338122D01*
D02*
G37*
G36*
X471500Y323988D02*
X469228D01*
Y322110D01*
X471500D01*
Y323988D01*
D02*
G37*
G36*
X515624Y323500D02*
X514000D01*
Y321876D01*
X514351Y321945D01*
X515072Y322428D01*
X515555Y323149D01*
X515624Y323500D01*
D02*
G37*
G36*
X513000D02*
X511376D01*
X511445Y323149D01*
X511928Y322428D01*
X512649Y321945D01*
X513000Y321876D01*
Y323500D01*
D02*
G37*
G36*
X468124Y323000D02*
X466500D01*
Y321376D01*
X466851Y321445D01*
X467572Y321927D01*
X468055Y322649D01*
X468124Y323000D01*
D02*
G37*
G36*
X465500D02*
X463876D01*
X463945Y322649D01*
X464428Y321927D01*
X465149Y321445D01*
X465500Y321376D01*
Y323000D01*
D02*
G37*
G36*
X521772Y323244D02*
X519500D01*
Y321366D01*
X521772D01*
Y323244D01*
D02*
G37*
G36*
X518500D02*
X516228D01*
Y321366D01*
X518500D01*
Y323244D01*
D02*
G37*
G36*
X564874Y322744D02*
X562602D01*
Y320866D01*
X564874D01*
Y322744D01*
D02*
G37*
G36*
X560624Y322000D02*
X559000D01*
Y320376D01*
X559351Y320445D01*
X560073Y320928D01*
X560555Y321649D01*
X560624Y322000D01*
D02*
G37*
G36*
X558000D02*
X556376D01*
X556445Y321649D01*
X556927Y320928D01*
X557649Y320445D01*
X558000Y320376D01*
Y322000D01*
D02*
G37*
G36*
X595500Y322196D02*
X594586Y322075D01*
X593735Y321723D01*
X593004Y321162D01*
X592443Y320430D01*
X592090Y319579D01*
X591970Y318665D01*
X592090Y317752D01*
X592443Y316900D01*
X593004Y316169D01*
X593735Y315608D01*
X594586Y315255D01*
X595500Y315135D01*
X596414Y315255D01*
X597265Y315608D01*
X597996Y316169D01*
X598557Y316900D01*
X598910Y317752D01*
X599030Y318665D01*
X598910Y319579D01*
X598557Y320430D01*
X597996Y321162D01*
X597265Y321723D01*
X596414Y322075D01*
X595500Y322196D01*
D02*
G37*
G36*
X622000Y321613D02*
X621086Y321493D01*
X620235Y321140D01*
X619504Y320579D01*
X618943Y319848D01*
X618590Y318996D01*
X618470Y318083D01*
X618590Y317169D01*
X618943Y316318D01*
X619504Y315586D01*
X620235Y315025D01*
X621086Y314673D01*
X622000Y314552D01*
X622914Y314673D01*
X623765Y315025D01*
X624496Y315586D01*
X625057Y316318D01*
X625410Y317169D01*
X625530Y318083D01*
X625410Y318996D01*
X625057Y319848D01*
X624496Y320579D01*
X623765Y321140D01*
X622914Y321493D01*
X622000Y321613D01*
D02*
G37*
G36*
X494272Y315012D02*
X492000D01*
Y313134D01*
X494272D01*
Y315012D01*
D02*
G37*
G36*
X491000D02*
X488728D01*
Y313134D01*
X491000D01*
Y315012D01*
D02*
G37*
G36*
X484000Y314724D02*
X483149Y314555D01*
X482428Y314072D01*
X481945Y313351D01*
X481776Y312500D01*
X481945Y311649D01*
X482428Y310928D01*
X483149Y310445D01*
X484000Y310276D01*
X484851Y310445D01*
X485572Y310928D01*
X486055Y311649D01*
X486224Y312500D01*
X486055Y313351D01*
X485572Y314072D01*
X484851Y314555D01*
X484000Y314724D01*
D02*
G37*
G36*
X599000Y314291D02*
X592000D01*
Y309454D01*
X588575Y306029D01*
X578634D01*
Y307272D01*
X573878D01*
Y301728D01*
X578634D01*
Y302971D01*
X589209D01*
X589794Y303087D01*
X590290Y303419D01*
X594163Y307291D01*
X599000D01*
Y314291D01*
D02*
G37*
G36*
X436000Y324500D02*
X429000D01*
Y317500D01*
X434352D01*
X434500Y317471D01*
X435611D01*
X450866Y302215D01*
Y299228D01*
X455622D01*
Y304728D01*
X455622Y304772D01*
X455622D01*
Y305228D01*
X455622D01*
Y310772D01*
X454774D01*
Y312256D01*
X454657Y312841D01*
X454325Y313337D01*
X451714Y315949D01*
X451724Y316000D01*
X451555Y316851D01*
X451073Y317572D01*
X450351Y318055D01*
X449500Y318224D01*
X448649Y318055D01*
X447928Y317572D01*
X447445Y316851D01*
X447276Y316000D01*
X447445Y315149D01*
X447928Y314427D01*
X448649Y313945D01*
X449500Y313776D01*
X449551Y313786D01*
X451715Y311622D01*
Y310772D01*
X450866D01*
Y307194D01*
X450404Y307003D01*
X437325Y320081D01*
X436829Y320413D01*
X436244Y320529D01*
X436000D01*
Y324500D01*
D02*
G37*
G36*
X625500Y313709D02*
X618500D01*
Y308872D01*
X608658Y299029D01*
X578634D01*
Y300272D01*
X573878D01*
Y294728D01*
X578634D01*
Y295971D01*
X609291D01*
X609877Y296087D01*
X610373Y296419D01*
X620663Y306709D01*
X625500D01*
Y313709D01*
D02*
G37*
G36*
X494272Y312378D02*
X488728D01*
Y307622D01*
X494272D01*
Y307622D01*
X494524Y307727D01*
X495041Y307211D01*
X494944Y306476D01*
X495046Y305701D01*
X495345Y304979D01*
X495821Y304359D01*
X496441Y303883D01*
X497163Y303584D01*
X497938Y303482D01*
X498713Y303584D01*
X498839Y303636D01*
X500124Y302351D01*
X500620Y302019D01*
X501205Y301903D01*
X501551D01*
Y298870D01*
X501675Y298250D01*
X502027Y297723D01*
X502553Y297372D01*
X503173Y297248D01*
X503794Y297372D01*
X504157Y297615D01*
X504521Y297372D01*
X504642Y297348D01*
Y298205D01*
X504672Y298249D01*
X504795Y298870D01*
Y301134D01*
Y303398D01*
X504672Y304018D01*
X504642Y304063D01*
Y304920D01*
X504521Y304896D01*
X504157Y304653D01*
X503794Y304896D01*
X503173Y305019D01*
X502883Y304962D01*
X501839D01*
X500862Y305939D01*
X500932Y306476D01*
X500830Y307251D01*
X500531Y307973D01*
X500055Y308593D01*
X499435Y309069D01*
X498713Y309368D01*
X497938Y309470D01*
X497203Y309374D01*
X495496Y311081D01*
X495000Y311413D01*
X494414Y311529D01*
X494272D01*
Y312378D01*
D02*
G37*
G36*
X573122Y307272D02*
X568366D01*
Y305360D01*
X568195Y304500D01*
Y298406D01*
X566017Y296228D01*
X565670D01*
X565275Y296392D01*
X564500Y296494D01*
X563725Y296392D01*
X563003Y296093D01*
X562383Y295617D01*
X561907Y294997D01*
X561608Y294275D01*
X561506Y293500D01*
X561608Y292725D01*
X561907Y292003D01*
X562383Y291383D01*
X563003Y290907D01*
X563725Y290608D01*
X564500Y290506D01*
X565275Y290608D01*
X565997Y290907D01*
X566288Y291130D01*
X567073D01*
X568048Y291324D01*
X568875Y291877D01*
X571727Y294728D01*
X573122D01*
Y296491D01*
X573293Y297350D01*
Y304500D01*
X573122Y305360D01*
Y307272D01*
D02*
G37*
G36*
X555000Y295624D02*
Y294000D01*
X556624D01*
X556555Y294351D01*
X556073Y295073D01*
X555351Y295555D01*
X555000Y295624D01*
D02*
G37*
G36*
X554000D02*
X553649Y295555D01*
X552927Y295073D01*
X552445Y294351D01*
X552376Y294000D01*
X554000D01*
Y295624D01*
D02*
G37*
G36*
X551134Y294272D02*
X549256D01*
Y292000D01*
X551134D01*
Y294272D01*
D02*
G37*
G36*
X556624Y293000D02*
X555000D01*
Y291376D01*
X555351Y291445D01*
X556073Y291928D01*
X556555Y292649D01*
X556624Y293000D01*
D02*
G37*
G36*
X554000D02*
X552376D01*
X552445Y292649D01*
X552927Y291928D01*
X553649Y291445D01*
X554000Y291376D01*
Y293000D01*
D02*
G37*
G36*
X432500Y316656D02*
X431586Y316536D01*
X430735Y316183D01*
X430004Y315622D01*
X429443Y314891D01*
X429090Y314040D01*
X428970Y313126D01*
X429090Y312212D01*
X429443Y311361D01*
X430004Y310630D01*
X430735Y310069D01*
X431586Y309716D01*
X432500Y309596D01*
X433414Y309716D01*
X433649Y309814D01*
X451031Y292432D01*
X450840Y291970D01*
X446315D01*
X445730Y291854D01*
X445233Y291522D01*
X436462Y282751D01*
X436000Y282942D01*
Y288000D01*
X429000D01*
Y281000D01*
X434058D01*
X434249Y280538D01*
X433649Y279938D01*
X433414Y280036D01*
X432500Y280156D01*
X431586Y280036D01*
X430735Y279683D01*
X430004Y279122D01*
X429443Y278391D01*
X429090Y277540D01*
X428970Y276626D01*
X429090Y275712D01*
X429443Y274861D01*
X430004Y274130D01*
X430735Y273569D01*
X431586Y273216D01*
X432500Y273096D01*
X433414Y273216D01*
X434265Y273569D01*
X434996Y274130D01*
X435557Y274861D01*
X435910Y275712D01*
X436030Y276626D01*
X435910Y277540D01*
X435812Y277775D01*
X439570Y281534D01*
X440032Y281342D01*
Y249821D01*
X436462Y246251D01*
X436000Y246442D01*
Y251500D01*
X429000D01*
Y244500D01*
X434058D01*
X434249Y244038D01*
X433649Y243438D01*
X433414Y243536D01*
X432500Y243656D01*
X431586Y243536D01*
X430735Y243183D01*
X430004Y242622D01*
X429443Y241891D01*
X429090Y241040D01*
X428970Y240126D01*
X429090Y239212D01*
X429443Y238361D01*
X430004Y237630D01*
X430735Y237069D01*
X431586Y236716D01*
X432500Y236596D01*
X433414Y236716D01*
X434265Y237069D01*
X434996Y237630D01*
X435557Y238361D01*
X435910Y239212D01*
X436030Y240126D01*
X435910Y241040D01*
X435812Y241275D01*
X441161Y246624D01*
X441623Y246433D01*
Y214912D01*
X436462Y209751D01*
X436000Y209942D01*
Y215000D01*
X429000D01*
Y208000D01*
X434058D01*
X434249Y207538D01*
X433649Y206938D01*
X433414Y207036D01*
X432500Y207156D01*
X431586Y207036D01*
X430735Y206683D01*
X430004Y206122D01*
X429443Y205391D01*
X429090Y204540D01*
X428970Y203626D01*
X429090Y202712D01*
X429443Y201861D01*
X430004Y201130D01*
X430735Y200569D01*
X431586Y200216D01*
X432500Y200096D01*
X433414Y200216D01*
X434265Y200569D01*
X434996Y201130D01*
X435557Y201861D01*
X435910Y202712D01*
X436030Y203626D01*
X435910Y204540D01*
X435812Y204775D01*
X444234Y213197D01*
X444565Y213693D01*
X444682Y214278D01*
Y282146D01*
X448266Y285731D01*
X457414D01*
X457606Y285268D01*
X448919Y276581D01*
X448587Y276085D01*
X448471Y275500D01*
Y159864D01*
X448587Y159279D01*
X448919Y158782D01*
X449412Y158289D01*
X449103Y157544D01*
X448966Y156500D01*
X449103Y155456D01*
X449506Y154483D01*
X450147Y153647D01*
X450983Y153006D01*
X451956Y152603D01*
X453000Y152465D01*
X454044Y152603D01*
X455017Y153006D01*
X455853Y153647D01*
X456494Y154483D01*
X456897Y155456D01*
X457034Y156500D01*
X456897Y157544D01*
X456494Y158517D01*
X455853Y159353D01*
X455017Y159994D01*
X454044Y160397D01*
X453000Y160535D01*
X451990Y160401D01*
X451914Y160433D01*
X451529Y160759D01*
Y165154D01*
X451991Y165346D01*
X459305Y158032D01*
X459103Y157544D01*
X458965Y156500D01*
X459103Y155456D01*
X459506Y154483D01*
X460147Y153647D01*
X460983Y153006D01*
X461956Y152603D01*
X463000Y152465D01*
X464044Y152603D01*
X465017Y153006D01*
X465853Y153647D01*
X466494Y154483D01*
X466897Y155456D01*
X467034Y156500D01*
X466897Y157544D01*
X466494Y158517D01*
X465853Y159353D01*
X465017Y159994D01*
X464044Y160397D01*
X463000Y160535D01*
X461956Y160397D01*
X461468Y160195D01*
X453120Y168543D01*
Y194366D01*
X458272D01*
Y195215D01*
X465850D01*
Y183801D01*
X476150D01*
Y204771D01*
X481163D01*
X481748Y204888D01*
X482244Y205219D01*
X486391Y209366D01*
X489772D01*
Y211959D01*
X500763Y222950D01*
X501094Y223446D01*
X501210Y224031D01*
Y224788D01*
X501497Y224907D01*
X502117Y225383D01*
X502593Y226003D01*
X502892Y226725D01*
X502994Y227500D01*
X502892Y228275D01*
X502593Y228997D01*
X502117Y229617D01*
X501497Y230093D01*
X500775Y230392D01*
X500000Y230494D01*
X499225Y230392D01*
X498503Y230093D01*
X498478Y230074D01*
X498029Y230295D01*
Y230932D01*
X498617Y231383D01*
X499093Y232003D01*
X499392Y232725D01*
X499494Y233500D01*
X499392Y234275D01*
X499093Y234997D01*
X498617Y235617D01*
X497997Y236093D01*
X497275Y236392D01*
X496500Y236494D01*
X495725Y236392D01*
X495003Y236093D01*
X494383Y235617D01*
X493907Y234997D01*
X493608Y234275D01*
X493506Y233500D01*
X493608Y232725D01*
X493907Y232003D01*
X494383Y231383D01*
X494971Y230932D01*
Y226996D01*
X487609Y219634D01*
X486391D01*
X482243Y223782D01*
X481747Y224114D01*
X481161Y224230D01*
X476150D01*
Y245201D01*
X465850D01*
Y234785D01*
X458272D01*
Y235634D01*
X453120D01*
Y274208D01*
X460899Y281986D01*
X474282D01*
X474473Y281524D01*
X473604Y280655D01*
X473272Y280158D01*
X473156Y279573D01*
Y269815D01*
X473272Y269230D01*
X473604Y268734D01*
X499471Y242866D01*
Y237000D01*
X499587Y236415D01*
X499919Y235919D01*
X504380Y231457D01*
Y200543D01*
X503551Y199714D01*
X503500Y199724D01*
X502649Y199555D01*
X501928Y199073D01*
X501445Y198351D01*
X501276Y197500D01*
X501445Y196649D01*
X501928Y195928D01*
X502649Y195446D01*
X503500Y195276D01*
X504351Y195446D01*
X505072Y195928D01*
X505555Y196649D01*
X505592Y196839D01*
X505966Y196896D01*
X506110Y196880D01*
X506419Y196419D01*
X511471Y191367D01*
Y188890D01*
X510228D01*
Y184134D01*
X515772D01*
Y188890D01*
X514529D01*
Y192000D01*
Y195110D01*
X515772D01*
Y199866D01*
X510228D01*
Y197588D01*
X509766Y197397D01*
X509029Y198134D01*
Y220245D01*
X509491Y220436D01*
X519971Y209957D01*
Y203000D01*
X520087Y202415D01*
X520419Y201919D01*
X524753Y197584D01*
X524507Y197123D01*
X524000Y197224D01*
X523149Y197055D01*
X522428Y196572D01*
X521945Y195851D01*
X521776Y195000D01*
X521786Y194949D01*
X519419Y192581D01*
X519087Y192085D01*
X518971Y191500D01*
Y188390D01*
X517728D01*
Y183634D01*
X523272D01*
Y188390D01*
X522029D01*
Y190866D01*
X523949Y192786D01*
X524000Y192776D01*
X524851Y192946D01*
X525260Y192776D01*
X525268Y192734D01*
X525600Y192237D01*
X533419Y184419D01*
X533915Y184087D01*
X534500Y183971D01*
X537153D01*
Y181155D01*
X530067D01*
X529482Y181039D01*
X528986Y180707D01*
X522451Y174172D01*
X521990Y174419D01*
X522029Y174618D01*
Y178122D01*
X523272D01*
Y182878D01*
X517728D01*
Y178122D01*
X518971D01*
Y175252D01*
X517254Y173535D01*
X516754Y173742D01*
Y173900D01*
X516637Y174485D01*
X516306Y174981D01*
X514529Y176758D01*
Y178622D01*
X515772D01*
Y183378D01*
X510228D01*
Y178622D01*
X511471D01*
Y176124D01*
X511587Y175539D01*
X511919Y175043D01*
X513695Y173266D01*
Y171689D01*
X510606D01*
Y168032D01*
Y164374D01*
X522130D01*
X522295Y163943D01*
Y163390D01*
X528656D01*
Y162240D01*
X525642D01*
Y159029D01*
X524689D01*
Y162240D01*
X505760D01*
Y159029D01*
X504807D01*
Y162240D01*
X504549D01*
Y163390D01*
X508153D01*
Y163943D01*
X508319Y164374D01*
X509606D01*
Y168032D01*
Y171689D01*
X508653D01*
X508319Y171689D01*
Y171689D01*
X508153Y171689D01*
Y171689D01*
X506529D01*
Y178366D01*
X507772D01*
Y183122D01*
X502228D01*
Y178366D01*
X503471D01*
Y171689D01*
X497886D01*
Y163390D01*
X501490D01*
Y162240D01*
X495720D01*
Y152760D01*
X504807D01*
Y155971D01*
X505760D01*
Y152760D01*
X524689D01*
Y155971D01*
X525642D01*
Y152760D01*
X534728D01*
Y162240D01*
X531714D01*
Y163390D01*
X532563D01*
Y171689D01*
X524946D01*
X524755Y172151D01*
X530700Y178097D01*
X539933D01*
X540081Y178126D01*
X545847D01*
Y183971D01*
X546971D01*
Y174000D01*
X547087Y173415D01*
X547419Y172919D01*
X559875Y160462D01*
X559684Y160000D01*
X552500D01*
Y152000D01*
X560500D01*
Y159184D01*
X560962Y159375D01*
X562805Y157532D01*
X562603Y157044D01*
X562465Y156000D01*
X562603Y154956D01*
X563006Y153983D01*
X563647Y153147D01*
X564483Y152506D01*
X565456Y152103D01*
X566500Y151965D01*
X567544Y152103D01*
X568517Y152506D01*
X569353Y153147D01*
X569994Y153983D01*
X570397Y154956D01*
X570535Y156000D01*
X570397Y157044D01*
X569994Y158017D01*
X569353Y158853D01*
X568517Y159494D01*
X567544Y159897D01*
X566500Y160035D01*
X565456Y159897D01*
X564968Y159695D01*
X563529Y161133D01*
X563721Y161595D01*
X568742D01*
X572805Y157532D01*
X572603Y157044D01*
X572466Y156000D01*
X572603Y154956D01*
X573006Y153983D01*
X573647Y153147D01*
X574483Y152506D01*
X575456Y152103D01*
X576500Y151965D01*
X577544Y152103D01*
X578517Y152506D01*
X579353Y153147D01*
X579994Y153983D01*
X580397Y154956D01*
X580535Y156000D01*
X580397Y157044D01*
X579994Y158017D01*
X579353Y158853D01*
X578517Y159494D01*
X577544Y159897D01*
X576500Y160035D01*
X575456Y159897D01*
X574968Y159695D01*
X570457Y164206D01*
X569961Y164538D01*
X569375Y164654D01*
X562258D01*
X551620Y175292D01*
Y185573D01*
X551504Y186158D01*
X551172Y186654D01*
X549654Y188172D01*
X549158Y188504D01*
X548573Y188620D01*
X535792D01*
X529904Y194508D01*
Y196125D01*
X529801Y196643D01*
Y198478D01*
X529685Y199063D01*
X529654Y199108D01*
X530043Y199427D01*
X531891Y197579D01*
X531776Y197000D01*
X531945Y196149D01*
X532428Y195428D01*
X533149Y194946D01*
X534000Y194776D01*
X534851Y194946D01*
X535572Y195428D01*
X536055Y196149D01*
X536224Y197000D01*
X536055Y197851D01*
X535572Y198573D01*
X535307Y198750D01*
Y199250D01*
X535572Y199427D01*
X536055Y200149D01*
X536224Y201000D01*
X536055Y201851D01*
X535572Y202572D01*
X535307Y202750D01*
Y203250D01*
X535572Y203428D01*
X536055Y204149D01*
X536224Y205000D01*
X536055Y205851D01*
X535572Y206573D01*
X535307Y206750D01*
Y207250D01*
X535572Y207428D01*
X536055Y208149D01*
X536224Y209000D01*
X536055Y209851D01*
X535572Y210573D01*
X535307Y210750D01*
Y211250D01*
X535572Y211427D01*
X536055Y212149D01*
X536224Y213000D01*
X536055Y213851D01*
X535572Y214573D01*
X535307Y214750D01*
Y215250D01*
X535572Y215427D01*
X536055Y216149D01*
X536224Y217000D01*
X536055Y217851D01*
X535572Y218572D01*
X535307Y218750D01*
Y219250D01*
X535572Y219427D01*
X536055Y220149D01*
X536224Y221000D01*
X536055Y221851D01*
X535572Y222572D01*
X534851Y223055D01*
X534000Y223224D01*
X533949Y223214D01*
X532364Y224799D01*
X532362Y224870D01*
X532854Y225143D01*
X533149Y224945D01*
X534000Y224776D01*
X534851Y224945D01*
X535572Y225428D01*
X536055Y226149D01*
X536224Y227000D01*
X536055Y227851D01*
X535572Y228573D01*
X535529Y228601D01*
Y248121D01*
X535413Y248707D01*
X535081Y249203D01*
X522419Y261865D01*
Y263674D01*
X522806Y263991D01*
X522858Y263981D01*
X523479Y264104D01*
X523842Y264347D01*
X524206Y264104D01*
X524827Y263981D01*
X525204Y264056D01*
X525841Y263419D01*
X526337Y263087D01*
X526922Y262971D01*
X541439D01*
Y260039D01*
X541407Y259997D01*
X541108Y259275D01*
X541006Y258500D01*
X541108Y257725D01*
X541407Y257003D01*
X541439Y256961D01*
Y254929D01*
X541633Y253954D01*
X542186Y253127D01*
X542480Y252832D01*
X542480Y234750D01*
X542558Y234360D01*
X542779Y234029D01*
X549630Y227178D01*
Y218350D01*
X555370D01*
Y227178D01*
X562221Y234029D01*
X562442Y234360D01*
X562520Y234750D01*
Y243868D01*
X565629D01*
X569835Y239663D01*
Y235953D01*
X576165D01*
Y243268D01*
X573439D01*
X568487Y248220D01*
X567661Y248772D01*
X566685Y248966D01*
X562520D01*
Y250667D01*
X566031Y254178D01*
X566583Y255005D01*
X566755Y255866D01*
X567272D01*
Y260622D01*
X565360D01*
X564741Y260745D01*
Y261255D01*
X565360Y261378D01*
X567272D01*
Y266134D01*
X567049D01*
Y267110D01*
X567272D01*
Y271866D01*
X565360D01*
X564500Y272037D01*
X563640Y271866D01*
X561728D01*
Y267110D01*
X561951D01*
Y266134D01*
X561728D01*
Y261378D01*
X563640D01*
X564184Y261270D01*
Y260760D01*
X563491Y260622D01*
X561728D01*
Y258368D01*
X561679Y258122D01*
Y257036D01*
X560418Y255774D01*
X560321Y255871D01*
X559990Y256092D01*
X559600Y256170D01*
X546537Y256170D01*
Y256930D01*
X546593Y257003D01*
X546892Y257725D01*
X546994Y258500D01*
X546892Y259275D01*
X546593Y259997D01*
X546537Y260070D01*
Y264500D01*
X546366Y265360D01*
Y267272D01*
X541610D01*
Y266029D01*
X527556D01*
X526883Y266702D01*
X526448Y266992D01*
Y270130D01*
X526325Y270750D01*
X525974Y271277D01*
X525447Y271628D01*
X524827Y271752D01*
X524206Y271628D01*
X523842Y271385D01*
X523479Y271628D01*
X523358Y271652D01*
Y270795D01*
X523328Y270751D01*
X523205Y270130D01*
Y267866D01*
X522512D01*
Y270130D01*
X522388Y270751D01*
X522358Y270795D01*
Y271652D01*
X522238Y271628D01*
X521874Y271385D01*
X521510Y271628D01*
X520890Y271752D01*
X520269Y271628D01*
X519906Y271385D01*
X519542Y271628D01*
X518921Y271752D01*
X518301Y271628D01*
X517937Y271385D01*
X517573Y271628D01*
X516953Y271752D01*
X516332Y271628D01*
X515969Y271385D01*
X515605Y271628D01*
X514984Y271752D01*
X514364Y271628D01*
X514000Y271385D01*
X513636Y271628D01*
X513016Y271752D01*
X512395Y271628D01*
X512032Y271385D01*
X511668Y271628D01*
X511047Y271752D01*
X510427Y271628D01*
X510063Y271385D01*
X509699Y271628D01*
X509079Y271752D01*
X508458Y271628D01*
X508095Y271385D01*
X507731Y271628D01*
X507110Y271752D01*
X506490Y271628D01*
X506126Y271385D01*
X505762Y271628D01*
X505142Y271752D01*
X504521Y271628D01*
X504157Y271385D01*
X503794Y271628D01*
X503173Y271752D01*
X502553Y271628D01*
X502027Y271277D01*
X501675Y270750D01*
X501551Y270130D01*
Y265602D01*
X501644Y265138D01*
Y257061D01*
X501595Y256814D01*
Y250220D01*
X501133Y250029D01*
X489013Y262148D01*
X489205Y262610D01*
X490000D01*
Y264488D01*
X487728D01*
Y264087D01*
X487266Y263895D01*
X479395Y271766D01*
Y276081D01*
X482374D01*
X482492Y275633D01*
X482487Y275581D01*
X481883Y275117D01*
X481407Y274497D01*
X481108Y273775D01*
X481006Y273000D01*
X481108Y272225D01*
X481407Y271503D01*
X481883Y270883D01*
X482503Y270407D01*
X483225Y270108D01*
X483589Y270060D01*
X484829Y268820D01*
X485656Y268267D01*
X486631Y268073D01*
X489887D01*
X490500Y267951D01*
X491360Y268122D01*
X493272D01*
Y270715D01*
X494666Y272109D01*
X494812D01*
X495102Y272052D01*
X499630D01*
X500250Y272175D01*
X500777Y272527D01*
X501128Y273053D01*
X501252Y273673D01*
X501128Y274294D01*
X500885Y274658D01*
X501128Y275021D01*
X501152Y275142D01*
X500295D01*
X500251Y275172D01*
X499630Y275295D01*
X497366D01*
Y275988D01*
X499630D01*
X500251Y276112D01*
X500295Y276142D01*
X501152D01*
X501128Y276262D01*
X500885Y276626D01*
X501128Y276990D01*
X501252Y277610D01*
X501128Y278231D01*
X500885Y278594D01*
X501128Y278958D01*
X501252Y279579D01*
X501128Y280199D01*
X500885Y280563D01*
X501128Y280927D01*
X501252Y281547D01*
X501128Y282168D01*
X500885Y282531D01*
X501128Y282895D01*
X501252Y283516D01*
X501128Y284136D01*
X500885Y284500D01*
X501128Y284864D01*
X501252Y285484D01*
X501128Y286105D01*
X500885Y286469D01*
X501128Y286832D01*
X501252Y287453D01*
X501128Y288073D01*
X500885Y288437D01*
X501128Y288801D01*
X501252Y289421D01*
X501128Y290042D01*
X500885Y290406D01*
X501128Y290769D01*
X501252Y291390D01*
X501128Y292010D01*
X500885Y292374D01*
X501128Y292738D01*
X501252Y293358D01*
X501128Y293979D01*
X500885Y294342D01*
X501128Y294706D01*
X501252Y295327D01*
X501128Y295947D01*
X500777Y296474D01*
X500250Y296825D01*
X499630Y296949D01*
X495102D01*
X494638Y296856D01*
X476495D01*
X475910Y296740D01*
X475414Y296408D01*
X472567Y293561D01*
X468311D01*
X468283Y293618D01*
X468117Y294061D01*
X468392Y294725D01*
X468494Y295500D01*
X468392Y296275D01*
X468093Y296997D01*
X467617Y297617D01*
X466997Y298093D01*
X466275Y298392D01*
X465750Y298461D01*
X461305Y302906D01*
Y308000D01*
X461134Y308860D01*
Y310772D01*
X456378D01*
Y308860D01*
X456207Y308000D01*
Y301850D01*
X456378Y300991D01*
Y299228D01*
X457773D01*
X462842Y294159D01*
X462883Y294061D01*
X462717Y293618D01*
X462689Y293561D01*
X454228D01*
X435812Y311977D01*
X435910Y312212D01*
X436030Y313126D01*
X435910Y314040D01*
X435557Y314891D01*
X434996Y315622D01*
X434265Y316183D01*
X433414Y316536D01*
X432500Y316656D01*
D02*
G37*
G36*
X565000Y282124D02*
Y280500D01*
X566624D01*
X566555Y280851D01*
X566073Y281573D01*
X565351Y282055D01*
X565000Y282124D01*
D02*
G37*
G36*
X564000D02*
X563649Y282055D01*
X562927Y281573D01*
X562445Y280851D01*
X562376Y280500D01*
X564000D01*
Y282124D01*
D02*
G37*
G36*
X521772Y337622D02*
X516228D01*
Y332866D01*
X517471D01*
Y331634D01*
X516228D01*
Y326878D01*
X519543D01*
X519767Y326599D01*
X519557Y326122D01*
X519500D01*
Y324244D01*
X522212D01*
X522234Y324253D01*
X533971Y312516D01*
Y301133D01*
X531336Y298499D01*
X531004Y298003D01*
X530888Y297417D01*
Y296949D01*
X528370D01*
X527749Y296825D01*
X527223Y296474D01*
X526872Y295947D01*
X526748Y295327D01*
X526872Y294706D01*
X527115Y294342D01*
X526872Y293979D01*
X526748Y293358D01*
X526872Y292738D01*
X527115Y292374D01*
X526872Y292010D01*
X526748Y291390D01*
X526872Y290769D01*
X527115Y290406D01*
X526872Y290042D01*
X526748Y289421D01*
X526872Y288801D01*
X527115Y288437D01*
X526872Y288073D01*
X526848Y287953D01*
X527705D01*
X527749Y287923D01*
X528370Y287799D01*
X530634D01*
Y287106D01*
X528370D01*
X527749Y286983D01*
X527705Y286953D01*
X526848D01*
X526872Y286832D01*
X527115Y286469D01*
X526872Y286105D01*
X526748Y285484D01*
X526759Y285432D01*
X526442Y285045D01*
X525535D01*
X524244Y286335D01*
X523748Y286667D01*
X523163Y286783D01*
X519778D01*
X519193Y286667D01*
X518696Y286335D01*
X516665Y284304D01*
X516333Y283807D01*
X516217Y283222D01*
Y277549D01*
X516333Y276963D01*
X516370Y276908D01*
X516108Y276275D01*
X516006Y275500D01*
X516108Y274725D01*
X516407Y274003D01*
X516883Y273383D01*
X517503Y272907D01*
X518225Y272608D01*
X519000Y272506D01*
X519775Y272608D01*
X520497Y272907D01*
X521117Y273383D01*
X521593Y274003D01*
X521892Y274725D01*
X521994Y275500D01*
X521892Y276275D01*
X521593Y276997D01*
X521117Y277617D01*
X520497Y278093D01*
X519775Y278392D01*
X519276Y278458D01*
Y278974D01*
X519333Y279003D01*
X519775Y279168D01*
X520440Y278893D01*
X521215Y278791D01*
X521989Y278893D01*
X522712Y279192D01*
X523332Y279668D01*
X523627Y280052D01*
X526448D01*
X526766Y279666D01*
X526748Y279579D01*
X526872Y278958D01*
X527115Y278594D01*
X526872Y278231D01*
X526748Y277610D01*
X526872Y276990D01*
X527115Y276626D01*
X526872Y276262D01*
X526748Y275642D01*
X526872Y275021D01*
X527115Y274658D01*
X526872Y274294D01*
X526748Y273673D01*
X526872Y273053D01*
X527223Y272527D01*
X527749Y272175D01*
X528370Y272052D01*
X532898D01*
X533518Y272175D01*
X534044Y272527D01*
X534396Y273053D01*
X534519Y273673D01*
X534396Y274294D01*
X534153Y274658D01*
X534396Y275021D01*
X534519Y275642D01*
X534396Y276262D01*
X534153Y276626D01*
X534396Y276990D01*
X534519Y277610D01*
X534396Y278231D01*
X534153Y278594D01*
X534396Y278958D01*
X534519Y279579D01*
X534396Y280199D01*
X534153Y280563D01*
X534396Y280927D01*
X534519Y281547D01*
X534396Y282168D01*
X534153Y282531D01*
X534396Y282895D01*
X534519Y283516D01*
X534509Y283568D01*
X534826Y283955D01*
X535548D01*
X537084Y282419D01*
X537581Y282087D01*
X538166Y281971D01*
X539866D01*
Y280728D01*
X544622D01*
Y286272D01*
X539866D01*
Y285029D01*
X538799D01*
X537263Y286566D01*
X536767Y286897D01*
X536182Y287014D01*
X534826D01*
X534509Y287400D01*
X534519Y287453D01*
X534509Y287505D01*
X534826Y287892D01*
X536617D01*
X537202Y288008D01*
X537699Y288340D01*
X539329Y289971D01*
X540866D01*
Y288728D01*
X543853D01*
X545663Y286919D01*
X545883Y286772D01*
X545731Y286272D01*
X545378D01*
Y280728D01*
X550134D01*
Y280971D01*
X553432D01*
X553883Y280383D01*
X554503Y279907D01*
X555225Y279608D01*
X556000Y279506D01*
X556775Y279608D01*
X557497Y279907D01*
X558117Y280383D01*
X558593Y281003D01*
X558892Y281725D01*
X558994Y282500D01*
X558892Y283275D01*
X558593Y283997D01*
X558117Y284617D01*
X557497Y285093D01*
X556775Y285392D01*
X556000Y285494D01*
X555266Y285397D01*
X551581Y289081D01*
X551134Y289381D01*
Y291000D01*
X548756D01*
Y291500D01*
X548256D01*
Y294272D01*
X546378D01*
Y291337D01*
X545901Y291127D01*
X545622Y291350D01*
Y294272D01*
X540866D01*
Y293029D01*
X538696D01*
X538110Y292913D01*
X537614Y292581D01*
X535984Y290951D01*
X534826D01*
X534509Y291337D01*
X534519Y291390D01*
X534396Y292010D01*
X534265Y292206D01*
X534423Y292312D01*
X541502Y299391D01*
X541502Y299391D01*
X550582Y308471D01*
X558000D01*
X558585Y308587D01*
X559081Y308919D01*
X571081Y320919D01*
X571413Y321415D01*
X571529Y322000D01*
Y324524D01*
X571413Y325109D01*
X571081Y325605D01*
X568146Y328541D01*
Y331134D01*
X566903D01*
Y332366D01*
X568146D01*
Y337122D01*
X562602D01*
Y332366D01*
X563845D01*
Y331134D01*
X562602D01*
Y326378D01*
X565917D01*
X566141Y326099D01*
X565931Y325622D01*
X565874D01*
Y323244D01*
Y320866D01*
X566050D01*
X566241Y320404D01*
X557367Y311529D01*
X549948D01*
X549363Y311413D01*
X548867Y311081D01*
X539339Y301554D01*
X539339Y301554D01*
X537140Y299355D01*
X536752Y299673D01*
X536913Y299915D01*
X537029Y300500D01*
Y313150D01*
X536913Y313735D01*
X536581Y314231D01*
X521772Y329041D01*
Y331634D01*
X520529D01*
Y332866D01*
X521772D01*
Y337622D01*
D02*
G37*
G36*
X595500Y285404D02*
X594586Y285284D01*
X593735Y284931D01*
X593004Y284370D01*
X592443Y283639D01*
X592090Y282788D01*
X591970Y281874D01*
X592090Y280960D01*
X592443Y280109D01*
X593004Y279378D01*
X593735Y278817D01*
X594586Y278464D01*
X595500Y278344D01*
X596414Y278464D01*
X597265Y278817D01*
X597996Y279378D01*
X598557Y280109D01*
X598910Y280960D01*
X599030Y281874D01*
X598910Y282788D01*
X598557Y283639D01*
X597996Y284370D01*
X597265Y284931D01*
X596414Y285284D01*
X595500Y285404D01*
D02*
G37*
G36*
X622000Y284904D02*
X621086Y284784D01*
X620235Y284431D01*
X619504Y283870D01*
X618943Y283139D01*
X618590Y282288D01*
X618470Y281374D01*
X618590Y280460D01*
X618943Y279609D01*
X619504Y278878D01*
X620235Y278317D01*
X621086Y277964D01*
X622000Y277844D01*
X622914Y277964D01*
X623765Y278317D01*
X624496Y278878D01*
X625057Y279609D01*
X625410Y280460D01*
X625530Y281374D01*
X625410Y282288D01*
X625057Y283139D01*
X624496Y283870D01*
X623765Y284431D01*
X622914Y284784D01*
X622000Y284904D01*
D02*
G37*
G36*
X566624Y279500D02*
X562376D01*
X562445Y279149D01*
X562927Y278428D01*
X563649Y277945D01*
X563988Y277878D01*
X563939Y277378D01*
X561728D01*
Y275500D01*
X567272D01*
Y277378D01*
X565061D01*
X565012Y277878D01*
X565351Y277945D01*
X566073Y278428D01*
X566555Y279149D01*
X566624Y279500D01*
D02*
G37*
G36*
X567272Y274500D02*
X565000D01*
Y272622D01*
X567272D01*
Y274500D01*
D02*
G37*
G36*
X564000D02*
X561728D01*
Y272622D01*
X564000D01*
Y274500D01*
D02*
G37*
G36*
X599000Y277500D02*
X592000D01*
Y270500D01*
X599000D01*
Y277500D01*
D02*
G37*
G36*
X625500Y277000D02*
X618500D01*
Y270000D01*
X625500D01*
Y277000D01*
D02*
G37*
G36*
X493272Y267366D02*
X491000D01*
Y265488D01*
X493272D01*
Y267366D01*
D02*
G37*
G36*
X490000D02*
X487728D01*
Y265488D01*
X490000D01*
Y267366D01*
D02*
G37*
G36*
X555000Y266624D02*
Y265000D01*
X556624D01*
X556555Y265351D01*
X556073Y266073D01*
X555351Y266555D01*
X555000Y266624D01*
D02*
G37*
G36*
X549000Y267272D02*
X547122D01*
Y265000D01*
X549000D01*
Y267272D01*
D02*
G37*
G36*
X497500Y266124D02*
Y264500D01*
X499124D01*
X499055Y264851D01*
X498572Y265573D01*
X497851Y266055D01*
X497500Y266124D01*
D02*
G37*
G36*
X496500D02*
X496149Y266055D01*
X495428Y265573D01*
X494945Y264851D01*
X494876Y264500D01*
X496500D01*
Y266124D01*
D02*
G37*
G36*
X493272Y264488D02*
X491000D01*
Y262610D01*
X493272D01*
Y264488D01*
D02*
G37*
G36*
X556624Y264000D02*
X555000D01*
Y262376D01*
X555351Y262445D01*
X556073Y262928D01*
X556555Y263649D01*
X556624Y264000D01*
D02*
G37*
G36*
X551878Y267272D02*
X550000D01*
Y264500D01*
Y261728D01*
X551878D01*
Y263939D01*
X552378Y263988D01*
X552445Y263649D01*
X552927Y262928D01*
X553649Y262445D01*
X554000Y262376D01*
Y264500D01*
Y266624D01*
X553649Y266555D01*
X552927Y266073D01*
X552445Y265351D01*
X552378Y265012D01*
X551878Y265061D01*
Y267272D01*
D02*
G37*
G36*
X499124Y263500D02*
X497500D01*
Y261876D01*
X497851Y261945D01*
X498572Y262427D01*
X499055Y263149D01*
X499124Y263500D01*
D02*
G37*
G36*
X496500D02*
X494876D01*
X494945Y263149D01*
X495428Y262427D01*
X496149Y261945D01*
X496500Y261876D01*
Y263500D01*
D02*
G37*
G36*
X549000Y264000D02*
X547122D01*
Y261728D01*
X549000D01*
Y264000D01*
D02*
G37*
G36*
X595500Y248613D02*
X594586Y248493D01*
X593735Y248140D01*
X593004Y247579D01*
X592443Y246848D01*
X592090Y245996D01*
X591970Y245083D01*
X592090Y244169D01*
X592443Y243318D01*
X593004Y242586D01*
X593735Y242025D01*
X594586Y241673D01*
X595500Y241552D01*
X596414Y241673D01*
X597265Y242025D01*
X597996Y242586D01*
X598557Y243318D01*
X598910Y244169D01*
X599030Y245083D01*
X598910Y245996D01*
X598557Y246848D01*
X597996Y247579D01*
X597265Y248140D01*
X596414Y248493D01*
X595500Y248613D01*
D02*
G37*
G36*
X622000Y248196D02*
X621086Y248075D01*
X620235Y247723D01*
X619504Y247162D01*
X618943Y246430D01*
X618590Y245579D01*
X618470Y244665D01*
X618590Y243752D01*
X618943Y242900D01*
X619504Y242169D01*
X620235Y241608D01*
X621086Y241255D01*
X622000Y241135D01*
X622914Y241255D01*
X623765Y241608D01*
X624496Y242169D01*
X625057Y242900D01*
X625410Y243752D01*
X625530Y244665D01*
X625410Y245579D01*
X625057Y246430D01*
X624496Y247162D01*
X623765Y247723D01*
X622914Y248075D01*
X622000Y248196D01*
D02*
G37*
G36*
X599000Y240709D02*
X592000D01*
Y233709D01*
X599000D01*
Y240709D01*
D02*
G37*
G36*
X625500Y240291D02*
X618500D01*
Y233291D01*
X625500D01*
Y240291D01*
D02*
G37*
G36*
X576165Y232047D02*
X569835D01*
Y228337D01*
X567629Y226132D01*
X564425D01*
Y228815D01*
X558685D01*
Y218350D01*
X559006D01*
Y215055D01*
X559200Y214080D01*
X559753Y213253D01*
X560495Y212511D01*
X560303Y212049D01*
X555634D01*
Y212272D01*
X550878D01*
Y210360D01*
X550707Y209500D01*
Y202500D01*
X550878Y201640D01*
Y199728D01*
X555634D01*
Y201640D01*
X555805Y202500D01*
Y203908D01*
X556305Y204175D01*
X556649Y203945D01*
X557000Y203876D01*
Y206000D01*
X557500D01*
Y206500D01*
X559674D01*
X560043Y206951D01*
X565835D01*
Y203953D01*
X572165D01*
Y207663D01*
X578123Y213621D01*
X578676Y214448D01*
X578813Y215138D01*
X579093Y215503D01*
X579392Y216225D01*
X579494Y217000D01*
X579392Y217775D01*
X579093Y218497D01*
X578617Y219117D01*
X577997Y219593D01*
X577275Y219892D01*
X576500Y219994D01*
X575725Y219892D01*
X575003Y219593D01*
X574383Y219117D01*
X573907Y218497D01*
X573608Y217775D01*
X573506Y217000D01*
X573597Y216305D01*
X569000Y211707D01*
X565971Y214736D01*
X565144Y215289D01*
X564872Y215343D01*
X564104Y216111D01*
Y218350D01*
X564425D01*
Y221034D01*
X568685D01*
X569661Y221228D01*
X570487Y221780D01*
X573439Y224732D01*
X576165D01*
Y232047D01*
D02*
G37*
G36*
X546315Y228815D02*
X543945D01*
Y224083D01*
X546315D01*
Y228815D01*
D02*
G37*
G36*
X542945D02*
X540575D01*
Y224083D01*
X542945D01*
Y228815D01*
D02*
G37*
G36*
Y223083D02*
X540575D01*
Y218350D01*
X542945D01*
Y223083D01*
D02*
G37*
G36*
X546315D02*
X543945D01*
Y218350D01*
X544512D01*
X544779Y217850D01*
X544445Y217351D01*
X544376Y217000D01*
X548624D01*
X548555Y217351D01*
X548072Y218073D01*
X547351Y218555D01*
X546500Y218724D01*
X546315Y218876D01*
Y223083D01*
D02*
G37*
G36*
X548624Y216000D02*
X547000D01*
Y214376D01*
X547351Y214445D01*
X548072Y214928D01*
X548555Y215649D01*
X548624Y216000D01*
D02*
G37*
G36*
X546000D02*
X544376D01*
X544445Y215649D01*
X544928Y214928D01*
X545649Y214445D01*
X546000Y214376D01*
Y216000D01*
D02*
G37*
G36*
X512500Y215624D02*
Y214000D01*
X514124D01*
X514055Y214351D01*
X513573Y215072D01*
X512851Y215555D01*
X512500Y215624D01*
D02*
G37*
G36*
X511500D02*
X511149Y215555D01*
X510428Y215072D01*
X509945Y214351D01*
X509876Y214000D01*
X511500D01*
Y215624D01*
D02*
G37*
G36*
X514124Y213000D02*
X512500D01*
Y211376D01*
X512851Y211445D01*
X513573Y211928D01*
X514055Y212649D01*
X514124Y213000D01*
D02*
G37*
G36*
X511500D02*
X509876D01*
X509945Y212649D01*
X510428Y211928D01*
X511149Y211445D01*
X511500Y211376D01*
Y213000D01*
D02*
G37*
G36*
X550122Y212272D02*
X548244D01*
Y210000D01*
X550122D01*
Y212272D01*
D02*
G37*
G36*
X547244D02*
X545366D01*
Y210000D01*
X547244D01*
Y212272D01*
D02*
G37*
G36*
X550122Y209000D02*
X548244D01*
Y206728D01*
X550122D01*
Y209000D01*
D02*
G37*
G36*
X547244D02*
X545366D01*
Y206728D01*
X547244D01*
Y209000D01*
D02*
G37*
G36*
X595500Y211822D02*
X594586Y211701D01*
X593735Y211349D01*
X593004Y210788D01*
X592443Y210056D01*
X592090Y209205D01*
X591970Y208291D01*
X592090Y207378D01*
X592443Y206526D01*
X593004Y205795D01*
X593735Y205234D01*
X594586Y204881D01*
X595500Y204761D01*
X596414Y204881D01*
X597265Y205234D01*
X597996Y205795D01*
X598557Y206526D01*
X598910Y207378D01*
X599030Y208291D01*
X598910Y209205D01*
X598557Y210056D01*
X597996Y210788D01*
X597265Y211349D01*
X596414Y211701D01*
X595500Y211822D01*
D02*
G37*
G36*
X622000Y211487D02*
X621086Y211367D01*
X620235Y211014D01*
X619504Y210453D01*
X618943Y209722D01*
X618590Y208870D01*
X618470Y207957D01*
X618590Y207043D01*
X618943Y206192D01*
X619504Y205461D01*
X620235Y204900D01*
X621086Y204547D01*
X622000Y204427D01*
X622914Y204547D01*
X623765Y204900D01*
X624496Y205461D01*
X625057Y206192D01*
X625410Y207043D01*
X625530Y207957D01*
X625410Y208870D01*
X625057Y209722D01*
X624496Y210453D01*
X623765Y211014D01*
X622914Y211367D01*
X622000Y211487D01*
D02*
G37*
G36*
X559624Y205500D02*
X558000D01*
Y203876D01*
X558351Y203945D01*
X559072Y204428D01*
X559555Y205149D01*
X559624Y205500D01*
D02*
G37*
G36*
X515772Y205378D02*
X513500D01*
Y203500D01*
X515772D01*
Y205378D01*
D02*
G37*
G36*
X512500D02*
X510228D01*
Y203500D01*
X512500D01*
Y205378D01*
D02*
G37*
G36*
X550122Y205272D02*
X548244D01*
Y203000D01*
X550122D01*
Y205272D01*
D02*
G37*
G36*
X547244D02*
X545366D01*
Y203000D01*
X547244D01*
Y205272D01*
D02*
G37*
G36*
X515772Y202500D02*
X513500D01*
Y200622D01*
X515772D01*
Y202500D01*
D02*
G37*
G36*
X512500D02*
X510228D01*
Y200622D01*
X512500D01*
Y202500D01*
D02*
G37*
G36*
X550122Y202000D02*
X548244D01*
Y199728D01*
X550122D01*
Y202000D01*
D02*
G37*
G36*
X547244D02*
X545366D01*
Y199728D01*
X547244D01*
Y202000D01*
D02*
G37*
G36*
X599000Y203917D02*
X592000D01*
Y196917D01*
X599000D01*
Y203917D01*
D02*
G37*
G36*
X625500Y203583D02*
X618500D01*
Y196583D01*
X625500D01*
Y203583D01*
D02*
G37*
G36*
X572165Y200047D02*
X565835D01*
Y196337D01*
X564854Y195356D01*
X545847D01*
Y195874D01*
X537153D01*
Y189740D01*
X545847D01*
Y190258D01*
X564854D01*
X566470Y188642D01*
X566645Y187761D01*
X567114Y187059D01*
Y186653D01*
X567617D01*
X568024Y186381D01*
X569000Y186187D01*
X569976Y186381D01*
X570383Y186653D01*
X570886D01*
Y187059D01*
X571355Y187761D01*
X571549Y188736D01*
Y189716D01*
X571355Y190692D01*
X570802Y191519D01*
X570051Y192270D01*
X570242Y192732D01*
X572165D01*
Y200047D01*
D02*
G37*
G36*
X499000Y192124D02*
Y190500D01*
X500624D01*
X500555Y190851D01*
X500072Y191572D01*
X499351Y192054D01*
X499000Y192124D01*
D02*
G37*
G36*
X498000D02*
X497649Y192054D01*
X496927Y191572D01*
X496445Y190851D01*
X496376Y190500D01*
X498000D01*
Y192124D01*
D02*
G37*
G36*
X500624Y189500D02*
X499000D01*
Y187876D01*
X499351Y187945D01*
X500072Y188427D01*
X500555Y189149D01*
X500624Y189500D01*
D02*
G37*
G36*
X498000D02*
X496376D01*
X496445Y189149D01*
X496927Y188427D01*
X497649Y187945D01*
X498000Y187876D01*
Y189500D01*
D02*
G37*
G36*
X507772Y188634D02*
X505500D01*
Y186756D01*
X507772D01*
Y188634D01*
D02*
G37*
G36*
X504500D02*
X502228D01*
Y186756D01*
X504500D01*
Y188634D01*
D02*
G37*
G36*
X507772Y185756D02*
X505500D01*
Y183878D01*
X507772D01*
Y185756D01*
D02*
G37*
G36*
X504500D02*
X502228D01*
Y183878D01*
X504500D01*
Y185756D01*
D02*
G37*
G36*
X570886Y180583D02*
X569500D01*
Y179000D01*
X570886D01*
Y180583D01*
D02*
G37*
G36*
X568500D02*
X567114D01*
Y179000D01*
X568500D01*
Y180583D01*
D02*
G37*
G36*
X576500Y180124D02*
Y178500D01*
X578124D01*
X578055Y178851D01*
X577572Y179572D01*
X576851Y180054D01*
X576500Y180124D01*
D02*
G37*
G36*
X575500D02*
X575149Y180054D01*
X574428Y179572D01*
X573945Y178851D01*
X573876Y178500D01*
X575500D01*
Y180124D01*
D02*
G37*
G36*
X570886Y178000D02*
X569500D01*
Y176417D01*
X570886D01*
Y178000D01*
D02*
G37*
G36*
X568500D02*
X567114D01*
Y176417D01*
X568500D01*
Y178000D01*
D02*
G37*
G36*
X578124Y177500D02*
X576500D01*
Y175876D01*
X576851Y175945D01*
X577572Y176427D01*
X578055Y177149D01*
X578124Y177500D01*
D02*
G37*
G36*
X575500D02*
X573876D01*
X573945Y177149D01*
X574428Y176427D01*
X575149Y175945D01*
X575500Y175876D01*
Y177500D01*
D02*
G37*
G36*
X618000Y186966D02*
Y172878D01*
X632088D01*
X631948Y174666D01*
X631412Y176898D01*
X630533Y179019D01*
X629334Y180976D01*
X627843Y182721D01*
X626098Y184212D01*
X624141Y185411D01*
X622020Y186290D01*
X619788Y186826D01*
X618000Y186966D01*
D02*
G37*
G36*
X617000D02*
X615212Y186826D01*
X612980Y186290D01*
X610859Y185411D01*
X608902Y184212D01*
X607157Y182721D01*
X605666Y180976D01*
X604467Y179019D01*
X603588Y176898D01*
X603052Y174666D01*
X602912Y172878D01*
X617000D01*
Y186966D01*
D02*
G37*
G36*
X407000Y185588D02*
Y171500D01*
X421088D01*
X420948Y173288D01*
X420412Y175520D01*
X419533Y177641D01*
X418334Y179598D01*
X416843Y181343D01*
X415098Y182834D01*
X413141Y184033D01*
X411020Y184912D01*
X408788Y185448D01*
X407000Y185588D01*
D02*
G37*
G36*
X406000D02*
X404212Y185448D01*
X401980Y184912D01*
X399859Y184033D01*
X397902Y182834D01*
X396157Y181343D01*
X394666Y179598D01*
X393467Y177641D01*
X392588Y175520D01*
X392052Y173288D01*
X391912Y171500D01*
X406000D01*
Y185588D01*
D02*
G37*
G36*
X632088Y171878D02*
X618000D01*
Y157790D01*
X619788Y157930D01*
X622020Y158466D01*
X624141Y159344D01*
X626098Y160544D01*
X627843Y162035D01*
X629334Y163780D01*
X630533Y165737D01*
X631412Y167858D01*
X631948Y170090D01*
X632088Y171878D01*
D02*
G37*
G36*
X617000D02*
X602912D01*
X603052Y170090D01*
X603588Y167858D01*
X604467Y165737D01*
X605666Y163780D01*
X607157Y162035D01*
X608902Y160544D01*
X610859Y159344D01*
X612980Y158466D01*
X615212Y157930D01*
X617000Y157790D01*
Y171878D01*
D02*
G37*
G36*
X473500Y160469D02*
Y157000D01*
X476969D01*
X476897Y157544D01*
X476494Y158517D01*
X475853Y159353D01*
X475017Y159994D01*
X474044Y160397D01*
X473500Y160469D01*
D02*
G37*
G36*
X472500D02*
X471956Y160397D01*
X470983Y159994D01*
X470147Y159353D01*
X469506Y158517D01*
X469103Y157544D01*
X469031Y157000D01*
X472500D01*
Y160469D01*
D02*
G37*
G36*
X587000Y159969D02*
Y156500D01*
X590469D01*
X590397Y157044D01*
X589994Y158017D01*
X589353Y158853D01*
X588517Y159494D01*
X587544Y159897D01*
X587000Y159969D01*
D02*
G37*
G36*
X586000D02*
X585456Y159897D01*
X584483Y159494D01*
X583647Y158853D01*
X583006Y158017D01*
X582603Y157044D01*
X582531Y156500D01*
X586000D01*
Y159969D01*
D02*
G37*
G36*
X421088Y170500D02*
X407000D01*
Y156412D01*
X408788Y156552D01*
X411020Y157088D01*
X413141Y157967D01*
X415098Y159166D01*
X416843Y160657D01*
X418334Y162402D01*
X419533Y164359D01*
X420412Y166480D01*
X420948Y168712D01*
X421088Y170500D01*
D02*
G37*
G36*
X406000D02*
X391912D01*
X392052Y168712D01*
X392588Y166480D01*
X393467Y164359D01*
X394666Y162402D01*
X396157Y160657D01*
X397902Y159166D01*
X399859Y157967D01*
X401980Y157088D01*
X404212Y156552D01*
X406000Y156412D01*
Y170500D01*
D02*
G37*
G36*
X476969Y156000D02*
X473500D01*
Y152531D01*
X474044Y152603D01*
X475017Y153006D01*
X475853Y153647D01*
X476494Y154483D01*
X476897Y155456D01*
X476969Y156000D01*
D02*
G37*
G36*
X472500D02*
X469031D01*
X469103Y155456D01*
X469506Y154483D01*
X470147Y153647D01*
X470983Y153006D01*
X471956Y152603D01*
X472500Y152531D01*
Y156000D01*
D02*
G37*
G36*
X447000Y160500D02*
X439000D01*
Y152500D01*
X447000D01*
Y160500D01*
D02*
G37*
G36*
X590469Y155500D02*
X587000D01*
Y152031D01*
X587544Y152103D01*
X588517Y152506D01*
X589353Y153147D01*
X589994Y153983D01*
X590397Y154956D01*
X590469Y155500D01*
D02*
G37*
G36*
X586000D02*
X582531D01*
X582603Y154956D01*
X583006Y153983D01*
X583647Y153147D01*
X584483Y152506D01*
X585456Y152103D01*
X586000Y152031D01*
Y155500D01*
D02*
G37*
%LPD*%
G36*
X523380Y254457D02*
Y243231D01*
X522939Y242996D01*
X522851Y243055D01*
X522500Y243124D01*
Y241000D01*
X521500D01*
Y243124D01*
X521149Y243055D01*
X520428Y242572D01*
X519945Y241851D01*
X519832Y241282D01*
X519290Y241118D01*
X516909Y243499D01*
X517248Y243866D01*
X517344Y243866D01*
X519500D01*
Y246244D01*
Y248622D01*
X517344D01*
X517228Y248622D01*
X517132Y248692D01*
Y248918D01*
X517603Y249378D01*
X522772D01*
Y254134D01*
X519785D01*
X518482Y255437D01*
Y258702D01*
X518944Y258893D01*
X523380Y254457D01*
D02*
G37*
G36*
X559600Y255150D02*
X561500Y253250D01*
Y234750D01*
X554400Y227650D01*
X550600D01*
X543500Y234750D01*
X543500Y253350D01*
X545300Y255150D01*
X559600Y255150D01*
D02*
G37*
G36*
X532471Y247488D02*
Y228601D01*
X532428Y228573D01*
X531945Y227851D01*
X531776Y227000D01*
X531945Y226149D01*
X532142Y225854D01*
X531870Y225362D01*
X531799Y225364D01*
X526439Y230724D01*
Y252866D01*
X526901Y253058D01*
X532471Y247488D01*
D02*
G37*
G36*
X465850Y221201D02*
X474502D01*
X474650Y221171D01*
X480528D01*
X484228Y217471D01*
Y214878D01*
X487557D01*
X487767Y214401D01*
X487543Y214122D01*
X484228D01*
Y211529D01*
X480529Y207830D01*
X474650D01*
X474502Y207801D01*
X465850D01*
Y198274D01*
X458272D01*
Y199122D01*
X453120D01*
Y199878D01*
X455000D01*
Y202256D01*
Y204634D01*
X453120D01*
Y211236D01*
X453620Y211388D01*
X453928Y210928D01*
X454649Y210445D01*
X455000Y210376D01*
Y212500D01*
Y214624D01*
X454649Y214555D01*
X453928Y214072D01*
X453620Y213612D01*
X453120Y213764D01*
Y220236D01*
X453620Y220388D01*
X453928Y219928D01*
X454649Y219445D01*
X455000Y219376D01*
Y221500D01*
Y223624D01*
X454649Y223555D01*
X453928Y223073D01*
X453620Y222612D01*
X453120Y222764D01*
Y225366D01*
X455000D01*
Y227744D01*
Y230122D01*
X453120D01*
Y230878D01*
X458272D01*
Y231727D01*
X465850D01*
Y221201D01*
D02*
G37*
G36*
X523380Y238769D02*
Y230090D01*
X523496Y229505D01*
X523828Y229009D01*
X531786Y221051D01*
X531776Y221000D01*
X531945Y220149D01*
X532428Y219427D01*
X532549Y219346D01*
X532579Y218802D01*
X532285Y218529D01*
X530701D01*
X521754Y227477D01*
Y238020D01*
X521693Y238328D01*
X521917Y238655D01*
X522069Y238789D01*
X522072Y238790D01*
X522851Y238945D01*
X522939Y239004D01*
X523380Y238769D01*
D02*
G37*
%LPC*%
G36*
X520500Y248622D02*
Y246744D01*
X522772D01*
Y248622D01*
X520500D01*
D02*
G37*
G36*
X522772Y245744D02*
X520500D01*
Y243866D01*
X522772D01*
Y245744D01*
D02*
G37*
G36*
X458272Y230122D02*
X456000D01*
Y228244D01*
X458272D01*
Y230122D01*
D02*
G37*
G36*
Y227244D02*
X456000D01*
Y225366D01*
X458272D01*
Y227244D01*
D02*
G37*
G36*
X456000Y223624D02*
Y222000D01*
X457624D01*
X457555Y222351D01*
X457072Y223073D01*
X456351Y223555D01*
X456000Y223624D01*
D02*
G37*
G36*
X457624Y221000D02*
X456000D01*
Y219376D01*
X456351Y219445D01*
X457072Y219928D01*
X457555Y220649D01*
X457624Y221000D01*
D02*
G37*
G36*
X472000Y216624D02*
Y215000D01*
X473624D01*
X473555Y215351D01*
X473072Y216073D01*
X472351Y216555D01*
X472000Y216624D01*
D02*
G37*
G36*
X471000D02*
X470649Y216555D01*
X469928Y216073D01*
X469445Y215351D01*
X469376Y215000D01*
X471000D01*
Y216624D01*
D02*
G37*
G36*
X456000Y214624D02*
Y213000D01*
X457624D01*
X457555Y213351D01*
X457072Y214072D01*
X456351Y214555D01*
X456000Y214624D01*
D02*
G37*
G36*
X473624Y214000D02*
X472000D01*
Y212376D01*
X472351Y212445D01*
X473072Y212928D01*
X473555Y213649D01*
X473624Y214000D01*
D02*
G37*
G36*
X471000D02*
X469376D01*
X469445Y213649D01*
X469928Y212928D01*
X470649Y212445D01*
X471000Y212376D01*
Y214000D01*
D02*
G37*
G36*
X457624Y212000D02*
X456000D01*
Y210376D01*
X456351Y210445D01*
X457072Y210928D01*
X457555Y211649D01*
X457624Y212000D01*
D02*
G37*
G36*
X458272Y204634D02*
X456000D01*
Y202756D01*
X458272D01*
Y204634D01*
D02*
G37*
G36*
Y201756D02*
X456000D01*
Y199878D01*
X458272D01*
Y201756D01*
D02*
G37*
%LPD*%
D18*
X524909Y230090D02*
X534000Y221000D01*
X524909Y230090D02*
Y255091D01*
X530068Y217000D02*
X534000D01*
X520890Y261232D02*
X534000Y248121D01*
Y227000D02*
Y248121D01*
X472000Y330000D02*
X498505D01*
X522794Y305712D01*
Y305712D02*
X524449Y304057D01*
X522794Y305712D02*
Y305712D01*
X524827Y301134D02*
Y303447D01*
X524449Y303825D02*
X524827Y303447D01*
X524449Y303825D02*
Y304057D01*
X507110Y248637D02*
Y267866D01*
X508953Y240294D02*
X513862Y235385D01*
X507110Y248637D02*
X508953Y246794D01*
X534000Y201000D02*
X534000D01*
X513862Y224720D02*
X526135Y212447D01*
X508953Y240294D02*
Y246794D01*
X513862Y224720D02*
Y235385D01*
X526135Y208865D02*
Y212447D01*
Y208865D02*
X534000Y201000D01*
X527635Y211365D02*
X534000Y205000D01*
X510634Y240734D02*
Y247234D01*
X509079Y248789D02*
Y267866D01*
Y248789D02*
X510634Y247234D01*
Y240734D02*
X515543Y235825D01*
Y225161D02*
X527635Y213069D01*
X515543Y225161D02*
Y235825D01*
X527635Y211365D02*
Y213069D01*
X534000Y205000D02*
X534000D01*
X511047Y249198D02*
X512134Y248112D01*
X511047Y249198D02*
Y267866D01*
X512134Y241612D02*
Y248112D01*
Y241612D02*
X517043Y236702D01*
Y225782D02*
Y236702D01*
Y225782D02*
X533825Y209000D01*
X514697Y265266D02*
X514984Y265553D01*
Y267866D01*
X514697Y250047D02*
Y265266D01*
Y250047D02*
X515315Y249429D01*
X520224Y226843D02*
X530068Y217000D01*
X520224Y226843D02*
Y238020D01*
X515315Y242929D02*
Y249429D01*
Y242929D02*
X520224Y238020D01*
X518921Y261079D02*
Y267866D01*
Y261079D02*
X524909Y255091D01*
X518634Y226313D02*
X531947Y213000D01*
X534000D01*
X533825Y209000D02*
X534000D01*
X533421Y197948D02*
Y198212D01*
X524590Y207042D02*
X533421Y198212D01*
X534000Y197000D02*
Y197369D01*
X524590Y207042D02*
Y211871D01*
X533421Y197948D02*
X534000Y197369D01*
X528272Y196228D02*
Y198478D01*
Y196228D02*
X528375Y196125D01*
Y193875D02*
Y196125D01*
X526681Y193319D02*
Y197819D01*
X521500Y203000D02*
X526681Y197819D01*
Y193319D02*
X534500Y185500D01*
X547914D01*
X528375Y193875D02*
X535159Y187091D01*
X548573D01*
X518634Y226313D02*
Y237361D01*
X544516Y290228D02*
X546744Y288000D01*
X550500D02*
X556000Y282500D01*
X546744Y288000D02*
X550500D01*
X548634Y282500D02*
X556000D01*
X543244Y291106D02*
X544122Y290228D01*
X544516D01*
X543244Y291106D02*
Y291500D01*
X538166Y283500D02*
X542244D01*
X536182Y285484D02*
X538166Y283500D01*
X530634Y285484D02*
X536182D01*
X520890Y261232D02*
Y267866D01*
X512362Y224099D02*
X524590Y211871D01*
X512362Y224099D02*
Y234507D01*
X507453Y239417D02*
X512362Y234507D01*
X507453Y239417D02*
Y245917D01*
X505142Y248228D02*
X507453Y245917D01*
X505142Y248228D02*
Y267866D01*
X557624Y358998D02*
X557626Y359000D01*
X557624Y346559D02*
Y358998D01*
X511343Y358717D02*
X511626Y359000D01*
X511343Y346559D02*
Y358717D01*
X464500Y346809D02*
Y359000D01*
X519606Y251756D02*
X520000D01*
X518728Y252634D02*
X519606Y251756D01*
X518728Y252634D02*
Y253028D01*
X516953Y254803D02*
X518728Y253028D01*
X516953Y254803D02*
Y267866D01*
X486606Y211744D02*
X487394D01*
X499681Y227181D02*
X500000Y227500D01*
X499681Y224031D02*
Y227181D01*
X487394Y211744D02*
X499681Y224031D01*
X487000Y217256D02*
X487394D01*
X513724Y242271D02*
X518634Y237361D01*
X513724Y242271D02*
Y248771D01*
X513016Y249479D02*
X513724Y248771D01*
X513016Y249479D02*
Y267866D01*
X505772Y238977D02*
X510681Y234067D01*
X505772Y238977D02*
Y245477D01*
X503124Y248124D02*
X505772Y245477D01*
X510681Y223659D02*
Y234067D01*
X504181Y238318D02*
X509091Y233408D01*
X504181Y238318D02*
Y244818D01*
X477866Y271133D02*
X504181Y244818D01*
X509091Y223000D02*
Y233408D01*
X477866Y271133D02*
Y277000D01*
X502591Y237659D02*
X507500Y232749D01*
X502591Y237659D02*
Y244159D01*
X476276Y270474D02*
X502591Y244159D01*
X507500Y197500D02*
Y232749D01*
X505909Y199909D02*
Y232090D01*
X474685Y269815D02*
X501000Y243500D01*
Y237000D02*
Y243500D01*
Y237000D02*
X505909Y232090D01*
X496500Y226362D02*
Y233500D01*
X487394Y217256D02*
X496500Y226362D01*
X547756Y283378D02*
Y283500D01*
Y283378D02*
X548634Y282500D01*
X486606Y217256D02*
X487394D01*
X540421Y300472D02*
Y300472D01*
X549948Y310000D02*
X558000D01*
X540421Y300472D02*
X549948Y310000D01*
X524910Y265621D02*
X525802D01*
X526922Y264500D02*
X543988D01*
X524827Y265704D02*
X524910Y265621D01*
X524827Y265704D02*
Y267866D01*
X525802Y265621D02*
X526922Y264500D01*
X477338Y289421D02*
X497366D01*
X432500Y203626D02*
X443152Y214278D01*
Y282780D02*
X447633Y287260D01*
X443152Y214278D02*
Y282780D01*
X447633Y287260D02*
X475177D01*
X477338Y289421D01*
X530634D02*
X536617D01*
X538696Y291500D02*
X543244D01*
X536617Y289421D02*
X538696Y291500D01*
X476776Y293358D02*
X497366D01*
X432500Y276626D02*
X446315Y290441D01*
X473859D01*
X476776Y293358D01*
X503500Y197500D02*
X505909Y199909D01*
X533341Y293393D02*
X540421Y300472D01*
X570000Y322000D02*
Y324524D01*
X558000Y310000D02*
X570000Y322000D01*
X565768Y328756D02*
X570000Y324524D01*
X451590Y167909D02*
Y274841D01*
Y167909D02*
X463000Y156500D01*
X503173Y301134D02*
Y303349D01*
X503090Y303432D02*
X503173Y303349D01*
X501205Y303432D02*
X503090D01*
X497938Y306357D02*
X498726Y305569D01*
X499069D02*
X501205Y303432D01*
X498726Y305569D02*
X499069D01*
X497938Y306357D02*
Y306476D01*
X494414Y310000D02*
X497938Y306476D01*
X441562Y249188D02*
Y283438D01*
X432500Y240126D02*
X441562Y249188D01*
X507500Y197500D02*
X513000Y192000D01*
X509079Y301134D02*
Y308921D01*
X405000Y203500D02*
X417500Y216000D01*
X499000Y319000D02*
X509079Y308921D01*
X463000Y313000D02*
X474500D01*
X417500Y216000D02*
Y318000D01*
X448000Y328000D02*
X463000Y313000D01*
X417500Y318000D02*
X427500Y328000D01*
X448000D01*
X480500Y319000D02*
X499000D01*
X474500Y313000D02*
X480500Y319000D01*
X449568Y331181D02*
X464249Y316500D01*
X405000Y276500D02*
X414319Y285819D01*
Y319318D01*
X426501Y331500D01*
X449000D01*
X449319Y331181D01*
X449568D01*
X449909Y333090D02*
X464910Y318091D01*
X405000Y313000D02*
X405752D01*
X425842Y333090D01*
X449909D01*
X450000Y159864D02*
Y275500D01*
X453000Y156500D02*
Y156864D01*
X450000Y159864D02*
X453000Y156864D01*
X453594Y292032D02*
X473200D01*
X523091Y203659D02*
Y211249D01*
X569375Y163125D02*
X576500Y156000D01*
X561625Y163125D02*
X569375D01*
X550091Y174659D02*
X561625Y163125D01*
X550091Y174659D02*
Y185573D01*
X548573Y187091D02*
X550091Y185573D01*
X523091Y203659D02*
X528272Y198478D01*
X415909Y250909D02*
Y318659D01*
X532334Y295327D02*
X532417Y295410D01*
Y297417D01*
X519394Y329256D02*
X535500Y313150D01*
Y300500D02*
Y313150D01*
X532417Y297417D02*
X535500Y300500D01*
X490894Y270500D02*
X494032Y273639D01*
X497331D01*
X497366Y273673D01*
X548500Y174000D02*
Y184914D01*
X530634Y293358D02*
X530668Y293393D01*
X533341D01*
X474685Y269815D02*
Y279573D01*
X476659Y281547D01*
X497366D01*
X451590Y274841D02*
X460265Y283516D01*
X497366D01*
X441562Y283438D02*
X446974Y288850D01*
X474518D01*
X477084Y291416D01*
X497340D01*
X497366Y291390D01*
X415909Y318659D02*
X426841Y329591D01*
X448910D01*
X463909Y314591D01*
X473841D01*
X479841Y320590D01*
X499909D01*
X511047Y309453D01*
Y301134D02*
Y309453D01*
X476276Y270474D02*
Y278914D01*
X476940Y279579D01*
X497366D01*
X510681Y223659D02*
X523091Y211249D01*
X503124Y248124D02*
Y256814D01*
X503173Y256863D01*
Y267866D01*
X473200Y292032D02*
X476495Y295327D01*
X497366D01*
X530634D02*
X532334D01*
X464249Y316500D02*
X473501D01*
X479182Y322181D01*
X501319D01*
X513016Y310484D01*
Y301134D02*
Y310484D01*
X464910Y318091D02*
X472843D01*
X478752Y324000D01*
X501749D01*
X514984Y310765D01*
Y301134D02*
Y310765D01*
X450000Y275500D02*
X460000Y285500D01*
X497350D01*
X497366Y285484D01*
X547914Y185500D02*
X548500Y184914D01*
X521500Y203000D02*
Y210591D01*
X509091Y223000D02*
X521500Y210591D01*
X477866Y277000D02*
X478476Y277610D01*
X497366D01*
X548500Y174000D02*
X566500Y156000D01*
X405000Y240000D02*
X415909Y250909D01*
X524901Y283516D02*
X530634D01*
X523163Y285254D02*
X524901Y283516D01*
X519778Y285254D02*
X523163D01*
X517746Y283222D02*
X519778Y285254D01*
X517746Y277549D02*
Y283222D01*
X490500Y270500D02*
X490894D01*
X519000Y329256D02*
X519394D01*
X432500Y313126D02*
X453594Y292032D01*
X565374Y328756D02*
X565768D01*
X453244Y308000D02*
Y312256D01*
X449500Y316000D02*
X453244Y312256D01*
Y302000D02*
Y302394D01*
X452366Y303272D02*
X453244Y302394D01*
X451972Y303272D02*
X452366D01*
X436244Y319000D02*
X451972Y303272D01*
X434500Y319000D02*
X436244D01*
X432500Y321000D02*
X434500Y319000D01*
X505000Y169520D02*
Y180744D01*
X503020Y167539D02*
X505000Y169520D01*
X518071Y172189D02*
X520500Y174618D01*
Y180500D01*
X513000Y176124D02*
Y181000D01*
Y176124D02*
X515224Y173900D01*
Y168032D02*
Y173900D01*
X517783Y168032D02*
X518071Y168319D01*
Y172189D01*
X520342Y168032D02*
Y169902D01*
X530067Y179626D01*
X539933D01*
X541500Y181193D01*
X491500Y310000D02*
X494414D01*
X521215Y281785D02*
X521418Y281582D01*
X530599D01*
X530634Y281547D01*
X519000Y275500D02*
Y276295D01*
X517746Y277549D02*
X519000Y276295D01*
X455500Y233256D02*
X470945D01*
X471000Y233201D01*
X455500Y196744D02*
X470057D01*
X471000Y195801D01*
Y202651D01*
X474650Y206301D01*
X481163D01*
X486606Y211744D01*
X471000Y226351D02*
Y233201D01*
Y226351D02*
X474650Y222701D01*
X481161D01*
X486606Y217256D01*
X530185Y157500D02*
Y164890D01*
X527535Y167539D02*
X530185Y164890D01*
X527429Y167539D02*
X527535D01*
X519949Y157500D02*
X530185D01*
X510500D02*
X519949D01*
X500264D02*
X510500D01*
X503020Y160256D02*
Y167539D01*
X500264Y157500D02*
X503020Y160256D01*
X520500Y191500D02*
X524000Y195000D01*
X520500Y186012D02*
Y191500D01*
X513000Y192000D02*
Y197488D01*
Y186512D02*
Y192000D01*
X576256Y297500D02*
X609291D01*
X622000Y310209D01*
X576256Y304500D02*
X589209D01*
X595500Y310791D01*
X565374Y328756D02*
Y334744D01*
X557624Y338368D02*
Y346559D01*
X564980Y340256D02*
X565374D01*
X558677Y346559D02*
X564980Y340256D01*
X557624Y346559D02*
X558677D01*
X557374Y338118D02*
X557624Y338368D01*
X557626Y359000D02*
X557876Y359250D01*
X519000Y329256D02*
Y335244D01*
X511343Y338275D02*
Y346559D01*
X518606Y340756D02*
X519000D01*
X512803Y346559D02*
X518606Y340756D01*
X511343Y346559D02*
X512803D01*
X511343Y338275D02*
X511500Y338118D01*
X472000Y330000D02*
Y335744D01*
X464500Y338618D02*
Y346809D01*
X471606Y341256D02*
X472000D01*
X466053Y346809D02*
X471606Y341256D01*
X464500Y346809D02*
X466053D01*
D42*
X455500Y233256D02*
D03*
Y227744D02*
D03*
X491500Y315512D02*
D03*
Y310000D02*
D03*
X455500Y202256D02*
D03*
Y196744D02*
D03*
X520000Y246244D02*
D03*
Y251756D02*
D03*
X490500Y264988D02*
D03*
Y270500D02*
D03*
X564500Y258244D02*
D03*
Y263756D02*
D03*
X513000Y197488D02*
D03*
Y203000D02*
D03*
X505000Y180744D02*
D03*
Y186256D02*
D03*
X513000Y181000D02*
D03*
Y186512D02*
D03*
X520500Y186012D02*
D03*
Y180500D02*
D03*
X565374Y323244D02*
D03*
Y328756D02*
D03*
Y340256D02*
D03*
Y334744D02*
D03*
X519000Y323744D02*
D03*
Y329256D02*
D03*
Y340756D02*
D03*
Y335244D02*
D03*
X472000Y324488D02*
D03*
Y330000D02*
D03*
Y341256D02*
D03*
Y335744D02*
D03*
X487000Y211744D02*
D03*
Y217256D02*
D03*
X564500Y269488D02*
D03*
Y275000D02*
D03*
D43*
X547756Y283500D02*
D03*
X542244D02*
D03*
X549500Y264500D02*
D03*
X543988D02*
D03*
X548756Y291500D02*
D03*
X543244D02*
D03*
X547744Y209500D02*
D03*
X553256D02*
D03*
X547744Y202500D02*
D03*
X553256D02*
D03*
X570744Y297500D02*
D03*
X576256D02*
D03*
X570744Y304500D02*
D03*
X576256D02*
D03*
X458756Y302000D02*
D03*
X453244D02*
D03*
X458756Y308000D02*
D03*
X453244D02*
D03*
D44*
X471000Y233201D02*
D03*
Y195801D02*
D03*
D45*
X573000Y239610D02*
D03*
Y228390D02*
D03*
X569000Y207610D02*
D03*
Y196390D02*
D03*
D46*
X552500Y246417D02*
D03*
D47*
X561555Y223583D02*
D03*
X552500D02*
D03*
X543445D02*
D03*
D48*
X530634Y273673D02*
D03*
Y275642D02*
D03*
Y277610D02*
D03*
Y279579D02*
D03*
Y281547D02*
D03*
Y283516D02*
D03*
Y285484D02*
D03*
Y287453D02*
D03*
Y289421D02*
D03*
Y291390D02*
D03*
Y293358D02*
D03*
Y295327D02*
D03*
X497366D02*
D03*
Y293358D02*
D03*
Y291390D02*
D03*
Y289421D02*
D03*
Y287453D02*
D03*
Y285484D02*
D03*
Y283516D02*
D03*
Y281547D02*
D03*
Y279579D02*
D03*
Y277610D02*
D03*
Y275642D02*
D03*
Y273673D02*
D03*
D49*
X524827Y301134D02*
D03*
X522858D02*
D03*
X520890D02*
D03*
X518921D02*
D03*
X516953D02*
D03*
X514984D02*
D03*
X513016D02*
D03*
X511047D02*
D03*
X509079D02*
D03*
X507110D02*
D03*
X505142D02*
D03*
X503173D02*
D03*
Y267866D02*
D03*
X505142D02*
D03*
X507110D02*
D03*
X509079D02*
D03*
X511047D02*
D03*
X513016D02*
D03*
X514984D02*
D03*
X516953D02*
D03*
X518921D02*
D03*
X520890D02*
D03*
X522858D02*
D03*
X524827D02*
D03*
D50*
X569000Y178500D02*
D03*
Y188736D02*
D03*
X557374Y338118D02*
D03*
Y327882D02*
D03*
X464500Y338618D02*
D03*
Y328382D02*
D03*
X511500Y338118D02*
D03*
Y327882D02*
D03*
D51*
X519949Y157500D02*
D03*
X510500D02*
D03*
D52*
X530185D02*
D03*
X500264D02*
D03*
D53*
X527429Y167539D02*
D03*
X503020D02*
D03*
D54*
X520342Y168032D02*
D03*
X510106D02*
D03*
X512665D02*
D03*
X517783D02*
D03*
X515224D02*
D03*
D55*
X541500Y192807D02*
D03*
Y181193D02*
D03*
D56*
X564169Y212934D02*
X568335Y208768D01*
X561555Y215055D02*
Y223583D01*
X563677Y212934D02*
X564169D01*
X561555Y215055D02*
X563677Y212934D01*
X554665Y246417D02*
X566685D01*
X543988Y254929D02*
X547602Y251315D01*
X554665Y246417D02*
X564228Y255980D01*
X550335Y246417D02*
X552500D01*
X547602Y249150D02*
X550335Y246417D01*
X547602Y249150D02*
Y251315D01*
X564350Y258244D02*
X564500D01*
X564228Y258122D02*
X564350Y258244D01*
X564228Y255980D02*
Y258122D01*
X543988Y254929D02*
Y264500D01*
X573000Y239610D02*
Y240102D01*
X566685Y246417D02*
X573000Y240102D01*
Y227898D02*
Y228390D01*
X568685Y223583D02*
X573000Y227898D01*
X561555Y223583D02*
X568685D01*
X490378Y270622D02*
X490500Y270500D01*
X486631Y270622D02*
X490378D01*
X484254Y273000D02*
X486631Y270622D01*
X484000Y273000D02*
X484254D01*
X541500Y192807D02*
X565909D01*
X458756Y302000D02*
Y308000D01*
Y301850D02*
Y302000D01*
Y301850D02*
X464927Y295679D01*
X465321D01*
X465500Y295500D01*
X570744Y297500D02*
Y304500D01*
Y297350D02*
Y297500D01*
X567073Y293679D02*
X570744Y297350D01*
X564679Y293679D02*
X567073D01*
X564500Y293500D02*
X564679Y293679D01*
X569000Y207610D02*
Y208102D01*
X576321Y215423D01*
Y216821D01*
X576500Y217000D01*
X564500Y263756D02*
Y269488D01*
X552500Y246417D02*
X554665D01*
X568335Y208768D02*
X569000Y208102D01*
X552500Y223583D02*
Y246417D01*
X553256Y202500D02*
Y209500D01*
X567842Y208768D02*
X568335D01*
X567110Y209500D02*
X567842Y208768D01*
X553256Y209500D02*
X567110D01*
X569000Y195898D02*
Y196390D01*
X565909Y192807D02*
X569000Y195898D01*
Y188736D02*
Y189716D01*
X565909Y192807D02*
X569000Y189716D01*
D57*
X586500Y156000D02*
D03*
X566500D02*
D03*
X576500D02*
D03*
X473000Y156500D02*
D03*
X453000D02*
D03*
X463000D02*
D03*
D58*
X556500Y156000D02*
D03*
X443000Y156500D02*
D03*
D59*
X617500Y356500D02*
D03*
X408122D02*
D03*
X406500Y171000D02*
D03*
X617500Y172378D02*
D03*
D60*
X432500Y240126D02*
D03*
Y203626D02*
D03*
Y276626D02*
D03*
Y313126D02*
D03*
X405000Y203500D02*
D03*
Y240000D02*
D03*
Y313000D02*
D03*
Y276500D02*
D03*
X557626Y359000D02*
D03*
X549752D02*
D03*
X511626D02*
D03*
X503752D02*
D03*
X464500D02*
D03*
X456626D02*
D03*
X622000Y318083D02*
D03*
Y281374D02*
D03*
X595500Y318665D02*
D03*
Y281874D02*
D03*
Y245083D02*
D03*
X622000Y244665D02*
D03*
X595500Y208291D02*
D03*
X622000Y207957D02*
D03*
D61*
X432500Y248000D02*
D03*
Y211500D02*
D03*
Y284500D02*
D03*
Y321000D02*
D03*
X405000Y211374D02*
D03*
Y247874D02*
D03*
Y320874D02*
D03*
Y284374D02*
D03*
X622000Y310209D02*
D03*
Y273500D02*
D03*
X595500Y310791D02*
D03*
Y274000D02*
D03*
Y237209D02*
D03*
X622000Y236791D02*
D03*
X595500Y200417D02*
D03*
X622000Y200083D02*
D03*
D62*
X565500Y359000D02*
D03*
X519500D02*
D03*
X472374D02*
D03*
D63*
X534000Y221000D02*
D03*
Y217000D02*
D03*
X557500Y206000D02*
D03*
X534000Y227000D02*
D03*
X557000Y234500D02*
D03*
X552500D02*
D03*
X557000Y253500D02*
D03*
X552500D02*
D03*
X547500D02*
D03*
X552500Y239000D02*
D03*
X547000Y234500D02*
D03*
X557000Y239000D02*
D03*
X547000D02*
D03*
X534000Y213000D02*
D03*
Y201000D02*
D03*
Y209000D02*
D03*
Y197000D02*
D03*
Y205000D02*
D03*
X497000Y264000D02*
D03*
X466000Y323500D02*
D03*
X513500Y324000D02*
D03*
X558500Y322500D02*
D03*
X554500Y293500D02*
D03*
X564500Y280000D02*
D03*
X554500Y264500D02*
D03*
X546500Y216500D02*
D03*
X576000Y178000D02*
D03*
X455500Y221500D02*
D03*
Y212500D02*
D03*
X498500Y190000D02*
D03*
X484000Y312500D02*
D03*
X522000Y241000D02*
D03*
X471500Y214500D02*
D03*
X512000Y213500D02*
D03*
X449500Y316000D02*
D03*
X503500Y197500D02*
D03*
X524000Y195000D02*
D03*
D64*
X500000Y227500D02*
D03*
X497938Y306476D02*
D03*
X484000Y273000D02*
D03*
X465500Y295500D02*
D03*
X556000Y282500D02*
D03*
X564500Y293500D02*
D03*
X544000Y258500D02*
D03*
X521215Y281785D02*
D03*
X519000Y275500D02*
D03*
X576500Y217000D02*
D03*
D65*
X496500Y233500D02*
D03*
M02*
