%TF.GenerationSoftware,Altium Limited,Altium Designer,20.0.13 (296)*%
G04 Layer_Physical_Order=2*
G04 Layer_Color=16711680*
%FSLAX25Y25*%
%MOIN*%
%TF.FileFunction,Copper,L2,Bot,Signal*%
%TF.Part,Single*%
G01*
G75*
%TA.AperFunction,Conductor*%
%ADD24C,0.03000*%
%ADD25C,0.01000*%
%TA.AperFunction,ComponentPad*%
%ADD26C,0.06000*%
%ADD27R,0.06000X0.06000*%
%ADD28C,0.27165*%
%ADD29C,0.05000*%
%ADD30R,0.05000X0.05000*%
%ADD31R,0.05000X0.05000*%
%TA.AperFunction,ViaPad*%
%ADD32C,0.03937*%
%ADD33C,0.03937*%
%ADD34C,0.02362*%
G36*
X620970Y379894D02*
X623247Y379442D01*
X625468Y378768D01*
X627612Y377880D01*
X629659Y376786D01*
X631589Y375496D01*
X633383Y374024D01*
X635024Y372383D01*
X636496Y370589D01*
X637786Y368659D01*
X638880Y366612D01*
X639768Y364468D01*
X640442Y362247D01*
X640895Y359970D01*
X641122Y357661D01*
Y356500D01*
Y172378D01*
Y171218D01*
X640895Y168908D01*
X640442Y166631D01*
X639768Y164410D01*
X638880Y162266D01*
X637786Y160219D01*
X636496Y158289D01*
X635024Y156495D01*
X633383Y154854D01*
X631589Y153382D01*
X629659Y152092D01*
X627612Y150998D01*
X625468Y150110D01*
X623247Y149436D01*
X620970Y148983D01*
X618660Y148756D01*
X617500D01*
X406681Y148756D01*
X405235D01*
X402368Y149133D01*
X399575Y149882D01*
X396903Y150989D01*
X394398Y152435D01*
X392104Y154195D01*
X390059Y156240D01*
X388298Y158535D01*
X386852Y161039D01*
X385746Y163711D01*
X384997Y166505D01*
X384619Y169372D01*
Y170818D01*
X384619Y356500D01*
X384500D01*
Y357661D01*
X384728Y359970D01*
X385180Y362247D01*
X385854Y364468D01*
X386742Y366612D01*
X387836Y368659D01*
X389126Y370589D01*
X390598Y372383D01*
X392239Y374024D01*
X394033Y375496D01*
X395963Y376786D01*
X398010Y377880D01*
X400154Y378768D01*
X402375Y379442D01*
X404652Y379894D01*
X406962Y380122D01*
X408122D01*
Y380122D01*
X617500Y380122D01*
X618660D01*
X620970Y379894D01*
D02*
G37*
%LPC*%
G36*
X457126Y362464D02*
Y359500D01*
X460090D01*
X460036Y359914D01*
X459683Y360765D01*
X459122Y361496D01*
X458391Y362057D01*
X457540Y362410D01*
X457126Y362464D01*
D02*
G37*
G36*
X456126Y362464D02*
X455712Y362410D01*
X454861Y362057D01*
X454130Y361496D01*
X453569Y360765D01*
X453216Y359914D01*
X453162Y359500D01*
X456126D01*
Y362464D01*
D02*
G37*
G36*
X618000Y371088D02*
Y357000D01*
X632088D01*
X631948Y358788D01*
X631412Y361020D01*
X630533Y363141D01*
X629334Y365098D01*
X627843Y366843D01*
X626098Y368334D01*
X624141Y369533D01*
X622020Y370412D01*
X619788Y370948D01*
X618000Y371088D01*
D02*
G37*
G36*
X617000D02*
X615212Y370948D01*
X612980Y370412D01*
X610859Y369533D01*
X608902Y368334D01*
X607157Y366843D01*
X605666Y365098D01*
X604467Y363141D01*
X603588Y361020D01*
X603052Y358788D01*
X602912Y357000D01*
X617000D01*
Y371088D01*
D02*
G37*
G36*
X408622D02*
Y357000D01*
X422711D01*
X422570Y358788D01*
X422034Y361020D01*
X421156Y363141D01*
X419956Y365098D01*
X418465Y366843D01*
X416720Y368334D01*
X414763Y369533D01*
X412642Y370412D01*
X410410Y370948D01*
X408622Y371088D01*
D02*
G37*
G36*
X407622D02*
X405834Y370948D01*
X403602Y370412D01*
X401481Y369533D01*
X399524Y368334D01*
X397779Y366843D01*
X396288Y365098D01*
X395089Y363141D01*
X394210Y361020D01*
X393674Y358788D01*
X393534Y357000D01*
X407622D01*
Y371088D01*
D02*
G37*
G36*
X460090Y358500D02*
X457126D01*
Y355536D01*
X457540Y355590D01*
X458391Y355943D01*
X459122Y356504D01*
X459683Y357235D01*
X460036Y358086D01*
X460090Y358500D01*
D02*
G37*
G36*
X549252D02*
X546288D01*
X546342Y358086D01*
X546695Y357235D01*
X547256Y356504D01*
X547987Y355943D01*
X548838Y355590D01*
X549252Y355536D01*
Y358500D01*
D02*
G37*
G36*
X503252D02*
X500288D01*
X500342Y358086D01*
X500695Y357235D01*
X501256Y356504D01*
X501987Y355943D01*
X502838Y355590D01*
X503252Y355536D01*
Y358500D01*
D02*
G37*
G36*
X553216D02*
X550252D01*
Y355536D01*
X550666Y355590D01*
X551517Y355943D01*
X552248Y356504D01*
X552809Y357235D01*
X553162Y358086D01*
X553216Y358500D01*
D02*
G37*
G36*
X507216D02*
X504252D01*
Y355536D01*
X504666Y355590D01*
X505517Y355943D01*
X506248Y356504D01*
X506809Y357235D01*
X507162Y358086D01*
X507216Y358500D01*
D02*
G37*
G36*
X456126D02*
X453162D01*
X453216Y358086D01*
X453569Y357235D01*
X454130Y356504D01*
X454861Y355943D01*
X455712Y355590D01*
X456126Y355536D01*
Y358500D01*
D02*
G37*
G36*
X464500Y362530D02*
X463586Y362410D01*
X462735Y362057D01*
X462004Y361496D01*
X461443Y360765D01*
X461090Y359914D01*
X460970Y359000D01*
X461090Y358086D01*
X461443Y357235D01*
X462004Y356504D01*
X462735Y355943D01*
X463586Y355590D01*
X464500Y355470D01*
X465414Y355590D01*
X466265Y355943D01*
X466996Y356504D01*
X467557Y357235D01*
X467910Y358086D01*
X468030Y359000D01*
X467910Y359914D01*
X467557Y360765D01*
X466996Y361496D01*
X466265Y362057D01*
X465414Y362410D01*
X464500Y362530D01*
D02*
G37*
G36*
X632088Y356000D02*
X618000D01*
Y341912D01*
X619788Y342052D01*
X622020Y342588D01*
X624141Y343467D01*
X626098Y344666D01*
X627843Y346157D01*
X629334Y347902D01*
X630533Y349859D01*
X631412Y351980D01*
X631948Y354212D01*
X632088Y356000D01*
D02*
G37*
G36*
X617000D02*
X602912D01*
X603052Y354212D01*
X603588Y351980D01*
X604467Y349859D01*
X605666Y347902D01*
X607157Y346157D01*
X608902Y344666D01*
X610859Y343467D01*
X612980Y342588D01*
X615212Y342052D01*
X617000Y341912D01*
Y356000D01*
D02*
G37*
G36*
X422711D02*
X408622D01*
Y341912D01*
X410410Y342052D01*
X412642Y342588D01*
X414763Y343467D01*
X416720Y344666D01*
X418465Y346157D01*
X419956Y347902D01*
X421156Y349859D01*
X422034Y351980D01*
X422570Y354212D01*
X422711Y356000D01*
D02*
G37*
G36*
X407622D02*
X393534D01*
X393674Y354212D01*
X394210Y351980D01*
X395089Y349859D01*
X396288Y347902D01*
X397779Y346157D01*
X399524Y344666D01*
X401481Y343467D01*
X403602Y342588D01*
X405834Y342052D01*
X407622Y341912D01*
Y356000D01*
D02*
G37*
G36*
X514000Y326124D02*
Y324500D01*
X515624D01*
X515555Y324851D01*
X515072Y325572D01*
X514351Y326055D01*
X514000Y326124D01*
D02*
G37*
G36*
X513000D02*
X512649Y326055D01*
X511928Y325572D01*
X511445Y324851D01*
X511376Y324500D01*
X513000D01*
Y326124D01*
D02*
G37*
G36*
X466500Y325624D02*
Y324000D01*
X468124D01*
X468055Y324351D01*
X467572Y325073D01*
X466851Y325555D01*
X466500Y325624D01*
D02*
G37*
G36*
X465500D02*
X465149Y325555D01*
X464428Y325073D01*
X463945Y324351D01*
X463876Y324000D01*
X465500D01*
Y325624D01*
D02*
G37*
G36*
X559000Y324624D02*
Y323000D01*
X560624D01*
X560555Y323351D01*
X560073Y324073D01*
X559351Y324555D01*
X559000Y324624D01*
D02*
G37*
G36*
X558000D02*
X557649Y324555D01*
X556927Y324073D01*
X556445Y323351D01*
X556376Y323000D01*
X558000D01*
Y324624D01*
D02*
G37*
G36*
X440500Y326529D02*
X423374D01*
X422788Y326413D01*
X422292Y326081D01*
X418614Y322403D01*
X408500D01*
Y324374D01*
X401500D01*
Y319537D01*
X399919Y317955D01*
X399587Y317459D01*
X399471Y316874D01*
Y302515D01*
X399587Y301930D01*
X399919Y301434D01*
X403471Y297882D01*
Y287874D01*
X401500D01*
Y283037D01*
X399919Y281455D01*
X399587Y280959D01*
X399471Y280374D01*
Y266015D01*
X399587Y265430D01*
X399919Y264934D01*
X403471Y261382D01*
Y251374D01*
X401500D01*
Y246537D01*
X399919Y244955D01*
X399587Y244459D01*
X399471Y243874D01*
Y229515D01*
X399587Y228930D01*
X399919Y228434D01*
X403471Y224882D01*
Y214874D01*
X401500D01*
Y207874D01*
X408500D01*
Y214874D01*
X406529D01*
Y225515D01*
X406413Y226101D01*
X406081Y226597D01*
X402529Y230149D01*
Y236919D01*
X402978Y237140D01*
X403235Y236943D01*
X404086Y236590D01*
X405000Y236470D01*
X405914Y236590D01*
X406765Y236943D01*
X407496Y237504D01*
X408057Y238235D01*
X408410Y239086D01*
X408530Y240000D01*
X408410Y240914D01*
X408057Y241765D01*
X407496Y242496D01*
X406765Y243057D01*
X405914Y243410D01*
X405000Y243530D01*
X404086Y243410D01*
X403368Y243112D01*
X402972Y243254D01*
X402819Y243368D01*
X402796Y243507D01*
X403663Y244374D01*
X408500D01*
Y251374D01*
X406529D01*
Y262015D01*
X406413Y262601D01*
X406081Y263097D01*
X402529Y266649D01*
Y273419D01*
X402978Y273640D01*
X403235Y273443D01*
X404086Y273090D01*
X405000Y272970D01*
X405914Y273090D01*
X406765Y273443D01*
X407496Y274004D01*
X408057Y274735D01*
X408410Y275586D01*
X408530Y276500D01*
X408410Y277414D01*
X408057Y278265D01*
X407496Y278996D01*
X406765Y279557D01*
X405914Y279910D01*
X405000Y280030D01*
X404086Y279910D01*
X403368Y279612D01*
X402972Y279754D01*
X402819Y279868D01*
X402796Y280007D01*
X403663Y280874D01*
X408500D01*
Y287874D01*
X406529D01*
Y298515D01*
X406413Y299101D01*
X406081Y299597D01*
X402529Y303149D01*
Y309919D01*
X402978Y310140D01*
X403235Y309943D01*
X404086Y309590D01*
X405000Y309470D01*
X405914Y309590D01*
X406765Y309943D01*
X407496Y310504D01*
X408057Y311235D01*
X408410Y312086D01*
X408530Y313000D01*
X408410Y313914D01*
X408057Y314765D01*
X407496Y315496D01*
X406765Y316057D01*
X405914Y316410D01*
X405000Y316530D01*
X404086Y316410D01*
X403368Y316112D01*
X402972Y316254D01*
X402819Y316368D01*
X402796Y316507D01*
X403663Y317374D01*
X408500D01*
Y319345D01*
X419248D01*
X419833Y319461D01*
X420329Y319793D01*
X424007Y323471D01*
X429000D01*
Y319663D01*
X427419Y318081D01*
X427087Y317585D01*
X426971Y317000D01*
Y302641D01*
X427087Y302056D01*
X427419Y301560D01*
X430971Y298008D01*
Y288000D01*
X429000D01*
Y283163D01*
X427419Y281581D01*
X427087Y281085D01*
X426971Y280500D01*
Y266141D01*
X427087Y265556D01*
X427419Y265060D01*
X430971Y261508D01*
Y251500D01*
X429000D01*
Y246663D01*
X427419Y245081D01*
X427087Y244585D01*
X426971Y244000D01*
Y229641D01*
X427087Y229056D01*
X427419Y228560D01*
X430971Y225008D01*
Y215000D01*
X429000D01*
Y208000D01*
X436000D01*
Y215000D01*
X434029D01*
Y225641D01*
X433913Y226227D01*
X433581Y226723D01*
X430029Y230275D01*
Y237045D01*
X430478Y237266D01*
X430735Y237069D01*
X431586Y236716D01*
X432500Y236596D01*
X433414Y236716D01*
X434265Y237069D01*
X434996Y237630D01*
X435557Y238361D01*
X435910Y239212D01*
X436030Y240126D01*
X435910Y241040D01*
X435557Y241891D01*
X434996Y242622D01*
X434265Y243183D01*
X433414Y243536D01*
X432500Y243656D01*
X431586Y243536D01*
X430868Y243238D01*
X430472Y243380D01*
X430319Y243494D01*
X430296Y243633D01*
X431163Y244500D01*
X436000D01*
Y251500D01*
X434029D01*
Y262141D01*
X433913Y262727D01*
X433581Y263223D01*
X430029Y266775D01*
Y273545D01*
X430478Y273766D01*
X430735Y273569D01*
X431586Y273216D01*
X432500Y273096D01*
X433414Y273216D01*
X434265Y273569D01*
X434996Y274130D01*
X435557Y274861D01*
X435910Y275712D01*
X436030Y276626D01*
X435910Y277540D01*
X435557Y278391D01*
X434996Y279122D01*
X434265Y279683D01*
X433414Y280036D01*
X432500Y280156D01*
X431586Y280036D01*
X430868Y279738D01*
X430472Y279880D01*
X430319Y279994D01*
X430296Y280133D01*
X431163Y281000D01*
X436000D01*
Y288000D01*
X434029D01*
Y298641D01*
X433913Y299227D01*
X433581Y299723D01*
X430029Y303275D01*
Y310045D01*
X430478Y310266D01*
X430735Y310069D01*
X431586Y309716D01*
X432500Y309596D01*
X433414Y309716D01*
X434265Y310069D01*
X434996Y310630D01*
X435557Y311361D01*
X435910Y312212D01*
X436030Y313126D01*
X435910Y314040D01*
X435557Y314891D01*
X434996Y315622D01*
X434265Y316183D01*
X433414Y316536D01*
X432500Y316656D01*
X431586Y316536D01*
X430868Y316238D01*
X430472Y316380D01*
X430319Y316494D01*
X430296Y316633D01*
X431163Y317500D01*
X436000D01*
Y323471D01*
X439866D01*
X447286Y316051D01*
X447276Y316000D01*
X447445Y315149D01*
X447928Y314427D01*
X448649Y313945D01*
X449500Y313776D01*
X450351Y313945D01*
X451073Y314427D01*
X451555Y315149D01*
X451724Y316000D01*
X451555Y316851D01*
X451073Y317572D01*
X450351Y318055D01*
X449500Y318224D01*
X449449Y318214D01*
X441581Y326081D01*
X441085Y326413D01*
X440500Y326529D01*
D02*
G37*
G36*
X515624Y323500D02*
X514000D01*
Y321876D01*
X514351Y321945D01*
X515072Y322428D01*
X515555Y323149D01*
X515624Y323500D01*
D02*
G37*
G36*
X513000D02*
X511376D01*
X511445Y323149D01*
X511928Y322428D01*
X512649Y321945D01*
X513000Y321876D01*
Y323500D01*
D02*
G37*
G36*
X468124Y323000D02*
X466500D01*
Y321376D01*
X466851Y321445D01*
X467572Y321927D01*
X468055Y322649D01*
X468124Y323000D01*
D02*
G37*
G36*
X465500D02*
X463876D01*
X463945Y322649D01*
X464428Y321927D01*
X465149Y321445D01*
X465500Y321376D01*
Y323000D01*
D02*
G37*
G36*
X560624Y322000D02*
X559000D01*
Y320376D01*
X559351Y320445D01*
X560073Y320928D01*
X560555Y321649D01*
X560624Y322000D01*
D02*
G37*
G36*
X558000D02*
X556376D01*
X556445Y321649D01*
X556927Y320928D01*
X557649Y320445D01*
X558000Y320376D01*
Y322000D01*
D02*
G37*
G36*
X575500Y367549D02*
X478374D01*
X477399Y367355D01*
X476572Y366802D01*
X472269Y362500D01*
X468874D01*
Y355500D01*
X475874D01*
Y358895D01*
X479430Y362451D01*
X501679D01*
X501848Y361951D01*
X501256Y361496D01*
X500695Y360765D01*
X500342Y359914D01*
X500288Y359500D01*
X503752D01*
X507216D01*
X507162Y359914D01*
X506809Y360765D01*
X506248Y361496D01*
X505655Y361951D01*
X505825Y362451D01*
X509553D01*
X509723Y361951D01*
X509130Y361496D01*
X508569Y360765D01*
X508216Y359914D01*
X508096Y359000D01*
X508216Y358086D01*
X508569Y357235D01*
X509130Y356504D01*
X509861Y355943D01*
X510712Y355590D01*
X511626Y355470D01*
X512540Y355590D01*
X513391Y355943D01*
X514122Y356504D01*
X514683Y357235D01*
X515036Y358086D01*
X515156Y359000D01*
X515036Y359914D01*
X514683Y360765D01*
X514122Y361496D01*
X513529Y361951D01*
X513699Y362451D01*
X516000D01*
Y355500D01*
X523000D01*
Y358895D01*
X526556Y362451D01*
X547679D01*
X547848Y361951D01*
X547256Y361496D01*
X546695Y360765D01*
X546342Y359914D01*
X546288Y359500D01*
X549752D01*
X553216D01*
X553162Y359914D01*
X552809Y360765D01*
X552248Y361496D01*
X551655Y361951D01*
X551825Y362451D01*
X555553D01*
X555723Y361951D01*
X555130Y361496D01*
X554569Y360765D01*
X554216Y359914D01*
X554096Y359000D01*
X554216Y358086D01*
X554569Y357235D01*
X555130Y356504D01*
X555861Y355943D01*
X556712Y355590D01*
X557626Y355470D01*
X558540Y355590D01*
X559391Y355943D01*
X560122Y356504D01*
X560683Y357235D01*
X561036Y358086D01*
X561156Y359000D01*
X561036Y359914D01*
X560683Y360765D01*
X560122Y361496D01*
X559529Y361951D01*
X559699Y362451D01*
X562000D01*
Y355500D01*
X569000D01*
Y358895D01*
X572556Y362451D01*
X574444D01*
X579951Y356944D01*
Y224056D01*
X575797Y219901D01*
X575725Y219892D01*
X575003Y219593D01*
X574383Y219117D01*
X573907Y218497D01*
X573608Y217775D01*
X573506Y217000D01*
X573608Y216225D01*
X573907Y215503D01*
X574383Y214883D01*
X575003Y214407D01*
X575725Y214108D01*
X576500Y214006D01*
X577275Y214108D01*
X577997Y214407D01*
X578617Y214883D01*
X579093Y215503D01*
X579392Y216225D01*
X579401Y216297D01*
X584302Y221198D01*
X584471Y221449D01*
X584971Y221298D01*
Y206755D01*
X579245Y201029D01*
X559633D01*
X557322Y203341D01*
X557578Y203792D01*
X558351Y203945D01*
X559072Y204428D01*
X559555Y205149D01*
X559624Y205500D01*
X557500D01*
Y206000D01*
X557000D01*
Y208124D01*
X556649Y208055D01*
X555928Y207573D01*
X555445Y206851D01*
X555292Y206078D01*
X554841Y205822D01*
X546831Y213832D01*
X546995Y214375D01*
X547351Y214445D01*
X548072Y214928D01*
X548555Y215649D01*
X548624Y216000D01*
X546500D01*
Y216500D01*
X546000D01*
Y218624D01*
X545649Y218555D01*
X544928Y218073D01*
X544445Y217351D01*
X544375Y216995D01*
X543832Y216831D01*
X539838Y220825D01*
X539838Y220825D01*
X535701Y224962D01*
X535572Y225428D01*
X536055Y226149D01*
X536224Y227000D01*
X536055Y227851D01*
X535572Y228573D01*
X534851Y229055D01*
X534000Y229224D01*
X533149Y229055D01*
X532428Y228573D01*
X532168Y228184D01*
X531668Y228336D01*
Y231345D01*
X533802Y233479D01*
X534355Y234306D01*
X534549Y235282D01*
Y245444D01*
X541980Y252876D01*
X542480Y252668D01*
Y234750D01*
X542558Y234360D01*
X542779Y234029D01*
X544779Y232029D01*
X545110Y231808D01*
X545500Y231730D01*
X559500Y231730D01*
X559890Y231808D01*
X560221Y232029D01*
X562221Y234029D01*
X562442Y234360D01*
X562520Y234750D01*
X562520Y253250D01*
X562442Y253640D01*
X562221Y253971D01*
X560321Y255871D01*
X559990Y256092D01*
X559600Y256170D01*
X546584Y256170D01*
X546337Y256670D01*
X546593Y257003D01*
X546892Y257725D01*
X546994Y258500D01*
X546892Y259275D01*
X546593Y259997D01*
X546549Y260054D01*
Y269444D01*
X556703Y279598D01*
X556775Y279608D01*
X557497Y279907D01*
X558117Y280383D01*
X558593Y281003D01*
X558892Y281725D01*
X558977Y282372D01*
X566123Y289518D01*
X566676Y290345D01*
X566870Y291321D01*
Y291712D01*
X567093Y292003D01*
X567392Y292725D01*
X567494Y293500D01*
X567392Y294275D01*
X567093Y294997D01*
X566617Y295617D01*
X565997Y296093D01*
X565275Y296392D01*
X564500Y296494D01*
X563725Y296392D01*
X563003Y296093D01*
X562383Y295617D01*
X561907Y294997D01*
X561608Y294275D01*
X561506Y293500D01*
X561608Y292725D01*
X561758Y292363D01*
X554666Y285271D01*
X554564Y285118D01*
X554503Y285093D01*
X553883Y284617D01*
X553407Y283997D01*
X553108Y283275D01*
X553098Y283203D01*
X542198Y272302D01*
X541645Y271476D01*
X541451Y270500D01*
Y260054D01*
X541407Y259997D01*
X541108Y259275D01*
X541098Y259203D01*
X530198Y248302D01*
X529645Y247476D01*
X529451Y246500D01*
Y236337D01*
X527317Y234203D01*
X526764Y233376D01*
X526570Y232400D01*
Y197099D01*
X526764Y196124D01*
X527317Y195297D01*
X529451Y193163D01*
Y180500D01*
X529645Y179525D01*
X530198Y178698D01*
X549884Y159011D01*
X549693Y158549D01*
X503056D01*
X493049Y168556D01*
Y231037D01*
X493549Y231255D01*
X494003Y230907D01*
X494725Y230608D01*
X495500Y230506D01*
X495672Y230528D01*
X496137Y230130D01*
X496137Y229813D01*
X495883Y229617D01*
X495407Y228997D01*
X495108Y228275D01*
X495006Y227500D01*
X495108Y226725D01*
X495407Y226003D01*
X495883Y225383D01*
X496503Y224907D01*
X497225Y224608D01*
X498000Y224506D01*
X498775Y224608D01*
X499497Y224907D01*
X500117Y225383D01*
X500593Y226003D01*
X500892Y226725D01*
X500994Y227500D01*
X500892Y228275D01*
X500593Y228997D01*
X500117Y229617D01*
X499529Y230068D01*
Y230885D01*
X499750Y231106D01*
X500082Y231602D01*
X500198Y232188D01*
Y254535D01*
X518265Y272603D01*
X519000Y272506D01*
X519775Y272608D01*
X520497Y272907D01*
X521117Y273383D01*
X521593Y274003D01*
X521892Y274725D01*
X521994Y275500D01*
X521892Y276275D01*
X521593Y276997D01*
X521117Y277617D01*
X520497Y278093D01*
X520393Y278136D01*
X520269Y278706D01*
X520289Y278727D01*
X520515Y278883D01*
X521215Y278791D01*
X521989Y278893D01*
X522712Y279192D01*
X523332Y279668D01*
X523807Y280288D01*
X524107Y281011D01*
X524209Y281785D01*
X524107Y282560D01*
X523807Y283282D01*
X523332Y283903D01*
X522712Y284378D01*
X521989Y284678D01*
X521215Y284780D01*
X520440Y284678D01*
X519718Y284378D01*
X519097Y283903D01*
X518622Y283282D01*
X518323Y282560D01*
X518220Y281785D01*
X518269Y281413D01*
X494419Y257562D01*
X494087Y257066D01*
X493971Y256481D01*
Y236068D01*
X493549Y235745D01*
X493049Y235963D01*
Y265500D01*
X492855Y266476D01*
X492302Y267302D01*
X486949Y272656D01*
X486994Y273000D01*
X486892Y273775D01*
X486593Y274497D01*
X486117Y275117D01*
X485497Y275593D01*
X484775Y275892D01*
X484703Y275902D01*
X475549Y285056D01*
Y298528D01*
X475802Y298698D01*
X481032Y303927D01*
X496384D01*
X496441Y303883D01*
X497163Y303584D01*
X497938Y303482D01*
X498713Y303584D01*
X499435Y303883D01*
X500055Y304359D01*
X500531Y304979D01*
X500830Y305701D01*
X500932Y306476D01*
X500830Y307251D01*
X500531Y307973D01*
X500055Y308593D01*
X499435Y309069D01*
X498713Y309368D01*
X497938Y309470D01*
X497163Y309368D01*
X496441Y309069D01*
X496384Y309025D01*
X479976D01*
X479001Y308831D01*
X478174Y308279D01*
X473344Y303449D01*
X473000Y303494D01*
X472225Y303392D01*
X471503Y303093D01*
X470883Y302617D01*
X470407Y301997D01*
X470108Y301275D01*
X470006Y300500D01*
X470108Y299725D01*
X470407Y299003D01*
X470451Y298946D01*
Y284000D01*
X470645Y283025D01*
X471198Y282198D01*
X481099Y272297D01*
X481108Y272225D01*
X481407Y271503D01*
X481600Y271252D01*
X481645Y271024D01*
X482198Y270198D01*
X487951Y264444D01*
Y170049D01*
X454000D01*
X453024Y169855D01*
X452198Y169302D01*
X443395Y160500D01*
X439000D01*
Y152500D01*
X447000D01*
Y156895D01*
X449712Y159608D01*
X450089Y159277D01*
X449914Y159048D01*
X449506Y158517D01*
X449103Y157544D01*
X448966Y156500D01*
X449103Y155456D01*
X449506Y154483D01*
X450147Y153647D01*
X450983Y153006D01*
X451956Y152603D01*
X453000Y152465D01*
X454044Y152603D01*
X455017Y153006D01*
X455853Y153647D01*
X456494Y154483D01*
X456897Y155456D01*
X457034Y156500D01*
X456897Y157544D01*
X456494Y158517D01*
X455853Y159353D01*
X455017Y159994D01*
X454044Y160397D01*
X453000Y160535D01*
X451956Y160397D01*
X450983Y159994D01*
X450452Y159587D01*
X450223Y159411D01*
X449892Y159788D01*
X455056Y164951D01*
X489444D01*
X500198Y154198D01*
X501024Y153645D01*
X502000Y153451D01*
X552500D01*
Y152000D01*
X560500D01*
Y160000D01*
X556105D01*
X534549Y181556D01*
Y193581D01*
X535049Y193788D01*
X543419Y185419D01*
X543915Y185087D01*
X544500Y184971D01*
X607500D01*
X608085Y185087D01*
X608581Y185419D01*
X615081Y191919D01*
X615413Y192415D01*
X615529Y193000D01*
Y199323D01*
X618038Y201832D01*
X618500Y201641D01*
Y196583D01*
X625500D01*
Y201935D01*
X625529Y202083D01*
Y203666D01*
X627081Y205218D01*
X627413Y205715D01*
X627529Y206300D01*
Y212500D01*
X627413Y213085D01*
X627081Y213581D01*
X626529Y214134D01*
Y233791D01*
X626413Y234377D01*
X626081Y234873D01*
X625500Y235454D01*
Y238644D01*
X625529Y238791D01*
Y240375D01*
X627081Y241927D01*
X627413Y242423D01*
X627529Y243008D01*
Y252000D01*
X627413Y252585D01*
X627081Y253081D01*
X625529Y254633D01*
Y271500D01*
X625500Y271648D01*
Y275352D01*
X625529Y275500D01*
Y277084D01*
X627081Y278636D01*
X627413Y279132D01*
X627529Y279717D01*
Y285000D01*
X627413Y285585D01*
X627081Y286081D01*
X625529Y287633D01*
Y308209D01*
X625500Y308356D01*
Y313709D01*
X620442D01*
X620251Y314171D01*
X620851Y314770D01*
X621086Y314673D01*
X622000Y314552D01*
X622914Y314673D01*
X623765Y315025D01*
X624496Y315586D01*
X625057Y316318D01*
X625410Y317169D01*
X625530Y318083D01*
X625410Y318996D01*
X625057Y319848D01*
X624496Y320579D01*
X623765Y321140D01*
X622914Y321493D01*
X622000Y321613D01*
X621086Y321493D01*
X620235Y321140D01*
X619504Y320579D01*
X618943Y319848D01*
X618590Y318996D01*
X618470Y318083D01*
X618590Y317169D01*
X618688Y316933D01*
X608919Y307164D01*
X608587Y306668D01*
X608471Y306083D01*
Y272412D01*
X607819Y271760D01*
X607487Y271264D01*
X607371Y270678D01*
Y195746D01*
X604754Y193129D01*
X584446D01*
X584254Y193591D01*
X591538Y200875D01*
X592000Y200684D01*
Y196917D01*
X599000D01*
Y201754D01*
X600581Y203336D01*
X600913Y203832D01*
X601029Y204417D01*
Y214500D01*
X600913Y215085D01*
X600581Y215581D01*
X600029Y216133D01*
Y234209D01*
X599913Y234794D01*
X599581Y235290D01*
X599000Y235872D01*
Y239061D01*
X599029Y239209D01*
Y240792D01*
X600581Y242344D01*
X600913Y242841D01*
X601029Y243426D01*
Y248500D01*
X600913Y249085D01*
X600581Y249581D01*
X600529Y249634D01*
Y270500D01*
X600413Y271085D01*
X600081Y271581D01*
X599000Y272663D01*
Y275852D01*
X599029Y276000D01*
Y277584D01*
X600581Y279136D01*
X600913Y279632D01*
X601029Y280217D01*
Y285500D01*
X600913Y286085D01*
X600581Y286581D01*
X599029Y288134D01*
Y308791D01*
X599000Y308939D01*
Y314291D01*
X593942D01*
X593751Y314753D01*
X594351Y315353D01*
X594586Y315255D01*
X595500Y315135D01*
X596414Y315255D01*
X597265Y315608D01*
X597996Y316169D01*
X598557Y316900D01*
X598910Y317752D01*
X599030Y318665D01*
X598910Y319579D01*
X598557Y320430D01*
X597996Y321162D01*
X597265Y321723D01*
X596414Y322075D01*
X595500Y322196D01*
X594586Y322075D01*
X593735Y321723D01*
X593004Y321162D01*
X592443Y320430D01*
X592090Y319579D01*
X591970Y318665D01*
X592090Y317752D01*
X592188Y317516D01*
X585549Y310877D01*
X585049Y311062D01*
Y358000D01*
X584855Y358976D01*
X584302Y359802D01*
X577302Y366802D01*
X576475Y367355D01*
X575500Y367549D01*
D02*
G37*
G36*
X484000Y314724D02*
X483149Y314555D01*
X482428Y314072D01*
X481945Y313351D01*
X481776Y312500D01*
X481945Y311649D01*
X482428Y310928D01*
X483149Y310445D01*
X484000Y310276D01*
X484851Y310445D01*
X485572Y310928D01*
X486055Y311649D01*
X486224Y312500D01*
X486055Y313351D01*
X485572Y314072D01*
X484851Y314555D01*
X484000Y314724D01*
D02*
G37*
G36*
X555000Y295624D02*
Y294000D01*
X556624D01*
X556555Y294351D01*
X556073Y295073D01*
X555351Y295555D01*
X555000Y295624D01*
D02*
G37*
G36*
X554000D02*
X553649Y295555D01*
X552927Y295073D01*
X552445Y294351D01*
X552376Y294000D01*
X554000D01*
Y295624D01*
D02*
G37*
G36*
X556624Y293000D02*
X555000D01*
Y291376D01*
X555351Y291445D01*
X556073Y291928D01*
X556555Y292649D01*
X556624Y293000D01*
D02*
G37*
G36*
X554000D02*
X552376D01*
X552445Y292649D01*
X552927Y291928D01*
X553649Y291445D01*
X554000Y291376D01*
Y293000D01*
D02*
G37*
G36*
X565000Y282124D02*
Y280500D01*
X566624D01*
X566555Y280851D01*
X566073Y281573D01*
X565351Y282055D01*
X565000Y282124D01*
D02*
G37*
G36*
X564000D02*
X563649Y282055D01*
X562927Y281573D01*
X562445Y280851D01*
X562376Y280500D01*
X564000D01*
Y282124D01*
D02*
G37*
G36*
X566624Y279500D02*
X565000D01*
Y277876D01*
X565351Y277945D01*
X566073Y278428D01*
X566555Y279149D01*
X566624Y279500D01*
D02*
G37*
G36*
X564000D02*
X562376D01*
X562445Y279149D01*
X562927Y278428D01*
X563649Y277945D01*
X564000Y277876D01*
Y279500D01*
D02*
G37*
G36*
X555000Y266624D02*
Y265000D01*
X556624D01*
X556555Y265351D01*
X556073Y266073D01*
X555351Y266555D01*
X555000Y266624D01*
D02*
G37*
G36*
X554000D02*
X553649Y266555D01*
X552927Y266073D01*
X552445Y265351D01*
X552376Y265000D01*
X554000D01*
Y266624D01*
D02*
G37*
G36*
X497500Y266124D02*
Y264500D01*
X499124D01*
X499055Y264851D01*
X498572Y265573D01*
X497851Y266055D01*
X497500Y266124D01*
D02*
G37*
G36*
X496500D02*
X496149Y266055D01*
X495428Y265573D01*
X494945Y264851D01*
X494876Y264500D01*
X496500D01*
Y266124D01*
D02*
G37*
G36*
X556624Y264000D02*
X555000D01*
Y262376D01*
X555351Y262445D01*
X556073Y262928D01*
X556555Y263649D01*
X556624Y264000D01*
D02*
G37*
G36*
X554000D02*
X552376D01*
X552445Y263649D01*
X552927Y262928D01*
X553649Y262445D01*
X554000Y262376D01*
Y264000D01*
D02*
G37*
G36*
X499124Y263500D02*
X497500D01*
Y261876D01*
X497851Y261945D01*
X498572Y262427D01*
X499055Y263149D01*
X499124Y263500D01*
D02*
G37*
G36*
X496500D02*
X494876D01*
X494945Y263149D01*
X495428Y262427D01*
X496149Y261945D01*
X496500Y261876D01*
Y263500D01*
D02*
G37*
G36*
X522500Y243124D02*
Y241500D01*
X524124D01*
X524055Y241851D01*
X523572Y242572D01*
X522851Y243055D01*
X522500Y243124D01*
D02*
G37*
G36*
X521500D02*
X521149Y243055D01*
X520428Y242572D01*
X519945Y241851D01*
X519876Y241500D01*
X521500D01*
Y243124D01*
D02*
G37*
G36*
X524124Y240500D02*
X522500D01*
Y238876D01*
X522851Y238945D01*
X523572Y239427D01*
X524055Y240149D01*
X524124Y240500D01*
D02*
G37*
G36*
X521500D02*
X519876D01*
X519945Y240149D01*
X520428Y239427D01*
X521149Y238945D01*
X521500Y238876D01*
Y240500D01*
D02*
G37*
G36*
X456000Y223624D02*
Y222000D01*
X457624D01*
X457555Y222351D01*
X457072Y223073D01*
X456351Y223555D01*
X456000Y223624D01*
D02*
G37*
G36*
X455000D02*
X454649Y223555D01*
X453928Y223073D01*
X453445Y222351D01*
X453376Y222000D01*
X455000D01*
Y223624D01*
D02*
G37*
G36*
X457624Y221000D02*
X456000D01*
Y219376D01*
X456351Y219445D01*
X457072Y219928D01*
X457555Y220649D01*
X457624Y221000D01*
D02*
G37*
G36*
X455000D02*
X453376D01*
X453445Y220649D01*
X453928Y219928D01*
X454649Y219445D01*
X455000Y219376D01*
Y221000D01*
D02*
G37*
G36*
X547000Y218624D02*
Y217000D01*
X548624D01*
X548555Y217351D01*
X548072Y218073D01*
X547351Y218555D01*
X547000Y218624D01*
D02*
G37*
G36*
X472000Y216624D02*
Y215000D01*
X473624D01*
X473555Y215351D01*
X473072Y216073D01*
X472351Y216555D01*
X472000Y216624D01*
D02*
G37*
G36*
X471000D02*
X470649Y216555D01*
X469928Y216073D01*
X469445Y215351D01*
X469376Y215000D01*
X471000D01*
Y216624D01*
D02*
G37*
G36*
X512500Y215624D02*
Y214000D01*
X514124D01*
X514055Y214351D01*
X513573Y215072D01*
X512851Y215555D01*
X512500Y215624D01*
D02*
G37*
G36*
X511500D02*
X511149Y215555D01*
X510428Y215072D01*
X509945Y214351D01*
X509876Y214000D01*
X511500D01*
Y215624D01*
D02*
G37*
G36*
X456000Y214624D02*
Y213000D01*
X457624D01*
X457555Y213351D01*
X457072Y214072D01*
X456351Y214555D01*
X456000Y214624D01*
D02*
G37*
G36*
X455000D02*
X454649Y214555D01*
X453928Y214072D01*
X453445Y213351D01*
X453376Y213000D01*
X455000D01*
Y214624D01*
D02*
G37*
G36*
X473624Y214000D02*
X472000D01*
Y212376D01*
X472351Y212445D01*
X473072Y212928D01*
X473555Y213649D01*
X473624Y214000D01*
D02*
G37*
G36*
X471000D02*
X469376D01*
X469445Y213649D01*
X469928Y212928D01*
X470649Y212445D01*
X471000Y212376D01*
Y214000D01*
D02*
G37*
G36*
X514124Y213000D02*
X512500D01*
Y211376D01*
X512851Y211445D01*
X513573Y211928D01*
X514055Y212649D01*
X514124Y213000D01*
D02*
G37*
G36*
X511500D02*
X509876D01*
X509945Y212649D01*
X510428Y211928D01*
X511149Y211445D01*
X511500Y211376D01*
Y213000D01*
D02*
G37*
G36*
X457624Y212000D02*
X456000D01*
Y210376D01*
X456351Y210445D01*
X457072Y210928D01*
X457555Y211649D01*
X457624Y212000D01*
D02*
G37*
G36*
X455000D02*
X453376D01*
X453445Y211649D01*
X453928Y210928D01*
X454649Y210445D01*
X455000Y210376D01*
Y212000D01*
D02*
G37*
G36*
X558000Y208124D02*
Y206500D01*
X559624D01*
X559555Y206851D01*
X559072Y207573D01*
X558351Y208055D01*
X558000Y208124D01*
D02*
G37*
G36*
X432500Y207156D02*
X431586Y207036D01*
X430735Y206683D01*
X430004Y206122D01*
X429443Y205391D01*
X429090Y204540D01*
X428970Y203626D01*
X429090Y202712D01*
X429443Y201861D01*
X430004Y201130D01*
X430735Y200569D01*
X431586Y200216D01*
X432500Y200096D01*
X433414Y200216D01*
X434265Y200569D01*
X434996Y201130D01*
X435557Y201861D01*
X435910Y202712D01*
X436030Y203626D01*
X435910Y204540D01*
X435557Y205391D01*
X434996Y206122D01*
X434265Y206683D01*
X433414Y207036D01*
X432500Y207156D01*
D02*
G37*
G36*
X405000Y207030D02*
X404086Y206910D01*
X403235Y206557D01*
X402504Y205996D01*
X401943Y205265D01*
X401590Y204414D01*
X401470Y203500D01*
X401590Y202586D01*
X401943Y201735D01*
X402504Y201004D01*
X403235Y200443D01*
X404086Y200090D01*
X405000Y199970D01*
X405914Y200090D01*
X406765Y200443D01*
X407496Y201004D01*
X408057Y201735D01*
X408410Y202586D01*
X408530Y203500D01*
X408410Y204414D01*
X408057Y205265D01*
X407496Y205996D01*
X406765Y206557D01*
X405914Y206910D01*
X405000Y207030D01*
D02*
G37*
G36*
X503500Y199724D02*
X502649Y199555D01*
X501928Y199073D01*
X501445Y198351D01*
X501276Y197500D01*
X501445Y196649D01*
X501928Y195928D01*
X502649Y195446D01*
X503500Y195276D01*
X503551Y195286D01*
X504919Y193919D01*
X505415Y193587D01*
X506000Y193471D01*
X522399D01*
X522428Y193428D01*
X523149Y192946D01*
X524000Y192776D01*
X524851Y192946D01*
X525572Y193428D01*
X526055Y194149D01*
X526224Y195000D01*
X526055Y195851D01*
X525572Y196572D01*
X524851Y197055D01*
X524000Y197224D01*
X523149Y197055D01*
X522428Y196572D01*
X522399Y196529D01*
X506634D01*
X505714Y197449D01*
X505724Y197500D01*
X505555Y198351D01*
X505072Y199073D01*
X504351Y199555D01*
X503500Y199724D01*
D02*
G37*
G36*
X499000Y192124D02*
Y190500D01*
X500624D01*
X500555Y190851D01*
X500072Y191572D01*
X499351Y192054D01*
X499000Y192124D01*
D02*
G37*
G36*
X498000D02*
X497649Y192054D01*
X496927Y191572D01*
X496445Y190851D01*
X496376Y190500D01*
X498000D01*
Y192124D01*
D02*
G37*
G36*
X500624Y189500D02*
X499000D01*
Y187876D01*
X499351Y187945D01*
X500072Y188427D01*
X500555Y189149D01*
X500624Y189500D01*
D02*
G37*
G36*
X498000D02*
X496376D01*
X496445Y189149D01*
X496927Y188427D01*
X497649Y187945D01*
X498000Y187876D01*
Y189500D01*
D02*
G37*
G36*
X576500Y180124D02*
Y178500D01*
X578124D01*
X578055Y178851D01*
X577572Y179572D01*
X576851Y180054D01*
X576500Y180124D01*
D02*
G37*
G36*
X575500D02*
X575149Y180054D01*
X574428Y179572D01*
X573945Y178851D01*
X573876Y178500D01*
X575500D01*
Y180124D01*
D02*
G37*
G36*
X578124Y177500D02*
X576500D01*
Y175876D01*
X576851Y175945D01*
X577572Y176427D01*
X578055Y177149D01*
X578124Y177500D01*
D02*
G37*
G36*
X575500D02*
X573876D01*
X573945Y177149D01*
X574428Y176427D01*
X575149Y175945D01*
X575500Y175876D01*
Y177500D01*
D02*
G37*
G36*
X618000Y186966D02*
Y172878D01*
X632088D01*
X631948Y174666D01*
X631412Y176898D01*
X630533Y179019D01*
X629334Y180976D01*
X627843Y182721D01*
X626098Y184212D01*
X624141Y185411D01*
X622020Y186290D01*
X619788Y186826D01*
X618000Y186966D01*
D02*
G37*
G36*
X617000D02*
X615212Y186826D01*
X612980Y186290D01*
X610859Y185411D01*
X608902Y184212D01*
X607157Y182721D01*
X605666Y180976D01*
X604467Y179019D01*
X603588Y176898D01*
X603052Y174666D01*
X602912Y172878D01*
X617000D01*
Y186966D01*
D02*
G37*
G36*
X407000Y185588D02*
Y171500D01*
X421088D01*
X420948Y173288D01*
X420412Y175520D01*
X419533Y177641D01*
X418334Y179598D01*
X416843Y181343D01*
X415098Y182834D01*
X413141Y184033D01*
X411020Y184912D01*
X408788Y185448D01*
X407000Y185588D01*
D02*
G37*
G36*
X406000D02*
X404212Y185448D01*
X401980Y184912D01*
X399859Y184033D01*
X397902Y182834D01*
X396157Y181343D01*
X394666Y179598D01*
X393467Y177641D01*
X392588Y175520D01*
X392052Y173288D01*
X391912Y171500D01*
X406000D01*
Y185588D01*
D02*
G37*
G36*
X632088Y171878D02*
X618000D01*
Y157790D01*
X619788Y157930D01*
X622020Y158466D01*
X624141Y159344D01*
X626098Y160544D01*
X627843Y162035D01*
X629334Y163780D01*
X630533Y165737D01*
X631412Y167858D01*
X631948Y170090D01*
X632088Y171878D01*
D02*
G37*
G36*
X617000D02*
X602912D01*
X603052Y170090D01*
X603588Y167858D01*
X604467Y165737D01*
X605666Y163780D01*
X607157Y162035D01*
X608902Y160544D01*
X610859Y159344D01*
X612980Y158466D01*
X615212Y157930D01*
X617000Y157790D01*
Y171878D01*
D02*
G37*
G36*
X473500Y160469D02*
Y157000D01*
X476969D01*
X476897Y157544D01*
X476494Y158517D01*
X475853Y159353D01*
X475017Y159994D01*
X474044Y160397D01*
X473500Y160469D01*
D02*
G37*
G36*
X472500D02*
X471956Y160397D01*
X470983Y159994D01*
X470147Y159353D01*
X469506Y158517D01*
X469103Y157544D01*
X469031Y157000D01*
X472500D01*
Y160469D01*
D02*
G37*
G36*
X587000Y159969D02*
Y156500D01*
X590469D01*
X590397Y157044D01*
X589994Y158017D01*
X589353Y158853D01*
X588517Y159494D01*
X587544Y159897D01*
X587000Y159969D01*
D02*
G37*
G36*
X586000D02*
X585456Y159897D01*
X584483Y159494D01*
X583647Y158853D01*
X583006Y158017D01*
X582603Y157044D01*
X582531Y156500D01*
X586000D01*
Y159969D01*
D02*
G37*
G36*
X421088Y170500D02*
X407000D01*
Y156412D01*
X408788Y156552D01*
X411020Y157088D01*
X413141Y157967D01*
X415098Y159166D01*
X416843Y160657D01*
X418334Y162402D01*
X419533Y164359D01*
X420412Y166480D01*
X420948Y168712D01*
X421088Y170500D01*
D02*
G37*
G36*
X406000D02*
X391912D01*
X392052Y168712D01*
X392588Y166480D01*
X393467Y164359D01*
X394666Y162402D01*
X396157Y160657D01*
X397902Y159166D01*
X399859Y157967D01*
X401980Y157088D01*
X404212Y156552D01*
X406000Y156412D01*
Y170500D01*
D02*
G37*
G36*
X476969Y156000D02*
X473500D01*
Y152531D01*
X474044Y152603D01*
X475017Y153006D01*
X475853Y153647D01*
X476494Y154483D01*
X476897Y155456D01*
X476969Y156000D01*
D02*
G37*
G36*
X472500D02*
X469031D01*
X469103Y155456D01*
X469506Y154483D01*
X470147Y153647D01*
X470983Y153006D01*
X471956Y152603D01*
X472500Y152531D01*
Y156000D01*
D02*
G37*
G36*
X463000Y160535D02*
X461956Y160397D01*
X460983Y159994D01*
X460147Y159353D01*
X459506Y158517D01*
X459103Y157544D01*
X458965Y156500D01*
X459103Y155456D01*
X459506Y154483D01*
X460147Y153647D01*
X460983Y153006D01*
X461956Y152603D01*
X463000Y152465D01*
X464044Y152603D01*
X465017Y153006D01*
X465853Y153647D01*
X466494Y154483D01*
X466897Y155456D01*
X467034Y156500D01*
X466897Y157544D01*
X466494Y158517D01*
X465853Y159353D01*
X465017Y159994D01*
X464044Y160397D01*
X463000Y160535D01*
D02*
G37*
G36*
X590469Y155500D02*
X587000D01*
Y152031D01*
X587544Y152103D01*
X588517Y152506D01*
X589353Y153147D01*
X589994Y153983D01*
X590397Y154956D01*
X590469Y155500D01*
D02*
G37*
G36*
X586000D02*
X582531D01*
X582603Y154956D01*
X583006Y153983D01*
X583647Y153147D01*
X584483Y152506D01*
X585456Y152103D01*
X586000Y152031D01*
Y155500D01*
D02*
G37*
G36*
X576500Y160035D02*
X575456Y159897D01*
X574483Y159494D01*
X573647Y158853D01*
X573006Y158017D01*
X572603Y157044D01*
X572466Y156000D01*
X572603Y154956D01*
X573006Y153983D01*
X573647Y153147D01*
X574483Y152506D01*
X575456Y152103D01*
X576500Y151965D01*
X577544Y152103D01*
X578517Y152506D01*
X579353Y153147D01*
X579994Y153983D01*
X580397Y154956D01*
X580535Y156000D01*
X580397Y157044D01*
X579994Y158017D01*
X579353Y158853D01*
X578517Y159494D01*
X577544Y159897D01*
X576500Y160035D01*
D02*
G37*
G36*
X566500D02*
X565456Y159897D01*
X564483Y159494D01*
X563647Y158853D01*
X563006Y158017D01*
X562603Y157044D01*
X562465Y156000D01*
X562603Y154956D01*
X563006Y153983D01*
X563647Y153147D01*
X564483Y152506D01*
X565456Y152103D01*
X566500Y151965D01*
X567544Y152103D01*
X568517Y152506D01*
X569353Y153147D01*
X569994Y153983D01*
X570397Y154956D01*
X570535Y156000D01*
X570397Y157044D01*
X569994Y158017D01*
X569353Y158853D01*
X568517Y159494D01*
X567544Y159897D01*
X566500Y160035D01*
D02*
G37*
%LPD*%
G36*
X592000Y312349D02*
Y307291D01*
X595971D01*
Y287500D01*
X596087Y286915D01*
X596419Y286419D01*
X597435Y285402D01*
X597152Y284978D01*
X596414Y285284D01*
X595500Y285404D01*
X594586Y285284D01*
X593735Y284931D01*
X593004Y284370D01*
X592443Y283639D01*
X592090Y282788D01*
X591970Y281874D01*
X592090Y280960D01*
X592188Y280725D01*
X588491Y277028D01*
X588029Y277220D01*
Y309032D01*
X591538Y312541D01*
X592000Y312349D01*
D02*
G37*
G36*
X618500Y311767D02*
Y306709D01*
X622471D01*
Y287000D01*
X622587Y286415D01*
X622919Y285919D01*
X623935Y284902D01*
X623652Y284478D01*
X622914Y284784D01*
X622000Y284904D01*
X621086Y284784D01*
X620235Y284431D01*
X619504Y283870D01*
X618943Y283139D01*
X618590Y282288D01*
X618470Y281374D01*
X618590Y280460D01*
X618688Y280225D01*
X611991Y273528D01*
X611529Y273720D01*
Y305449D01*
X618038Y311958D01*
X618500Y311767D01*
D02*
G37*
G36*
X592000Y275558D02*
Y270500D01*
X596837D01*
X597471Y269866D01*
Y249000D01*
X597562Y248538D01*
X597438Y248372D01*
X597306Y248261D01*
X597162Y248183D01*
X596414Y248493D01*
X595500Y248613D01*
X594586Y248493D01*
X593735Y248140D01*
X593004Y247579D01*
X592443Y246848D01*
X592090Y245996D01*
X591970Y245083D01*
X592090Y244169D01*
X592188Y243933D01*
X590776Y242522D01*
X590314Y242713D01*
Y274525D01*
X591538Y275749D01*
X592000Y275558D01*
D02*
G37*
G36*
X618500Y275058D02*
Y270000D01*
X622471D01*
Y254000D01*
X622587Y253415D01*
X622919Y252919D01*
X624471Y251366D01*
Y247746D01*
X624022Y247525D01*
X623765Y247723D01*
X622914Y248075D01*
X622000Y248196D01*
X621086Y248075D01*
X620235Y247723D01*
X619504Y247162D01*
X618943Y246430D01*
X618590Y245579D01*
X618470Y244665D01*
X618590Y243752D01*
X618688Y243516D01*
X612991Y237820D01*
X612529Y238011D01*
Y269741D01*
X618038Y275249D01*
X618500Y275058D01*
D02*
G37*
G36*
X559600Y255150D02*
X561500Y253250D01*
X561500Y234750D01*
X559500Y232750D01*
X545500Y232750D01*
X543500Y234750D01*
Y253350D01*
X545300Y255150D01*
X559600Y255150D01*
D02*
G37*
G36*
X596971Y233575D02*
Y215500D01*
X597087Y214915D01*
X597419Y214419D01*
X597971Y213866D01*
Y211372D01*
X597522Y211151D01*
X597265Y211349D01*
X596414Y211701D01*
X595500Y211822D01*
X594586Y211701D01*
X593735Y211349D01*
X593004Y210788D01*
X592514Y210150D01*
X592130Y210220D01*
X592014Y210281D01*
Y233709D01*
X596837D01*
X596971Y233575D01*
D02*
G37*
G36*
X618500Y238349D02*
Y233291D01*
X623337D01*
X623471Y233158D01*
Y213500D01*
X623587Y212915D01*
X623919Y212419D01*
X624471Y211866D01*
Y211038D01*
X624022Y210817D01*
X623765Y211014D01*
X622914Y211367D01*
X622000Y211487D01*
X621086Y211367D01*
X620235Y211014D01*
X619504Y210453D01*
X618943Y209722D01*
X618590Y208870D01*
X618470Y207957D01*
X618590Y207043D01*
X618688Y206807D01*
X614491Y202611D01*
X614029Y202802D01*
Y234532D01*
X618038Y238541D01*
X618500Y238349D01*
D02*
G37*
D24*
X473000Y284000D02*
Y300500D01*
Y284000D02*
X484000Y273000D01*
X473000Y300500D02*
X474000D01*
X479976Y306476D01*
X497938D01*
X490500Y167500D02*
Y265500D01*
X484000Y272000D02*
X490500Y265500D01*
X502000Y156000D02*
X556500D01*
X490500Y167500D02*
X502000Y156000D01*
X529119Y197099D02*
Y232400D01*
Y197099D02*
X532000Y194218D01*
X529119Y232400D02*
X532000Y235282D01*
Y246500D02*
X544000Y258500D01*
X532000Y180500D02*
Y194218D01*
Y235282D02*
Y246500D01*
Y180500D02*
X556500Y156000D01*
X575500Y365000D02*
X582500Y358000D01*
X576500Y217000D02*
X582500Y223000D01*
Y358000D01*
X556179Y282679D02*
Y282933D01*
X556468Y283222D01*
Y283469D01*
X564321Y291321D01*
Y293321D01*
X564500Y293500D01*
X544000Y270500D02*
X556179Y282679D01*
X544000Y258500D02*
Y270500D01*
X571000Y365000D02*
X575500D01*
X525000D02*
X571000D01*
X565500Y359000D02*
X571000Y364500D01*
Y365000D01*
X478374D02*
X525000D01*
X519500Y359000D02*
X525000Y364500D01*
Y365000D01*
X472374Y359000D02*
X478374Y365000D01*
X443000Y156500D02*
X454000Y167500D01*
X490500D01*
D25*
X498669Y232188D02*
Y255169D01*
X498000Y231519D02*
X498669Y232188D01*
X498000Y227500D02*
Y231519D01*
X538757Y219743D02*
Y219743D01*
X559000Y199500D02*
X579879D01*
X538757Y219743D02*
X559000Y199500D01*
X557800Y196700D02*
X580392D01*
X534000Y220631D02*
X534646Y219986D01*
Y219854D02*
X557800Y196700D01*
X534646Y219854D02*
Y219986D01*
X534000Y220631D02*
Y221000D01*
X580392Y196700D02*
X588675Y204984D01*
Y206175D02*
X588785Y206285D01*
X588675Y204984D02*
Y206175D01*
X588785Y206285D02*
Y275159D01*
X534000Y217000D02*
X556000Y195000D01*
X581096D02*
X590375Y204279D01*
X556000Y195000D02*
X581096D01*
X590375Y204279D02*
Y205471D01*
X590485Y240067D02*
X595500Y245083D01*
X590485Y205581D02*
Y240067D01*
X590375Y205471D02*
X590485Y205581D01*
X581800Y193300D02*
X593000Y204500D01*
X553700Y193300D02*
X581800D01*
X593000Y204500D02*
Y205963D01*
X595328Y208291D02*
X595500D01*
X593000Y205963D02*
X595328Y208291D01*
X534000Y213000D02*
X553700Y193300D01*
X610000Y271778D02*
Y306083D01*
X608900Y270678D02*
X610000Y271778D01*
X605387Y191600D02*
X608900Y195113D01*
X551900Y191600D02*
X605387D01*
X608900Y195113D02*
Y270678D01*
X610000Y306083D02*
X622000Y318083D01*
X534500Y209000D02*
X551900Y191600D01*
X606092Y189900D02*
X610600Y194408D01*
X551196Y189900D02*
X606092D01*
X549915Y191181D02*
X551196Y189900D01*
X606796Y188200D02*
X612300Y193704D01*
X547300Y188200D02*
X606796D01*
X534500Y201000D02*
X547300Y188200D01*
X534000Y197000D02*
X544500Y186500D01*
X607500D02*
X614000Y193000D01*
X544500Y186500D02*
X607500D01*
X610600Y194408D02*
Y235669D01*
X547819Y191181D02*
X549915D01*
X611000Y270374D02*
X622000Y281374D01*
X611000Y236069D02*
Y270374D01*
X610600Y235669D02*
X611000Y236069D01*
X612500Y235165D02*
X622000Y244665D01*
X612500Y200861D02*
Y235165D01*
X612300Y200661D02*
X612500Y200861D01*
X612300Y193704D02*
Y200661D01*
X614000Y199957D02*
X622000Y207957D01*
X614000Y193000D02*
Y199957D01*
X498669Y255169D02*
X519000Y275500D01*
X495500Y256481D02*
X520805Y281785D01*
X521215D01*
X495500Y233500D02*
Y256481D01*
X534000Y224500D02*
X538757Y219743D01*
X534000Y224500D02*
Y227000D01*
Y201000D02*
X534500D01*
X534000Y205000D02*
X547819Y191181D01*
X534000Y205000D02*
X534000D01*
X534000Y209000D02*
X534500D01*
X534000Y213000D02*
X534000D01*
X588785Y275159D02*
X595500Y281874D01*
X586500Y309665D02*
X595500Y318665D01*
X579879Y199500D02*
X586500Y206121D01*
Y309665D01*
X519000Y275500D02*
Y275500D01*
X405000Y320874D02*
X419248D01*
X423374Y325000D01*
X440500D01*
X449500Y316000D01*
X503500Y197500D02*
X506000Y195000D01*
X524000D01*
X622000Y310209D02*
X624000Y308209D01*
Y287000D02*
Y308209D01*
X622000Y273500D02*
X624000Y275500D01*
Y277717D01*
X626000Y279717D01*
Y285000D01*
X624000Y287000D02*
X626000Y285000D01*
X622000Y273500D02*
X624000Y271500D01*
Y254000D02*
Y271500D01*
X622000Y236791D02*
X624000Y238791D01*
Y241008D01*
X626000Y243008D01*
Y252000D01*
X624000Y254000D02*
X626000Y252000D01*
X622000Y236791D02*
X625000Y233791D01*
Y213500D02*
Y233791D01*
X622000Y200083D02*
X624000Y202083D01*
Y204300D01*
X626000Y206300D01*
Y212500D01*
X625000Y213500D02*
X626000Y212500D01*
X595500Y237209D02*
X598500Y234209D01*
Y215500D02*
Y234209D01*
X595500Y200417D02*
X599500Y204417D01*
Y214500D01*
X598500Y215500D02*
X599500Y214500D01*
X595500Y274000D02*
X599000Y270500D01*
Y249000D02*
Y270500D01*
X595500Y237209D02*
X597500Y239209D01*
Y241426D01*
X599500Y243426D01*
Y248500D01*
X599000Y249000D02*
X599500Y248500D01*
X595500Y310791D02*
X597500Y308791D01*
Y287500D02*
Y308791D01*
Y287500D02*
X599500Y285500D01*
X595500Y274000D02*
X597500Y276000D01*
Y278217D01*
X599500Y280217D01*
Y285500D01*
X432500Y284500D02*
Y298641D01*
X428500Y302641D02*
X432500Y298641D01*
X428500Y302641D02*
Y317000D01*
X432500Y321000D01*
Y248000D02*
Y262141D01*
X428500Y266141D02*
X432500Y262141D01*
X428500Y266141D02*
Y280500D01*
X432500Y284500D01*
Y211500D02*
Y225641D01*
X428500Y229641D02*
X432500Y225641D01*
X428500Y229641D02*
Y244000D01*
X432500Y248000D01*
X405000Y284374D02*
Y298515D01*
X401000Y302515D02*
X405000Y298515D01*
X401000Y302515D02*
Y316874D01*
X405000Y320874D01*
Y247874D02*
Y262015D01*
X401000Y266015D02*
X405000Y262015D01*
X401000Y266015D02*
Y280374D01*
X405000Y284374D01*
Y211374D02*
Y225515D01*
X401000Y229515D02*
X405000Y225515D01*
X401000Y229515D02*
Y243874D01*
X405000Y247874D01*
D26*
X586500Y156000D02*
D03*
X566500D02*
D03*
X576500D02*
D03*
X473000Y156500D02*
D03*
X453000D02*
D03*
X463000D02*
D03*
D27*
X556500Y156000D02*
D03*
X443000Y156500D02*
D03*
D28*
X617500Y356500D02*
D03*
X408122D02*
D03*
X406500Y171000D02*
D03*
X617500Y172378D02*
D03*
D29*
X432500Y240126D02*
D03*
Y203626D02*
D03*
Y276626D02*
D03*
Y313126D02*
D03*
X405000Y203500D02*
D03*
Y240000D02*
D03*
Y313000D02*
D03*
Y276500D02*
D03*
X557626Y359000D02*
D03*
X549752D02*
D03*
X511626D02*
D03*
X503752D02*
D03*
X464500D02*
D03*
X456626D02*
D03*
X622000Y318083D02*
D03*
Y281374D02*
D03*
X595500Y318665D02*
D03*
Y281874D02*
D03*
Y245083D02*
D03*
X622000Y244665D02*
D03*
X595500Y208291D02*
D03*
X622000Y207957D02*
D03*
D30*
X432500Y248000D02*
D03*
Y211500D02*
D03*
Y284500D02*
D03*
Y321000D02*
D03*
X405000Y211374D02*
D03*
Y247874D02*
D03*
Y320874D02*
D03*
Y284374D02*
D03*
X622000Y310209D02*
D03*
Y273500D02*
D03*
X595500Y310791D02*
D03*
Y274000D02*
D03*
Y237209D02*
D03*
X622000Y236791D02*
D03*
X595500Y200417D02*
D03*
X622000Y200083D02*
D03*
D31*
X565500Y359000D02*
D03*
X519500D02*
D03*
X472374D02*
D03*
D32*
X473000Y300500D02*
D03*
X498000Y227500D02*
D03*
X497938Y306476D02*
D03*
X484000Y273000D02*
D03*
X556000Y282500D02*
D03*
X564500Y293500D02*
D03*
X544000Y258500D02*
D03*
X521215Y281785D02*
D03*
X519000Y275500D02*
D03*
X576500Y217000D02*
D03*
D33*
X495500Y233500D02*
D03*
D34*
X534000Y221000D02*
D03*
Y217000D02*
D03*
X557500Y206000D02*
D03*
X534000Y227000D02*
D03*
X557000Y234500D02*
D03*
X552500D02*
D03*
X557000Y253500D02*
D03*
X552500D02*
D03*
X547500D02*
D03*
X552500Y239000D02*
D03*
X547000Y234500D02*
D03*
X557000Y239000D02*
D03*
X547000D02*
D03*
X534000Y213000D02*
D03*
Y201000D02*
D03*
Y209000D02*
D03*
Y197000D02*
D03*
Y205000D02*
D03*
X497000Y264000D02*
D03*
X466000Y323500D02*
D03*
X513500Y324000D02*
D03*
X558500Y322500D02*
D03*
X554500Y293500D02*
D03*
X564500Y280000D02*
D03*
X554500Y264500D02*
D03*
X546500Y216500D02*
D03*
X576000Y178000D02*
D03*
X455500Y221500D02*
D03*
Y212500D02*
D03*
X498500Y190000D02*
D03*
X484000Y312500D02*
D03*
X522000Y241000D02*
D03*
X471500Y214500D02*
D03*
X512000Y213500D02*
D03*
X449500Y316000D02*
D03*
X503500Y197500D02*
D03*
X524000Y195000D02*
D03*
%TF.MD5,6ebdf1004d2bdccdd4f87e52571ac90b*%
M02*
