%TF.GenerationSoftware,Altium Limited,Altium Designer,20.0.13 (296)*%
G04 Layer_Color=2752767*
%FSLAX25Y25*%
%MOIN*%
%TF.FileFunction,Drawing*%
%TF.Part,Single*%
G01*
G75*
%TA.AperFunction,NonConductor*%
%ADD52C,0.00500*%
%ADD76C,0.00667*%
D52*
X584500Y154000D02*
Y158000D01*
X588500D01*
Y154000D01*
X584500D01*
X564500D02*
Y158000D01*
X568500D01*
Y154000D01*
X564500D01*
X554500D02*
Y158000D01*
X558500D01*
Y154000D01*
X554500D01*
X574500D02*
Y158000D01*
X578500D01*
Y154000D01*
X574500D01*
X471000Y154500D02*
Y158500D01*
X475000D01*
Y154500D01*
X471000D01*
X451000D02*
Y158500D01*
X455000D01*
Y154500D01*
X451000D01*
X441000D02*
Y158500D01*
X445000D01*
Y154500D01*
X441000D01*
X461000D02*
Y158500D01*
X465000D01*
Y154500D01*
X461000D01*
X432500Y238126D02*
X430500Y242126D01*
X434500D01*
X432500Y238126D01*
Y246000D02*
X430500Y250000D01*
X434500D01*
X432500Y246000D01*
Y201626D02*
X430500Y205626D01*
X434500D01*
X432500Y201626D01*
Y209500D02*
X430500Y213500D01*
X434500D01*
X432500Y209500D01*
Y274626D02*
X430500Y278626D01*
X434500D01*
X432500Y274626D01*
Y282500D02*
X430500Y286500D01*
X434500D01*
X432500Y282500D01*
Y311126D02*
X430500Y315126D01*
X434500D01*
X432500Y311126D01*
Y319000D02*
X430500Y323000D01*
X434500D01*
X432500Y319000D01*
X405000Y201500D02*
X403000Y205500D01*
X407000D01*
X405000Y201500D01*
Y209374D02*
X403000Y213374D01*
X407000D01*
X405000Y209374D01*
Y238000D02*
X403000Y242000D01*
X407000D01*
X405000Y238000D01*
Y245874D02*
X403000Y249874D01*
X407000D01*
X405000Y245874D01*
Y311000D02*
X403000Y315000D01*
X407000D01*
X405000Y311000D01*
Y318874D02*
X403000Y322874D01*
X407000D01*
X405000Y318874D01*
Y274500D02*
X403000Y278500D01*
X407000D01*
X405000Y274500D01*
Y282374D02*
X403000Y286374D01*
X407000D01*
X405000Y282374D01*
X565500Y357000D02*
X563500Y361000D01*
X567500D01*
X565500Y357000D01*
X557626D02*
X555626Y361000D01*
X559626D01*
X557626Y357000D01*
X549752D02*
X547752Y361000D01*
X551752D01*
X549752Y357000D01*
X519500D02*
X517500Y361000D01*
X521500D01*
X519500Y357000D01*
X511626D02*
X509626Y361000D01*
X513626D01*
X511626Y357000D01*
X503752D02*
X501752Y361000D01*
X505752D01*
X503752Y357000D01*
X472374D02*
X470374Y361000D01*
X474374D01*
X472374Y357000D01*
X464500D02*
X462500Y361000D01*
X466500D01*
X464500Y357000D01*
X456626D02*
X454626Y361000D01*
X458626D01*
X456626Y357000D01*
X622000Y308209D02*
X620000Y312209D01*
X624000D01*
X622000Y308209D01*
Y316083D02*
X620000Y320083D01*
X624000D01*
X622000Y316083D01*
Y271500D02*
X620000Y275500D01*
X624000D01*
X622000Y271500D01*
Y279374D02*
X620000Y283374D01*
X624000D01*
X622000Y279374D01*
X595500Y308791D02*
X593500Y312791D01*
X597500D01*
X595500Y308791D01*
Y316665D02*
X593500Y320665D01*
X597500D01*
X595500Y316665D01*
Y272000D02*
X593500Y276000D01*
X597500D01*
X595500Y272000D01*
Y279874D02*
X593500Y283874D01*
X597500D01*
X595500Y279874D01*
Y235209D02*
X593500Y239209D01*
X597500D01*
X595500Y235209D01*
Y243083D02*
X593500Y247083D01*
X597500D01*
X595500Y243083D01*
X622000Y234791D02*
X620000Y238791D01*
X624000D01*
X622000Y234791D01*
Y242665D02*
X620000Y246665D01*
X624000D01*
X622000Y242665D01*
X595500Y198417D02*
X593500Y202417D01*
X597500D01*
X595500Y198417D01*
Y206291D02*
X593500Y210291D01*
X597500D01*
X595500Y206291D01*
X622000Y198083D02*
X620000Y202083D01*
X624000D01*
X622000Y198083D01*
Y205957D02*
X620000Y209957D01*
X624000D01*
X622000Y205957D01*
X469000Y296500D02*
X470000Y297500D01*
X471000D01*
X470000Y298500D01*
X471000Y299500D01*
X470000D01*
X469000Y300500D01*
X468000Y299500D01*
X467000D01*
X468000Y298500D01*
X467000Y297500D01*
X468000D01*
X469000Y296500D01*
X498000Y225500D02*
X499000Y226500D01*
X500000D01*
X499000Y227500D01*
X500000Y228500D01*
X499000D01*
X498000Y229500D01*
X497000Y228500D01*
X496000D01*
X497000Y227500D01*
X496000Y226500D01*
X497000D01*
X498000Y225500D01*
X495500Y231500D02*
X496500Y232500D01*
X497500D01*
X496500Y233500D01*
X497500Y234500D01*
X496500D01*
X495500Y235500D01*
X494500Y234500D01*
X493500D01*
X494500Y233500D01*
X493500Y232500D01*
X494500D01*
X495500Y231500D01*
X532000Y219000D02*
X533000Y221000D01*
X532000Y223000D01*
X534000Y222000D01*
X536000Y223000D01*
X535000Y221000D01*
X536000Y219000D01*
X534000Y220000D01*
X532000Y219000D01*
Y215000D02*
X533000Y217000D01*
X532000Y219000D01*
X534000Y218000D01*
X536000Y219000D01*
X535000Y217000D01*
X536000Y215000D01*
X534000Y216000D01*
X532000Y215000D01*
X555500Y204000D02*
X556500Y206000D01*
X555500Y208000D01*
X557500Y207000D01*
X559500Y208000D01*
X558500Y206000D01*
X559500Y204000D01*
X557500Y205000D01*
X555500Y204000D01*
X532000Y225000D02*
X533000Y227000D01*
X532000Y229000D01*
X534000Y228000D01*
X536000Y229000D01*
X535000Y227000D01*
X536000Y225000D01*
X534000Y226000D01*
X532000Y225000D01*
X555000Y232500D02*
X556000Y234500D01*
X555000Y236500D01*
X557000Y235500D01*
X559000Y236500D01*
X558000Y234500D01*
X559000Y232500D01*
X557000Y233500D01*
X555000Y232500D01*
X550500D02*
X551500Y234500D01*
X550500Y236500D01*
X552500Y235500D01*
X554500Y236500D01*
X553500Y234500D01*
X554500Y232500D01*
X552500Y233500D01*
X550500Y232500D01*
X555000Y251500D02*
X556000Y253500D01*
X555000Y255500D01*
X557000Y254500D01*
X559000Y255500D01*
X558000Y253500D01*
X559000Y251500D01*
X557000Y252500D01*
X555000Y251500D01*
X550500D02*
X551500Y253500D01*
X550500Y255500D01*
X552500Y254500D01*
X554500Y255500D01*
X553500Y253500D01*
X554500Y251500D01*
X552500Y252500D01*
X550500Y251500D01*
X545500D02*
X546500Y253500D01*
X545500Y255500D01*
X547500Y254500D01*
X549500Y255500D01*
X548500Y253500D01*
X549500Y251500D01*
X547500Y252500D01*
X545500Y251500D01*
X550500Y237000D02*
X551500Y239000D01*
X550500Y241000D01*
X552500Y240000D01*
X554500Y241000D01*
X553500Y239000D01*
X554500Y237000D01*
X552500Y238000D01*
X550500Y237000D01*
X545000Y232500D02*
X546000Y234500D01*
X545000Y236500D01*
X547000Y235500D01*
X549000Y236500D01*
X548000Y234500D01*
X549000Y232500D01*
X547000Y233500D01*
X545000Y232500D01*
X555000Y237000D02*
X556000Y239000D01*
X555000Y241000D01*
X557000Y240000D01*
X559000Y241000D01*
X558000Y239000D01*
X559000Y237000D01*
X557000Y238000D01*
X555000Y237000D01*
X545000D02*
X546000Y239000D01*
X545000Y241000D01*
X547000Y240000D01*
X549000Y241000D01*
X548000Y239000D01*
X549000Y237000D01*
X547000Y238000D01*
X545000Y237000D01*
X532000Y211000D02*
X533000Y213000D01*
X532000Y215000D01*
X534000Y214000D01*
X536000Y215000D01*
X535000Y213000D01*
X536000Y211000D01*
X534000Y212000D01*
X532000Y211000D01*
Y199000D02*
X533000Y201000D01*
X532000Y203000D01*
X534000Y202000D01*
X536000Y203000D01*
X535000Y201000D01*
X536000Y199000D01*
X534000Y200000D01*
X532000Y199000D01*
Y207000D02*
X533000Y209000D01*
X532000Y211000D01*
X534000Y210000D01*
X536000Y211000D01*
X535000Y209000D01*
X536000Y207000D01*
X534000Y208000D01*
X532000Y207000D01*
Y195000D02*
X533000Y197000D01*
X532000Y199000D01*
X534000Y198000D01*
X536000Y199000D01*
X535000Y197000D01*
X536000Y195000D01*
X534000Y196000D01*
X532000Y195000D01*
Y203000D02*
X533000Y205000D01*
X532000Y207000D01*
X534000Y206000D01*
X536000Y207000D01*
X535000Y205000D01*
X536000Y203000D01*
X534000Y204000D01*
X532000Y203000D01*
X495000Y262000D02*
X496000Y264000D01*
X495000Y266000D01*
X497000Y265000D01*
X499000Y266000D01*
X498000Y264000D01*
X499000Y262000D01*
X497000Y263000D01*
X495000Y262000D01*
X464000Y321500D02*
X465000Y323500D01*
X464000Y325500D01*
X466000Y324500D01*
X468000Y325500D01*
X467000Y323500D01*
X468000Y321500D01*
X466000Y322500D01*
X464000Y321500D01*
X511500Y322000D02*
X512500Y324000D01*
X511500Y326000D01*
X513500Y325000D01*
X515500Y326000D01*
X514500Y324000D01*
X515500Y322000D01*
X513500Y323000D01*
X511500Y322000D01*
X556500Y320500D02*
X557500Y322500D01*
X556500Y324500D01*
X558500Y323500D01*
X560500Y324500D01*
X559500Y322500D01*
X560500Y320500D01*
X558500Y321500D01*
X556500Y320500D01*
X552500Y291500D02*
X553500Y293500D01*
X552500Y295500D01*
X554500Y294500D01*
X556500Y295500D01*
X555500Y293500D01*
X556500Y291500D01*
X554500Y292500D01*
X552500Y291500D01*
X562500Y278000D02*
X563500Y280000D01*
X562500Y282000D01*
X564500Y281000D01*
X566500Y282000D01*
X565500Y280000D01*
X566500Y278000D01*
X564500Y279000D01*
X562500Y278000D01*
X552500Y262500D02*
X553500Y264500D01*
X552500Y266500D01*
X554500Y265500D01*
X556500Y266500D01*
X555500Y264500D01*
X556500Y262500D01*
X554500Y263500D01*
X552500Y262500D01*
X544500Y214500D02*
X545500Y216500D01*
X544500Y218500D01*
X546500Y217500D01*
X548500Y218500D01*
X547500Y216500D01*
X548500Y214500D01*
X546500Y215500D01*
X544500Y214500D01*
X574000Y176000D02*
X575000Y178000D01*
X574000Y180000D01*
X576000Y179000D01*
X578000Y180000D01*
X577000Y178000D01*
X578000Y176000D01*
X576000Y177000D01*
X574000Y176000D01*
X453500Y219500D02*
X454500Y221500D01*
X453500Y223500D01*
X455500Y222500D01*
X457500Y223500D01*
X456500Y221500D01*
X457500Y219500D01*
X455500Y220500D01*
X453500Y219500D01*
Y210500D02*
X454500Y212500D01*
X453500Y214500D01*
X455500Y213500D01*
X457500Y214500D01*
X456500Y212500D01*
X457500Y210500D01*
X455500Y211500D01*
X453500Y210500D01*
X496500Y188000D02*
X497500Y190000D01*
X496500Y192000D01*
X498500Y191000D01*
X500500Y192000D01*
X499500Y190000D01*
X500500Y188000D01*
X498500Y189000D01*
X496500Y188000D01*
X482000Y310500D02*
X483000Y312500D01*
X482000Y314500D01*
X484000Y313500D01*
X486000Y314500D01*
X485000Y312500D01*
X486000Y310500D01*
X484000Y311500D01*
X482000Y310500D01*
X520000Y239000D02*
X521000Y241000D01*
X520000Y243000D01*
X522000Y242000D01*
X524000Y243000D01*
X523000Y241000D01*
X524000Y239000D01*
X522000Y240000D01*
X520000Y239000D01*
X469500Y212500D02*
X470500Y214500D01*
X469500Y216500D01*
X471500Y215500D01*
X473500Y216500D01*
X472500Y214500D01*
X473500Y212500D01*
X471500Y213500D01*
X469500Y212500D01*
X510000Y211500D02*
X511000Y213500D01*
X510000Y215500D01*
X512000Y214500D01*
X514000Y215500D01*
X513000Y213500D01*
X514000Y211500D01*
X512000Y212500D01*
X510000Y211500D01*
X497938Y304476D02*
X498938Y305476D01*
X499938D01*
X498938Y306476D01*
X499938Y307476D01*
X498938D01*
X497938Y308476D01*
X496938Y307476D01*
X495938D01*
X496938Y306476D01*
X495938Y305476D01*
X496938D01*
X497938Y304476D01*
X447500Y314000D02*
X448500Y316000D01*
X447500Y318000D01*
X449500Y317000D01*
X451500Y318000D01*
X450500Y316000D01*
X451500Y314000D01*
X449500Y315000D01*
X447500Y314000D01*
X484000Y271000D02*
X485000Y272000D01*
X486000D01*
X485000Y273000D01*
X486000Y274000D01*
X485000D01*
X484000Y275000D01*
X483000Y274000D01*
X482000D01*
X483000Y273000D01*
X482000Y272000D01*
X483000D01*
X484000Y271000D01*
X556000Y280500D02*
X557000Y281500D01*
X558000D01*
X557000Y282500D01*
X558000Y283500D01*
X557000D01*
X556000Y284500D01*
X555000Y283500D01*
X554000D01*
X555000Y282500D01*
X554000Y281500D01*
X555000D01*
X556000Y280500D01*
X564500Y291500D02*
X565500Y292500D01*
X566500D01*
X565500Y293500D01*
X566500Y294500D01*
X565500D01*
X564500Y295500D01*
X563500Y294500D01*
X562500D01*
X563500Y293500D01*
X562500Y292500D01*
X563500D01*
X564500Y291500D01*
X544000Y256500D02*
X545000Y257500D01*
X546000D01*
X545000Y258500D01*
X546000Y259500D01*
X545000D01*
X544000Y260500D01*
X543000Y259500D01*
X542000D01*
X543000Y258500D01*
X542000Y257500D01*
X543000D01*
X544000Y256500D01*
X521215Y279785D02*
X522215Y280785D01*
X523215D01*
X522215Y281785D01*
X523215Y282785D01*
X522215D01*
X521215Y283785D01*
X520215Y282785D01*
X519215D01*
X520215Y281785D01*
X519215Y280785D01*
X520215D01*
X521215Y279785D01*
X519000Y273500D02*
X520000Y274500D01*
X521000D01*
X520000Y275500D01*
X521000Y276500D01*
X520000D01*
X519000Y277500D01*
X518000Y276500D01*
X517000D01*
X518000Y275500D01*
X517000Y274500D01*
X518000D01*
X519000Y273500D01*
X576500Y215000D02*
X577500Y216000D01*
X578500D01*
X577500Y217000D01*
X578500Y218000D01*
X577500D01*
X576500Y219000D01*
X575500Y218000D01*
X574500D01*
X575500Y217000D01*
X574500Y216000D01*
X575500D01*
X576500Y215000D01*
X501500Y195500D02*
X502500Y197500D01*
X501500Y199500D01*
X503500Y198500D01*
X505500Y199500D01*
X504500Y197500D01*
X505500Y195500D01*
X503500Y196500D01*
X501500Y195500D01*
X522000Y193000D02*
X523000Y195000D01*
X522000Y197000D01*
X524000Y196000D01*
X526000Y197000D01*
X525000Y195000D01*
X526000Y193000D01*
X524000Y194000D01*
X522000Y193000D01*
D76*
X619500Y356500D02*
G03*
X619500Y356500I-2000J0D01*
G01*
X410122D02*
G03*
X410122Y356500I-2000J0D01*
G01*
X408500Y171000D02*
G03*
X408500Y171000I-2000J0D01*
G01*
X619500Y172378D02*
G03*
X619500Y172378I-2000J0D01*
G01*
%TF.MD5,6a1540f57b76523f5f70e74ef0e8410c*%
M02*
