M48
;Layer_Color=9474304
;FILE_FORMAT=2:5
INCH,TZ
;TYPE=PLATED
T1F00S00C0.01181
T2F00S00C0.01968
T3F00S00C0.03000
T4F00S00C0.04000
T5F00S00C0.16535
%
T01
X471500Y214500
X512000Y213500
X534000Y213000
Y217000
Y221000
Y227000
Y209000
Y205000
Y201000
Y197000
X524000Y195000
X503500Y197500
X498500Y190000
X546500Y216500
X547000Y234500
Y239000
X552500
Y234500
X557000
Y239000
Y253500
X552500
X547500
X554500Y264500
X564500Y280000
X554500Y293500
X522000Y241000
X497000Y264000
X557500Y206000
X576000Y178000
X455500Y212500
Y221500
X449500Y316000
X466000Y323500
X484000Y312500
X513500Y324000
X558500Y322500
T02
X500000Y227500
X496500Y233500
X484000Y273000
X519000Y275500
X521215Y281785
X556000Y282500
X564500Y293500
X544000Y258500
X576500Y217000
X497938Y306476
X465500Y295500
T03
X595500Y200417
Y208291
X622000Y207957
Y200083
Y236791
Y244665
X595500Y245083
Y237209
Y274000
Y281874
X622000Y281374
Y273500
Y310209
X595500Y310791
X432500Y284500
Y276626
X405000Y276500
Y284374
Y247874
Y240000
X432500Y240126
Y248000
Y211500
Y203626
X405000Y203500
Y211374
Y313000
Y320874
X432500Y321000
Y313126
X456626Y359000
X464500
X472374
X503752
X511626
X519500
X549752
X557626
X565500
X595500Y318665
X622000Y318083
T04
X556500Y156000
X566500
X576500
X586500
X473000Y156500
X463000
X453000
X443000
T05
X617500Y172378
X406500Y171000
X408122Y356500
X617500
M30
