%TF.GenerationSoftware,Altium Limited,Altium Designer,20.0.13 (296)*%
G04 Layer_Color=255*
%FSLAX25Y25*%
%MOIN*%
%TF.FileFunction,Pads,Bot*%
%TF.Part,Single*%
G01*
G75*
%TA.AperFunction,ComponentPad*%
%ADD26C,0.06000*%
%ADD27R,0.06000X0.06000*%
%ADD28C,0.27165*%
%ADD29C,0.05000*%
%ADD30R,0.05000X0.05000*%
%ADD31R,0.05000X0.05000*%
D26*
X586500Y156000D02*
D03*
X566500D02*
D03*
X576500D02*
D03*
X473000Y156500D02*
D03*
X453000D02*
D03*
X463000D02*
D03*
D27*
X556500Y156000D02*
D03*
X443000Y156500D02*
D03*
D28*
X617500Y356500D02*
D03*
X408122D02*
D03*
X406500Y171000D02*
D03*
X617500Y172378D02*
D03*
D29*
X432500Y240126D02*
D03*
Y203626D02*
D03*
Y276626D02*
D03*
Y313126D02*
D03*
X405000Y203500D02*
D03*
Y240000D02*
D03*
Y313000D02*
D03*
Y276500D02*
D03*
X557626Y359000D02*
D03*
X549752D02*
D03*
X511626D02*
D03*
X503752D02*
D03*
X464500D02*
D03*
X456626D02*
D03*
X622000Y318083D02*
D03*
Y281374D02*
D03*
X595500Y318665D02*
D03*
Y281874D02*
D03*
Y245083D02*
D03*
X622000Y244665D02*
D03*
X595500Y208291D02*
D03*
X622000Y207957D02*
D03*
D30*
X432500Y248000D02*
D03*
Y211500D02*
D03*
Y284500D02*
D03*
Y321000D02*
D03*
X405000Y211374D02*
D03*
Y247874D02*
D03*
Y320874D02*
D03*
Y284374D02*
D03*
X622000Y310209D02*
D03*
Y273500D02*
D03*
X595500Y310791D02*
D03*
Y274000D02*
D03*
Y237209D02*
D03*
X622000Y236791D02*
D03*
X595500Y200417D02*
D03*
X622000Y200083D02*
D03*
D31*
X565500Y359000D02*
D03*
X519500D02*
D03*
X472374D02*
D03*
%TF.MD5,ce2bdcbfabc41a432767724263c82e51*%
M02*
