G04*
G04 #@! TF.GenerationSoftware,Altium Limited,Altium Designer,20.0.13 (296)*
G04*
G04 Layer_Color=16711935*
%FSLAX25Y25*%
%MOIN*%
G70*
G01*
G75*
%ADD33C,0.06800*%
%ADD34R,0.06800X0.06800*%
%ADD35C,0.27965*%
%ADD36C,0.05800*%
%ADD37R,0.05800X0.05800*%
%ADD38R,0.05800X0.05800*%
%ADD39C,0.03162*%
%ADD40C,0.04737*%
%ADD41C,0.04737*%
D33*
X586500Y156000D02*
D03*
X566500D02*
D03*
X576500D02*
D03*
X473000Y156500D02*
D03*
X453000D02*
D03*
X463000D02*
D03*
D34*
X556500Y156000D02*
D03*
X443000Y156500D02*
D03*
D35*
X617500Y356500D02*
D03*
X408122D02*
D03*
X406500Y171000D02*
D03*
X617500Y172378D02*
D03*
D36*
X432500Y240126D02*
D03*
Y203626D02*
D03*
Y276626D02*
D03*
Y313126D02*
D03*
X405000Y203500D02*
D03*
Y240000D02*
D03*
Y313000D02*
D03*
Y276500D02*
D03*
X557626Y359000D02*
D03*
X549752D02*
D03*
X511626D02*
D03*
X503752D02*
D03*
X464500D02*
D03*
X456626D02*
D03*
X622000Y318083D02*
D03*
Y281374D02*
D03*
X595500Y318665D02*
D03*
Y281874D02*
D03*
Y245083D02*
D03*
X622000Y244665D02*
D03*
X595500Y208291D02*
D03*
X622000Y207957D02*
D03*
D37*
X432500Y248000D02*
D03*
Y211500D02*
D03*
Y284500D02*
D03*
Y321000D02*
D03*
X405000Y211374D02*
D03*
Y247874D02*
D03*
Y320874D02*
D03*
Y284374D02*
D03*
X622000Y310209D02*
D03*
Y273500D02*
D03*
X595500Y310791D02*
D03*
Y274000D02*
D03*
Y237209D02*
D03*
X622000Y236791D02*
D03*
X595500Y200417D02*
D03*
X622000Y200083D02*
D03*
D38*
X565500Y359000D02*
D03*
X519500D02*
D03*
X472374D02*
D03*
D39*
X534000Y221000D02*
D03*
Y217000D02*
D03*
X557500Y206000D02*
D03*
X534000Y227000D02*
D03*
X557000Y234500D02*
D03*
X552500D02*
D03*
X557000Y253500D02*
D03*
X552500D02*
D03*
X547500D02*
D03*
X552500Y239000D02*
D03*
X547000Y234500D02*
D03*
X557000Y239000D02*
D03*
X547000D02*
D03*
X534000Y213000D02*
D03*
Y201000D02*
D03*
Y209000D02*
D03*
Y197000D02*
D03*
Y205000D02*
D03*
X497000Y264000D02*
D03*
X466000Y323500D02*
D03*
X513500Y324000D02*
D03*
X558500Y322500D02*
D03*
X554500Y293500D02*
D03*
X564500Y280000D02*
D03*
X554500Y264500D02*
D03*
X546500Y216500D02*
D03*
X576000Y178000D02*
D03*
X455500Y221500D02*
D03*
Y212500D02*
D03*
X498500Y190000D02*
D03*
X484000Y312500D02*
D03*
X522000Y241000D02*
D03*
X471500Y214500D02*
D03*
X512000Y213500D02*
D03*
X449500Y316000D02*
D03*
X503500Y197500D02*
D03*
X524000Y195000D02*
D03*
D40*
X500000Y227500D02*
D03*
X497938Y306476D02*
D03*
X484000Y273000D02*
D03*
X465500Y295500D02*
D03*
X556000Y282500D02*
D03*
X564500Y293500D02*
D03*
X544000Y258500D02*
D03*
X521215Y281785D02*
D03*
X519000Y275500D02*
D03*
X576500Y217000D02*
D03*
D41*
X496500Y233500D02*
D03*
M02*
