G04*
G04 #@! TF.GenerationSoftware,Altium Limited,Altium Designer,20.0.13 (296)*
G04*
G04 Layer_Color=16711935*
%FSLAX25Y25*%
%MOIN*%
G70*
G01*
G75*
%ADD18C,0.01000*%
D18*
X384619Y170818D02*
X384642Y169828D01*
X384708Y168840D01*
X384819Y167856D01*
X384974Y166879D01*
X385173Y165909D01*
X385415Y164949D01*
X385699Y164000D01*
X386026Y163066D01*
X386395Y162147D01*
X386804Y161246D01*
X387254Y160363D01*
X387742Y159502D01*
X388269Y158664D01*
X388833Y157850D01*
X389433Y157062D01*
X390067Y156302D01*
X390735Y155572D01*
X391435Y154872D01*
X392166Y154204D01*
X392926Y153569D01*
X393714Y152969D01*
X394528Y152406D01*
X395366Y151879D01*
X396227Y151390D01*
X397109Y150941D01*
X398011Y150531D01*
X398930Y150163D01*
X399864Y149836D01*
X400812Y149551D01*
X401772Y149309D01*
X402742Y149110D01*
X403720Y148956D01*
X404704Y148845D01*
X405692Y148778D01*
X406681Y148756D01*
X408122Y380122D02*
X407120Y380101D01*
X406119Y380037D01*
X405122Y379931D01*
X404130Y379782D01*
X403145Y379592D01*
X402170Y379360D01*
X401205Y379087D01*
X400253Y378773D01*
X399314Y378419D01*
X398392Y378025D01*
X397487Y377593D01*
X396602Y377122D01*
X395737Y376615D01*
X394894Y376071D01*
X394076Y375492D01*
X393282Y374879D01*
X392515Y374232D01*
X391777Y373554D01*
X391068Y372845D01*
X390390Y372107D01*
X389743Y371340D01*
X389130Y370546D01*
X388551Y369728D01*
X388007Y368885D01*
X387500Y368020D01*
X387029Y367135D01*
X386597Y366230D01*
X386203Y365308D01*
X385849Y364369D01*
X385535Y363417D01*
X385262Y362452D01*
X385030Y361477D01*
X384840Y360492D01*
X384691Y359500D01*
X384585Y358503D01*
X384521Y357503D01*
X384500Y356500D01*
X617500Y148756D02*
X618503Y148777D01*
X619503Y148841D01*
X620500Y148947D01*
X621492Y149096D01*
X622477Y149286D01*
X623452Y149518D01*
X624417Y149791D01*
X625369Y150105D01*
X626308Y150459D01*
X627230Y150853D01*
X628135Y151285D01*
X629020Y151756D01*
X629885Y152263D01*
X630728Y152807D01*
X631546Y153386D01*
X632340Y153999D01*
X633107Y154646D01*
X633845Y155324D01*
X634554Y156033D01*
X635232Y156772D01*
X635879Y157538D01*
X636492Y158332D01*
X637071Y159150D01*
X637615Y159993D01*
X638122Y160858D01*
X638593Y161743D01*
X639025Y162648D01*
X639419Y163570D01*
X639773Y164508D01*
X640087Y165461D01*
X640360Y166426D01*
X640592Y167401D01*
X640782Y168386D01*
X640931Y169378D01*
X641037Y170375D01*
X641101Y171375D01*
X641122Y172378D01*
Y356500D02*
X641101Y357503D01*
X641037Y358503D01*
X640931Y359500D01*
X640782Y360492D01*
X640592Y361477D01*
X640360Y362452D01*
X640087Y363417D01*
X639773Y364369D01*
X639419Y365308D01*
X639025Y366230D01*
X638593Y367135D01*
X638122Y368020D01*
X637615Y368885D01*
X637071Y369728D01*
X636492Y370547D01*
X635879Y371340D01*
X635232Y372107D01*
X634554Y372845D01*
X633845Y373554D01*
X633107Y374232D01*
X632340Y374879D01*
X631546Y375492D01*
X630728Y376071D01*
X629885Y376615D01*
X629020Y377122D01*
X628135Y377593D01*
X627230Y378025D01*
X626308Y378419D01*
X625369Y378773D01*
X624417Y379087D01*
X623452Y379360D01*
X622477Y379592D01*
X621492Y379782D01*
X620500Y379931D01*
X619503Y380037D01*
X618503Y380101D01*
X617500Y380122D01*
X408122Y380122D02*
X617500Y380122D01*
X384619Y356500D02*
X384619Y170818D01*
X406681Y148756D02*
X617500Y148756D01*
X641122Y172378D02*
Y356500D01*
M02*
