%TF.GenerationSoftware,Altium Limited,Altium Designer,20.0.13 (296)*%
G04 Layer_Color=128*
%FSLAX25Y25*%
%MOIN*%
%TF.FileFunction,Drillmap*%
%TF.Part,Single*%
G01*
G75*
%TA.AperFunction,NonConductor*%
%ADD51C,0.00500*%
D51*
X584500Y156000D02*
X588500D01*
X586500Y154000D02*
Y158000D01*
X564500Y156000D02*
X568500D01*
X566500Y154000D02*
Y158000D01*
X554500Y156000D02*
X558500D01*
X556500Y154000D02*
Y158000D01*
X574500Y156000D02*
X578500D01*
X576500Y154000D02*
Y158000D01*
X471000Y156500D02*
X475000D01*
X473000Y154500D02*
Y158500D01*
X451000Y156500D02*
X455000D01*
X453000Y154500D02*
Y158500D01*
X441000Y156500D02*
X445000D01*
X443000Y154500D02*
Y158500D01*
X461000Y156500D02*
X465000D01*
X463000Y154500D02*
Y158500D01*
X609232Y356500D02*
X625768D01*
X617500Y348232D02*
Y364768D01*
X399854Y356500D02*
X416390D01*
X408122Y348232D02*
Y364768D01*
X398232Y171000D02*
X414768D01*
X406500Y162732D02*
Y179268D01*
X431000Y240126D02*
X434000D01*
X432500Y238626D02*
Y241626D01*
X431000Y248000D02*
X434000D01*
X432500Y246500D02*
Y249500D01*
X431000Y203626D02*
X434000D01*
X432500Y202126D02*
Y205126D01*
X431000Y211500D02*
X434000D01*
X432500Y210000D02*
Y213000D01*
X431000Y276626D02*
X434000D01*
X432500Y275126D02*
Y278126D01*
X431000Y284500D02*
X434000D01*
X432500Y283000D02*
Y286000D01*
X431000Y313126D02*
X434000D01*
X432500Y311626D02*
Y314626D01*
X431000Y321000D02*
X434000D01*
X432500Y319500D02*
Y322500D01*
X403500Y203500D02*
X406500D01*
X405000Y202000D02*
Y205000D01*
X403500Y211374D02*
X406500D01*
X405000Y209874D02*
Y212874D01*
X403500Y240000D02*
X406500D01*
X405000Y238500D02*
Y241500D01*
X403500Y247874D02*
X406500D01*
X405000Y246374D02*
Y249374D01*
X403500Y313000D02*
X406500D01*
X405000Y311500D02*
Y314500D01*
X403500Y320874D02*
X406500D01*
X405000Y319374D02*
Y322374D01*
X403500Y276500D02*
X406500D01*
X405000Y275000D02*
Y278000D01*
X403500Y284374D02*
X406500D01*
X405000Y282874D02*
Y285874D01*
X564000Y359000D02*
X567000D01*
X565500Y357500D02*
Y360500D01*
X556126Y359000D02*
X559126D01*
X557626Y357500D02*
Y360500D01*
X548252Y359000D02*
X551252D01*
X549752Y357500D02*
Y360500D01*
X518000Y359000D02*
X521000D01*
X519500Y357500D02*
Y360500D01*
X510126Y359000D02*
X513126D01*
X511626Y357500D02*
Y360500D01*
X502252Y359000D02*
X505252D01*
X503752Y357500D02*
Y360500D01*
X470874Y359000D02*
X473874D01*
X472374Y357500D02*
Y360500D01*
X463000Y359000D02*
X466000D01*
X464500Y357500D02*
Y360500D01*
X455126Y359000D02*
X458126D01*
X456626Y357500D02*
Y360500D01*
X620500Y310209D02*
X623500D01*
X622000Y308709D02*
Y311709D01*
X620500Y318083D02*
X623500D01*
X622000Y316583D02*
Y319583D01*
X620500Y273500D02*
X623500D01*
X622000Y272000D02*
Y275000D01*
X620500Y281374D02*
X623500D01*
X622000Y279874D02*
Y282874D01*
X594000Y310791D02*
X597000D01*
X595500Y309291D02*
Y312291D01*
X594000Y318665D02*
X597000D01*
X595500Y317165D02*
Y320165D01*
X594000Y274000D02*
X597000D01*
X595500Y272500D02*
Y275500D01*
X594000Y281874D02*
X597000D01*
X595500Y280374D02*
Y283374D01*
X594000Y237209D02*
X597000D01*
X595500Y235709D02*
Y238709D01*
X594000Y245083D02*
X597000D01*
X595500Y243583D02*
Y246583D01*
X609232Y172378D02*
X625768D01*
X617500Y164110D02*
Y180646D01*
X620500Y236791D02*
X623500D01*
X622000Y235291D02*
Y238291D01*
X620500Y244665D02*
X623500D01*
X622000Y243165D02*
Y246165D01*
X594000Y200417D02*
X597000D01*
X595500Y198917D02*
Y201917D01*
X594000Y208291D02*
X597000D01*
X595500Y206791D02*
Y209791D01*
X620500Y200083D02*
X623500D01*
X622000Y198583D02*
Y201583D01*
X620500Y207957D02*
X623500D01*
X622000Y206457D02*
Y209457D01*
X472016Y300500D02*
X473984D01*
X473000Y299516D02*
Y301484D01*
X497016Y227500D02*
X498984D01*
X498000Y226516D02*
Y228484D01*
X494516Y233500D02*
X496484D01*
X495500Y232516D02*
Y234484D01*
X533410Y221000D02*
X534590D01*
X534000Y220409D02*
Y221590D01*
X533410Y217000D02*
X534590D01*
X534000Y216409D02*
Y217590D01*
X556910Y206000D02*
X558090D01*
X557500Y205410D02*
Y206591D01*
X533410Y227000D02*
X534590D01*
X534000Y226410D02*
Y227590D01*
X556410Y234500D02*
X557590D01*
X557000Y233910D02*
Y235090D01*
X551909Y234500D02*
X553090D01*
X552500Y233910D02*
Y235090D01*
X556410Y253500D02*
X557590D01*
X557000Y252909D02*
Y254090D01*
X551909Y253500D02*
X553090D01*
X552500Y252909D02*
Y254090D01*
X546910Y253500D02*
X548091D01*
X547500Y252909D02*
Y254090D01*
X551909Y239000D02*
X553090D01*
X552500Y238409D02*
Y239591D01*
X546410Y234500D02*
X547590D01*
X547000Y233910D02*
Y235090D01*
X556410Y239000D02*
X557590D01*
X557000Y238409D02*
Y239591D01*
X546410Y239000D02*
X547590D01*
X547000Y238409D02*
Y239591D01*
X533410Y213000D02*
X534590D01*
X534000Y212409D02*
Y213591D01*
X533410Y201000D02*
X534590D01*
X534000Y200409D02*
Y201591D01*
X533410Y209000D02*
X534590D01*
X534000Y208410D02*
Y209591D01*
X533410Y197000D02*
X534590D01*
X534000Y196409D02*
Y197591D01*
X533410Y205000D02*
X534590D01*
X534000Y204409D02*
Y205591D01*
X496410Y264000D02*
X497590D01*
X497000Y263409D02*
Y264591D01*
X465410Y323500D02*
X466590D01*
X466000Y322909D02*
Y324091D01*
X512910Y324000D02*
X514090D01*
X513500Y323410D02*
Y324590D01*
X557909Y322500D02*
X559091D01*
X558500Y321909D02*
Y323091D01*
X553909Y293500D02*
X555091D01*
X554500Y292910D02*
Y294091D01*
X563909Y280000D02*
X565091D01*
X564500Y279410D02*
Y280591D01*
X553909Y264500D02*
X555091D01*
X554500Y263910D02*
Y265090D01*
X545910Y216500D02*
X547090D01*
X546500Y215910D02*
Y217091D01*
X575410Y178000D02*
X576590D01*
X576000Y177409D02*
Y178591D01*
X454910Y221500D02*
X456090D01*
X455500Y220910D02*
Y222091D01*
X454910Y212500D02*
X456090D01*
X455500Y211910D02*
Y213090D01*
X497909Y190000D02*
X499090D01*
X498500Y189409D02*
Y190591D01*
X483410Y312500D02*
X484590D01*
X484000Y311910D02*
Y313090D01*
X521410Y241000D02*
X522590D01*
X522000Y240409D02*
Y241590D01*
X470910Y214500D02*
X472090D01*
X471500Y213910D02*
Y215090D01*
X511410Y213500D02*
X512591D01*
X512000Y212910D02*
Y214090D01*
X496954Y306476D02*
X498922D01*
X497938Y305492D02*
Y307460D01*
X448910Y316000D02*
X450091D01*
X449500Y315409D02*
Y316590D01*
X483016Y273000D02*
X484984D01*
X484000Y272016D02*
Y273984D01*
X555016Y282500D02*
X556984D01*
X556000Y281516D02*
Y283484D01*
X563516Y293500D02*
X565484D01*
X564500Y292516D02*
Y294484D01*
X543016Y258500D02*
X544984D01*
X544000Y257516D02*
Y259484D01*
X520230Y281785D02*
X522199D01*
X521215Y280801D02*
Y282770D01*
X518016Y275500D02*
X519984D01*
X519000Y274516D02*
Y276484D01*
X575516Y217000D02*
X577484D01*
X576500Y216016D02*
Y217984D01*
X502910Y197500D02*
X504090D01*
X503500Y196909D02*
Y198091D01*
X523410Y195000D02*
X524590D01*
X524000Y194409D02*
Y195591D01*
%TF.MD5,0be5c374ba193e2d971f10a2598e7659*%
M02*
