%TF.GenerationSoftware,Altium Limited,Altium Designer,20.0.13 (296)*%
G04 Layer_Color=65535*
%FSLAX25Y25*%
%MOIN*%
%TF.FileFunction,Legend,Top*%
%TF.Part,Single*%
G01*
G75*
%TA.AperFunction,NonConductor*%
%ADD44C,0.01575*%
%ADD45C,0.00787*%
%ADD46C,0.00984*%
%ADD47C,0.02362*%
%ADD48C,0.01500*%
%ADD49C,0.00700*%
%ADD50C,0.00800*%
%ADD51C,0.00500*%
%ADD52C,0.01000*%
G36*
X569861Y161902D02*
X562971D01*
Y174500D01*
X569861D01*
Y161902D01*
D02*
G37*
G36*
X466790Y162302D02*
X459900D01*
Y174900D01*
X466790D01*
Y162302D01*
D02*
G37*
G36*
X456790Y162402D02*
X449900D01*
Y175000D01*
X456790D01*
Y162402D01*
D02*
G37*
G36*
X559990Y161902D02*
X553100D01*
Y174500D01*
X559990D01*
Y161902D01*
D02*
G37*
G36*
X446890Y162402D02*
X440000D01*
Y175000D01*
X446890D01*
Y162402D01*
D02*
G37*
G36*
X580061Y161902D02*
X573171D01*
Y174500D01*
X580061D01*
Y161902D01*
D02*
G37*
G36*
X476390Y162402D02*
X469500D01*
Y175000D01*
X476390D01*
Y162402D01*
D02*
G37*
G36*
X589890Y161902D02*
X583000D01*
Y174500D01*
X589890D01*
Y161902D01*
D02*
G37*
%LPC*%
G36*
X568312Y170704D02*
X564528D01*
Y169941D01*
X568312D01*
Y170704D01*
D02*
G37*
G36*
X566447Y169367D02*
X566389D01*
X566225Y169363D01*
X566069Y169347D01*
X565922Y169322D01*
X565787Y169289D01*
X565659Y169252D01*
X565545Y169211D01*
X565438Y169166D01*
X565344Y169117D01*
X565258Y169072D01*
X565184Y169027D01*
X565118Y168986D01*
X565065Y168949D01*
X565024Y168916D01*
X564995Y168892D01*
X564979Y168875D01*
X564971Y168871D01*
X564880Y168773D01*
X564803Y168670D01*
X564733Y168564D01*
X564675Y168453D01*
X564626Y168342D01*
X564585Y168227D01*
X564548Y168121D01*
X564524Y168014D01*
X564499Y167916D01*
X564487Y167826D01*
X564474Y167739D01*
X564466Y167670D01*
X564462Y167612D01*
X564458Y167567D01*
Y169367D01*
Y165698D01*
X568374D01*
D01*
X566410D01*
X566578Y165702D01*
X566738Y165718D01*
X566885Y165743D01*
X567025Y165776D01*
X567152Y165813D01*
X567271Y165858D01*
X567381Y165903D01*
X567476Y165948D01*
X567566Y165997D01*
X567640Y166042D01*
X567705Y166083D01*
X567759Y166124D01*
X567800Y166157D01*
X567828Y166182D01*
X567849Y166198D01*
X567853Y166202D01*
X567943Y166300D01*
X568025Y166403D01*
X568095Y166509D01*
X568152Y166620D01*
X568205Y166735D01*
X568247Y166846D01*
X568279Y166952D01*
X568308Y167059D01*
X568329Y167157D01*
X568345Y167247D01*
X568357Y167330D01*
X568365Y167399D01*
X568369Y167457D01*
X568374Y167502D01*
Y167539D01*
X568365Y167707D01*
X568349Y167862D01*
X568337Y167932D01*
X568324Y168002D01*
X568312Y168063D01*
X568300Y168121D01*
X568283Y168174D01*
X568271Y168219D01*
X568259Y168260D01*
X568247Y168293D01*
X568234Y168318D01*
X568230Y168338D01*
X568222Y168350D01*
Y168354D01*
X568177Y168453D01*
X568123Y168543D01*
X568066Y168629D01*
X568009Y168699D01*
X567959Y168760D01*
X567939Y168785D01*
X567918Y168806D01*
X567902Y168822D01*
X567890Y168834D01*
X567886Y168842D01*
X567882Y168846D01*
X567791Y168924D01*
X567705Y168994D01*
X567615Y169056D01*
X567537Y169105D01*
X567463Y169142D01*
X567435Y169158D01*
X567410Y169170D01*
X567390Y169183D01*
X567373Y169191D01*
X567365Y169195D01*
X567361D01*
X567287Y169224D01*
X567205Y169252D01*
X567045Y169293D01*
X566881Y169326D01*
X566803Y169334D01*
X566729Y169347D01*
X566656Y169351D01*
X566594Y169359D01*
X566537Y169363D01*
X566488D01*
X566447Y169367D01*
D02*
G37*
%LPD*%
G36*
X566537Y168576D02*
X566647Y168568D01*
X566750Y168555D01*
X566844Y168535D01*
X566934Y168514D01*
X567012Y168490D01*
X567086Y168461D01*
X567152Y168437D01*
X567209Y168408D01*
X567258Y168383D01*
X567299Y168359D01*
X567332Y168338D01*
X567361Y168318D01*
X567377Y168305D01*
X567390Y168297D01*
X567394Y168293D01*
X567451Y168236D01*
X567500Y168178D01*
X567545Y168113D01*
X567582Y168051D01*
X567615Y167985D01*
X567644Y167924D01*
X567664Y167862D01*
X567681Y167801D01*
X567693Y167748D01*
X567705Y167694D01*
X567713Y167649D01*
X567718Y167608D01*
X567722Y167576D01*
Y167530D01*
X567718Y167444D01*
X567709Y167362D01*
X567693Y167284D01*
X567672Y167215D01*
X567648Y167145D01*
X567619Y167084D01*
X567591Y167026D01*
X567562Y166973D01*
X567529Y166928D01*
X567500Y166887D01*
X567472Y166854D01*
X567447Y166825D01*
X567426Y166801D01*
X567410Y166784D01*
X567402Y166776D01*
X567398Y166772D01*
X567336Y166723D01*
X567263Y166678D01*
X567189Y166641D01*
X567111Y166604D01*
X567033Y166579D01*
X566951Y166555D01*
X566869Y166534D01*
X566791Y166522D01*
X566717Y166509D01*
X566647Y166501D01*
X566586Y166493D01*
X566533Y166489D01*
X566488Y166485D01*
X566455D01*
X566434D01*
X566426D01*
X566307Y166489D01*
X566192Y166497D01*
X566090Y166514D01*
X565991Y166530D01*
X565905Y166555D01*
X565823Y166579D01*
X565750Y166604D01*
X565684Y166632D01*
X565627Y166661D01*
X565577Y166686D01*
X565532Y166710D01*
X565499Y166735D01*
X565471Y166751D01*
X565454Y166768D01*
X565442Y166776D01*
X565438Y166780D01*
X565381Y166838D01*
X565331Y166899D01*
X565286Y166961D01*
X565249Y167022D01*
X565217Y167084D01*
X565192Y167149D01*
X565167Y167207D01*
X565151Y167264D01*
X565139Y167321D01*
X565126Y167370D01*
X565118Y167416D01*
X565114Y167453D01*
Y167485D01*
X565110Y167510D01*
Y167530D01*
X565114Y167612D01*
X565126Y167694D01*
X565143Y167772D01*
X565163Y167842D01*
X565188Y167908D01*
X565217Y167969D01*
X565245Y168026D01*
X565278Y168080D01*
X565307Y168125D01*
X565336Y168166D01*
X565364Y168203D01*
X565389Y168231D01*
X565413Y168256D01*
X565430Y168272D01*
X565438Y168281D01*
X565442Y168285D01*
X565508Y168338D01*
X565582Y168383D01*
X565655Y168420D01*
X565733Y168457D01*
X565815Y168486D01*
X565897Y168506D01*
X565975Y168527D01*
X566053Y168543D01*
X566127Y168555D01*
X566196Y168564D01*
X566258Y168572D01*
X566311Y168576D01*
X566356D01*
X566389Y168580D01*
X566410D01*
X566418D01*
X566537Y168576D01*
D02*
G37*
G36*
X564462Y167379D02*
X564479Y167231D01*
X564507Y167096D01*
X564540Y166969D01*
X564577Y166850D01*
X564622Y166739D01*
X564667Y166641D01*
X564716Y166551D01*
X564766Y166469D01*
X564811Y166399D01*
X564856Y166337D01*
X564893Y166288D01*
X564925Y166247D01*
X564954Y166223D01*
X564971Y166202D01*
X564975Y166198D01*
X565077Y166108D01*
X565184Y166034D01*
X565299Y165964D01*
X565417Y165907D01*
X565536Y165862D01*
X565655Y165821D01*
X565774Y165788D01*
X565885Y165759D01*
X565991Y165739D01*
X566094Y165722D01*
X566180Y165714D01*
X566258Y165706D01*
X566324Y165702D01*
X566348Y165698D01*
X564458D01*
Y167530D01*
X564462Y167379D01*
D02*
G37*
%LPC*%
G36*
X465237Y171914D02*
X464597D01*
Y170790D01*
X461453D01*
Y170028D01*
X464597D01*
Y168912D01*
X461453D01*
Y170028D01*
D01*
Y168912D01*
D01*
X465237D01*
Y171914D01*
D02*
G37*
G36*
Y168806D02*
Y168683D01*
X463421Y167494D01*
X461453Y168806D01*
D01*
Y167892D01*
X462736Y167047D01*
X461453Y166206D01*
Y167494D01*
Y165288D01*
X465237D01*
D01*
X461453D01*
X463425Y166592D01*
X465237Y165403D01*
Y166288D01*
X464101Y167043D01*
X465237Y167789D01*
Y168806D01*
D02*
G37*
G36*
X455237Y172176D02*
X451453D01*
Y170556D01*
Y171413D01*
X453031D01*
Y171167D01*
X453023Y171089D01*
X453019Y171023D01*
X453011Y170970D01*
X453003Y170929D01*
X452994Y170900D01*
X452990Y170880D01*
X452986Y170876D01*
X452970Y170831D01*
X452945Y170790D01*
X452920Y170749D01*
X452892Y170716D01*
X452867Y170687D01*
X452851Y170663D01*
X452834Y170650D01*
X452830Y170646D01*
X452806Y170622D01*
X452773Y170597D01*
X452736Y170568D01*
X452695Y170536D01*
X452605Y170470D01*
X452510Y170400D01*
X452420Y170339D01*
X452383Y170310D01*
X452347Y170290D01*
X452318Y170269D01*
X452297Y170253D01*
X452281Y170244D01*
X452277Y170240D01*
X451453Y169687D01*
Y169732D01*
Y168772D01*
X452187Y169236D01*
X452269Y169285D01*
X452338Y169334D01*
X452408Y169379D01*
X452469Y169420D01*
X452527Y169457D01*
X452576Y169494D01*
X452621Y169527D01*
X452662Y169556D01*
X452695Y169580D01*
X452724Y169605D01*
X452748Y169625D01*
X452769Y169642D01*
X452781Y169654D01*
X452793Y169662D01*
X452802Y169670D01*
X452863Y169732D01*
X452925Y169802D01*
X452978Y169871D01*
X453023Y169937D01*
X453064Y169994D01*
X453093Y170039D01*
X453105Y170056D01*
X453109Y170068D01*
X453117Y170076D01*
Y170080D01*
X453134Y169990D01*
X453154Y169904D01*
X453179Y169826D01*
X453203Y169752D01*
X453232Y169683D01*
X453261Y169621D01*
X453290Y169568D01*
X453322Y169519D01*
X453351Y169474D01*
X453380Y169437D01*
X453404Y169404D01*
X453425Y169375D01*
X453445Y169355D01*
X453458Y169342D01*
X453466Y169334D01*
X453470Y169330D01*
X453523Y169285D01*
X453581Y169248D01*
X453638Y169215D01*
X453699Y169187D01*
X453757Y169162D01*
X453814Y169141D01*
X453929Y169113D01*
X453978Y169100D01*
X454028Y169092D01*
X454069Y169088D01*
X454105Y169084D01*
X454134Y169080D01*
X454155D01*
X454171D01*
X454175D01*
X454298Y169088D01*
X454409Y169105D01*
X454511Y169133D01*
X454597Y169162D01*
X454634Y169178D01*
X454671Y169195D01*
X454700Y169207D01*
X454725Y169223D01*
X454745Y169232D01*
X454757Y169240D01*
X454766Y169248D01*
X454770D01*
X454860Y169314D01*
X454938Y169387D01*
X454999Y169457D01*
X455053Y169527D01*
X455089Y169592D01*
X455102Y169617D01*
X455114Y169642D01*
X455122Y169662D01*
X455130Y169675D01*
X455134Y169683D01*
Y169687D01*
X455151Y169740D01*
X455167Y169802D01*
X455184Y169871D01*
X455192Y169941D01*
X455212Y170085D01*
X455225Y170232D01*
X455229Y170298D01*
X455233Y170363D01*
Y170421D01*
X455237Y170470D01*
Y172176D01*
D02*
G37*
G36*
Y168744D02*
X451453D01*
Y165226D01*
D01*
X453425Y166530D01*
X455237Y165341D01*
Y166226D01*
X454101Y166981D01*
X455237Y167727D01*
Y168621D01*
X453421Y167432D01*
X451453Y168744D01*
X455237D01*
D01*
D02*
G37*
%LPD*%
G36*
X454597Y170593D02*
X454593Y170536D01*
Y170437D01*
X454589Y170396D01*
Y170335D01*
X454585Y170314D01*
Y170281D01*
X454581Y170265D01*
Y170261D01*
X454565Y170195D01*
X454544Y170134D01*
X454524Y170085D01*
X454495Y170044D01*
X454474Y170011D01*
X454454Y169990D01*
X454437Y169974D01*
X454433Y169970D01*
X454384Y169937D01*
X454335Y169912D01*
X454286Y169892D01*
X454237Y169879D01*
X454191Y169871D01*
X454159Y169867D01*
X454134D01*
X454130D01*
X454126D01*
X454064Y169871D01*
X454007Y169879D01*
X453958Y169892D01*
X453917Y169904D01*
X453884Y169921D01*
X453859Y169933D01*
X453843Y169941D01*
X453839Y169945D01*
X453798Y169978D01*
X453765Y170011D01*
X453736Y170048D01*
X453716Y170085D01*
X453699Y170113D01*
X453687Y170138D01*
X453683Y170154D01*
X453679Y170162D01*
X453671Y170191D01*
X453663Y170232D01*
X453658Y170277D01*
X453654Y170326D01*
X453646Y170437D01*
X453638Y170556D01*
Y170667D01*
X453634Y170716D01*
Y171413D01*
X454597D01*
Y170593D01*
D02*
G37*
G36*
X452736Y166985D02*
X451453Y166144D01*
Y167830D01*
X452736Y166985D01*
D02*
G37*
%LPC*%
G36*
X558478Y172692D02*
D01*
Y171470D01*
X558474Y171585D01*
X558462Y171692D01*
X558441Y171790D01*
X558421Y171872D01*
X558408Y171909D01*
X558396Y171942D01*
X558388Y171971D01*
X558380Y171995D01*
X558371Y172016D01*
X558363Y172028D01*
X558359Y172036D01*
Y172040D01*
X558310Y172131D01*
X558257Y172208D01*
X558203Y172274D01*
X558150Y172327D01*
X558105Y172372D01*
X558064Y172405D01*
X558039Y172422D01*
X558035Y172430D01*
X558031D01*
X557949Y172479D01*
X557859Y172520D01*
X557769Y172557D01*
X557679Y172586D01*
X557601Y172610D01*
X557568Y172618D01*
X557539Y172627D01*
X557514Y172631D01*
X557498Y172635D01*
X557486Y172639D01*
X557482D01*
X557371Y171971D01*
X557457Y171954D01*
X557535Y171934D01*
X557596Y171909D01*
X557650Y171880D01*
X557691Y171852D01*
X557720Y171831D01*
X557740Y171815D01*
X557744Y171811D01*
X557789Y171757D01*
X557822Y171704D01*
X557842Y171651D01*
X557859Y171602D01*
X557867Y171557D01*
X557875Y171524D01*
Y171491D01*
X557871Y171421D01*
X557859Y171360D01*
X557838Y171311D01*
X557818Y171265D01*
X557797Y171229D01*
X557777Y171204D01*
X557765Y171188D01*
X557760Y171184D01*
X557715Y171147D01*
X557666Y171118D01*
X557613Y171097D01*
X557568Y171081D01*
X557523Y171073D01*
X557490Y171069D01*
X557465D01*
X557461D01*
X557457D01*
X557375Y171077D01*
X557305Y171093D01*
X557244Y171118D01*
X557191Y171147D01*
X557150Y171179D01*
X557121Y171204D01*
X557104Y171220D01*
X557096Y171229D01*
X557055Y171294D01*
X557022Y171364D01*
X556998Y171438D01*
X556986Y171511D01*
X556977Y171577D01*
Y171606D01*
X556973Y171630D01*
Y171680D01*
X556383Y171757D01*
X556403Y171688D01*
X556416Y171622D01*
X556428Y171569D01*
X556432Y171520D01*
X556436Y171479D01*
X556440Y171450D01*
Y171425D01*
X556432Y171347D01*
X556416Y171278D01*
X556387Y171216D01*
X556358Y171163D01*
X556330Y171122D01*
X556301Y171089D01*
X556285Y171073D01*
X556276Y171065D01*
X556211Y171015D01*
X556141Y170978D01*
X556067Y170954D01*
X555998Y170933D01*
X555936Y170925D01*
X555911Y170921D01*
X555887D01*
X555866Y170917D01*
X555854D01*
X555846D01*
X555842D01*
X555739Y170925D01*
X555649Y170942D01*
X555571Y170966D01*
X555506Y170995D01*
X555452Y171024D01*
X555415Y171048D01*
X555391Y171065D01*
X555382Y171073D01*
X555325Y171134D01*
X555284Y171200D01*
X555255Y171261D01*
X555235Y171323D01*
X555223Y171376D01*
X555219Y171417D01*
X555214Y171434D01*
Y171454D01*
X555219Y171528D01*
X555235Y171598D01*
X555260Y171659D01*
X555284Y171712D01*
X555309Y171753D01*
X555333Y171786D01*
X555350Y171803D01*
X555354Y171811D01*
X555411Y171860D01*
X555481Y171901D01*
X555547Y171934D01*
X555616Y171954D01*
X555674Y171975D01*
X555723Y171983D01*
X555743Y171987D01*
X555756Y171991D01*
X555764D01*
X555768D01*
X555682Y172692D01*
X555596Y172680D01*
X555510Y172660D01*
X555432Y172635D01*
X555358Y172610D01*
X555288Y172578D01*
X555227Y172545D01*
X555169Y172512D01*
X555116Y172479D01*
X555067Y172442D01*
X555026Y172414D01*
X554989Y172381D01*
X554960Y172356D01*
X554936Y172336D01*
X554919Y172319D01*
X554911Y172307D01*
X554907Y172303D01*
X554854Y172237D01*
X554809Y172168D01*
X554772Y172098D01*
X554735Y172024D01*
X554706Y171954D01*
X554685Y171885D01*
X554665Y171815D01*
X554649Y171749D01*
X554636Y171688D01*
X554628Y171630D01*
X554620Y171577D01*
X554616Y171536D01*
Y171499D01*
X554612Y171475D01*
Y171450D01*
X554616Y171352D01*
X554628Y171253D01*
X554644Y171163D01*
X554665Y171077D01*
X554694Y170999D01*
X554722Y170921D01*
X554755Y170851D01*
X554788Y170790D01*
X554817Y170732D01*
X554849Y170683D01*
X554878Y170642D01*
X554907Y170605D01*
X554927Y170577D01*
X554944Y170556D01*
X554956Y170544D01*
X554960Y170540D01*
X555030Y170474D01*
X555100Y170421D01*
X555169Y170372D01*
X555243Y170331D01*
X555313Y170294D01*
X555382Y170265D01*
X555452Y170240D01*
X555518Y170220D01*
X555579Y170204D01*
X555633Y170195D01*
X555682Y170187D01*
X555727Y170179D01*
X555760D01*
X555788Y170175D01*
X555809D01*
X558478D01*
X555809D01*
X555870Y170179D01*
X555932Y170183D01*
X556047Y170204D01*
X556145Y170236D01*
X556231Y170273D01*
X556268Y170290D01*
X556301Y170310D01*
X556330Y170327D01*
X556354Y170339D01*
X556371Y170355D01*
X556383Y170363D01*
X556391Y170368D01*
X556395Y170372D01*
X556440Y170409D01*
X556481Y170450D01*
X556547Y170532D01*
X556604Y170618D01*
X556645Y170704D01*
X556674Y170773D01*
X556686Y170806D01*
X556695Y170835D01*
X556703Y170855D01*
X556707Y170872D01*
X556711Y170884D01*
Y170888D01*
X556768Y170794D01*
X556830Y170708D01*
X556895Y170634D01*
X556961Y170573D01*
X557027Y170519D01*
X557092Y170474D01*
X557158Y170441D01*
X557219Y170413D01*
X557277Y170388D01*
X557334Y170372D01*
X557383Y170359D01*
X557424Y170351D01*
X557457Y170347D01*
X557486Y170343D01*
X557502D01*
X557506D01*
X557572Y170347D01*
X557633Y170355D01*
X557695Y170368D01*
X557752Y170384D01*
X557859Y170429D01*
X557949Y170478D01*
X557990Y170503D01*
X558027Y170528D01*
X558060Y170552D01*
X558084Y170573D01*
X558105Y170589D01*
X558121Y170601D01*
X558130Y170609D01*
X558134Y170614D01*
X558195Y170675D01*
X558248Y170741D01*
X558293Y170810D01*
X558334Y170884D01*
X558367Y170954D01*
X558396Y171024D01*
X558417Y171093D01*
X558437Y171163D01*
X558449Y171224D01*
X558462Y171282D01*
X558466Y171335D01*
X558474Y171380D01*
Y171417D01*
X558478Y171446D01*
Y170175D01*
D01*
Y172692D01*
D02*
G37*
%LPD*%
G36*
X555809Y170175D02*
D01*
D01*
D01*
D02*
G37*
%LPC*%
G36*
X558466Y169949D02*
D01*
X554681Y168600D01*
Y167780D01*
X558466Y166428D01*
X554681D01*
X558466D01*
Y169949D01*
D02*
G37*
G36*
X555682Y166227D02*
X555596Y166214D01*
X555510Y166194D01*
X555432Y166169D01*
X555358Y166145D01*
X555288Y166112D01*
X555227Y166079D01*
X555169Y166046D01*
X555116Y166013D01*
X555067Y165977D01*
X555026Y165948D01*
X554989Y165915D01*
X554960Y165890D01*
X554936Y165870D01*
X554919Y165854D01*
X554911Y165841D01*
X554907Y165837D01*
X554854Y165771D01*
X554809Y165702D01*
X554772Y165632D01*
X554735Y165558D01*
X554706Y165489D01*
X554685Y165419D01*
X554665Y165349D01*
X554649Y165284D01*
X554636Y165222D01*
X554628Y165165D01*
X554620Y165111D01*
X554616Y165070D01*
Y165033D01*
X554612Y165009D01*
Y164984D01*
X554616Y164886D01*
X554628Y164787D01*
X554644Y164697D01*
X554665Y164611D01*
X554694Y164533D01*
X554722Y164455D01*
X554755Y164386D01*
X554788Y164324D01*
X554817Y164267D01*
X554849Y164218D01*
X554878Y164177D01*
X554907Y164140D01*
X554927Y164111D01*
X554944Y164091D01*
X554956Y164078D01*
X554960Y164074D01*
X555030Y164008D01*
X555100Y163955D01*
X555169Y163906D01*
X555243Y163865D01*
X555313Y163828D01*
X555382Y163799D01*
X555452Y163775D01*
X555518Y163754D01*
X555579Y163738D01*
X555633Y163730D01*
X555682Y163722D01*
X555727Y163713D01*
X555760D01*
X555788Y163709D01*
X554612D01*
X558478D01*
X555809D01*
X555870Y163713D01*
X555932Y163717D01*
X556047Y163738D01*
X556145Y163771D01*
X556231Y163808D01*
X556268Y163824D01*
X556301Y163845D01*
X556330Y163861D01*
X556354Y163873D01*
X556371Y163890D01*
X556383Y163898D01*
X556391Y163902D01*
X556395Y163906D01*
X556440Y163943D01*
X556481Y163984D01*
X556547Y164066D01*
X556604Y164152D01*
X556645Y164238D01*
X556674Y164308D01*
X556686Y164341D01*
X556695Y164369D01*
X556703Y164390D01*
X556707Y164406D01*
X556711Y164418D01*
Y164423D01*
X556768Y164328D01*
X556830Y164242D01*
X556895Y164168D01*
X556961Y164107D01*
X557027Y164054D01*
X557092Y164008D01*
X557158Y163976D01*
X557219Y163947D01*
X557277Y163922D01*
X557334Y163906D01*
X557383Y163894D01*
X557424Y163885D01*
X557457Y163881D01*
X557486Y163877D01*
X557502D01*
X557506D01*
X557572Y163881D01*
X557633Y163890D01*
X557695Y163902D01*
X557752Y163918D01*
X557859Y163963D01*
X557949Y164013D01*
X557990Y164037D01*
X558027Y164062D01*
X558060Y164086D01*
X558084Y164107D01*
X558105Y164123D01*
X558121Y164136D01*
X558130Y164144D01*
X558134Y164148D01*
X558195Y164209D01*
X558248Y164275D01*
X558293Y164345D01*
X558334Y164418D01*
X558367Y164488D01*
X558396Y164558D01*
X558417Y164628D01*
X558437Y164697D01*
X558449Y164759D01*
X558462Y164816D01*
X558466Y164869D01*
X558474Y164915D01*
Y164952D01*
X558478Y164980D01*
Y165005D01*
X558474Y165120D01*
X558462Y165226D01*
X558441Y165325D01*
X558421Y165407D01*
X558408Y165444D01*
X558396Y165476D01*
X558388Y165505D01*
X558380Y165530D01*
X558371Y165550D01*
X558363Y165562D01*
X558359Y165571D01*
Y165575D01*
X558310Y165665D01*
X558257Y165743D01*
X558203Y165808D01*
X558150Y165862D01*
X558105Y165907D01*
X558064Y165940D01*
X558039Y165956D01*
X558035Y165964D01*
X558031D01*
X557949Y166013D01*
X557859Y166054D01*
X557769Y166091D01*
X557679Y166120D01*
X557601Y166145D01*
X557568Y166153D01*
X557539Y166161D01*
X557514Y166165D01*
X557498Y166169D01*
X557486Y166173D01*
X557482D01*
X557371Y165505D01*
X557457Y165489D01*
X557535Y165468D01*
X557596Y165444D01*
X557650Y165415D01*
X557691Y165386D01*
X557720Y165366D01*
X557740Y165349D01*
X557744Y165345D01*
X557789Y165292D01*
X557822Y165238D01*
X557842Y165185D01*
X557859Y165136D01*
X557867Y165091D01*
X557875Y165058D01*
Y165025D01*
X557871Y164956D01*
X557859Y164894D01*
X557838Y164845D01*
X557818Y164800D01*
X557797Y164763D01*
X557777Y164738D01*
X557765Y164722D01*
X557760Y164718D01*
X557715Y164681D01*
X557666Y164652D01*
X557613Y164632D01*
X557568Y164615D01*
X557523Y164607D01*
X557490Y164603D01*
X557465D01*
X557461D01*
X557457D01*
X557375Y164611D01*
X557305Y164628D01*
X557244Y164652D01*
X557191Y164681D01*
X557150Y164714D01*
X557121Y164738D01*
X557104Y164755D01*
X557096Y164763D01*
X557055Y164829D01*
X557022Y164898D01*
X556998Y164972D01*
X556986Y165046D01*
X556977Y165111D01*
Y165140D01*
X556973Y165165D01*
Y165214D01*
X556383Y165292D01*
X556403Y165222D01*
X556416Y165156D01*
X556428Y165103D01*
X556432Y165054D01*
X556436Y165013D01*
X556440Y164984D01*
Y164960D01*
X556432Y164882D01*
X556416Y164812D01*
X556387Y164751D01*
X556358Y164697D01*
X556330Y164656D01*
X556301Y164623D01*
X556285Y164607D01*
X556276Y164599D01*
X556211Y164550D01*
X556141Y164513D01*
X556067Y164488D01*
X555998Y164468D01*
X555936Y164460D01*
X555911Y164455D01*
X555887D01*
X555866Y164451D01*
X555854D01*
X555846D01*
X555842D01*
X555739Y164460D01*
X555649Y164476D01*
X555571Y164500D01*
X555506Y164529D01*
X555452Y164558D01*
X555415Y164583D01*
X555391Y164599D01*
X555382Y164607D01*
X555325Y164669D01*
X555284Y164734D01*
X555255Y164796D01*
X555235Y164857D01*
X555223Y164910D01*
X555219Y164952D01*
X555214Y164968D01*
Y164988D01*
X555219Y165062D01*
X555235Y165132D01*
X555260Y165193D01*
X555284Y165247D01*
X555309Y165288D01*
X555333Y165321D01*
X555350Y165337D01*
X555354Y165345D01*
X555411Y165394D01*
X555481Y165435D01*
X555547Y165468D01*
X555616Y165489D01*
X555674Y165509D01*
X555723Y165517D01*
X555743Y165521D01*
X555756Y165525D01*
X555764D01*
X555768D01*
X555682Y166227D01*
D02*
G37*
%LPD*%
G36*
X558466Y167239D02*
X555665Y168166D01*
X558466Y169125D01*
Y167239D01*
D02*
G37*
%LPC*%
G36*
X442582Y173192D02*
X442496Y173180D01*
X442410Y173160D01*
X442332Y173135D01*
X442258Y173110D01*
X442188Y173077D01*
X442127Y173045D01*
X442069Y173012D01*
X442016Y172979D01*
X441967Y172942D01*
X441926Y172914D01*
X441889Y172881D01*
X441860Y172856D01*
X441836Y172836D01*
X441819Y172819D01*
X441811Y172807D01*
X441807Y172803D01*
X441754Y172737D01*
X441709Y172668D01*
X441672Y172598D01*
X441635Y172524D01*
X441606Y172454D01*
X441585Y172385D01*
X441565Y172315D01*
X441549Y172249D01*
X441536Y172188D01*
X441528Y172130D01*
X441520Y172077D01*
X441516Y172036D01*
Y171999D01*
X441512Y171975D01*
Y171950D01*
X441516Y171852D01*
X441528Y171753D01*
X441544Y171663D01*
X441565Y171577D01*
X441594Y171499D01*
X441622Y171421D01*
X441655Y171351D01*
X441688Y171290D01*
X441717Y171232D01*
X441749Y171183D01*
X441778Y171142D01*
X441807Y171105D01*
X441827Y171077D01*
X441844Y171056D01*
X441856Y171044D01*
X441860Y171040D01*
X441930Y170974D01*
X442000Y170921D01*
X442069Y170872D01*
X442143Y170831D01*
X442213Y170794D01*
X442282Y170765D01*
X442352Y170740D01*
X442418Y170720D01*
X442479Y170704D01*
X442533Y170695D01*
X442582Y170687D01*
X442627Y170679D01*
X442660D01*
X442688Y170675D01*
X442709D01*
X445378D01*
X442709D01*
X442770Y170679D01*
X442832Y170683D01*
X442947Y170704D01*
X443045Y170736D01*
X443131Y170773D01*
X443168Y170790D01*
X443201Y170810D01*
X443230Y170827D01*
X443254Y170839D01*
X443271Y170855D01*
X443283Y170863D01*
X443291Y170868D01*
X443295Y170872D01*
X443340Y170909D01*
X443381Y170950D01*
X443447Y171032D01*
X443504Y171118D01*
X443545Y171204D01*
X443574Y171274D01*
X443586Y171306D01*
X443595Y171335D01*
X443603Y171355D01*
X443607Y171372D01*
X443611Y171384D01*
Y171388D01*
X443668Y171294D01*
X443730Y171208D01*
X443795Y171134D01*
X443861Y171073D01*
X443927Y171019D01*
X443992Y170974D01*
X444058Y170941D01*
X444119Y170913D01*
X444177Y170888D01*
X444234Y170872D01*
X444283Y170859D01*
X444324Y170851D01*
X444357Y170847D01*
X444386Y170843D01*
X444402D01*
X444406D01*
X444472Y170847D01*
X444533Y170855D01*
X444595Y170868D01*
X444652Y170884D01*
X444759Y170929D01*
X444849Y170978D01*
X444890Y171003D01*
X444927Y171028D01*
X444960Y171052D01*
X444984Y171073D01*
X445005Y171089D01*
X445021Y171101D01*
X445029Y171109D01*
X445034Y171114D01*
X445095Y171175D01*
X445148Y171241D01*
X445193Y171310D01*
X445234Y171384D01*
X445267Y171454D01*
X445296Y171524D01*
X445317Y171593D01*
X445337Y171663D01*
X445349Y171724D01*
X445362Y171782D01*
X445366Y171835D01*
X445374Y171880D01*
Y171917D01*
X445378Y171946D01*
Y171970D01*
X445374Y172085D01*
X445362Y172192D01*
X445341Y172290D01*
X445321Y172372D01*
X445308Y172409D01*
X445296Y172442D01*
X445288Y172471D01*
X445280Y172495D01*
X445271Y172516D01*
X445263Y172528D01*
X445259Y172536D01*
Y172540D01*
X445210Y172631D01*
X445157Y172708D01*
X445103Y172774D01*
X445050Y172827D01*
X445005Y172872D01*
X444964Y172905D01*
X444939Y172922D01*
X444935Y172930D01*
X444931D01*
X444849Y172979D01*
X444759Y173020D01*
X444669Y173057D01*
X444579Y173086D01*
X444501Y173110D01*
X444468Y173118D01*
X444439Y173127D01*
X444415Y173131D01*
X444398Y173135D01*
X444386Y173139D01*
X444382D01*
X444271Y172471D01*
X444357Y172454D01*
X444435Y172434D01*
X444496Y172409D01*
X444550Y172380D01*
X444591Y172352D01*
X444620Y172331D01*
X444640Y172315D01*
X444644Y172311D01*
X444689Y172257D01*
X444722Y172204D01*
X444742Y172151D01*
X444759Y172102D01*
X444767Y172057D01*
X444775Y172024D01*
Y171991D01*
X444771Y171921D01*
X444759Y171860D01*
X444738Y171811D01*
X444718Y171765D01*
X444697Y171729D01*
X444677Y171704D01*
X444665Y171688D01*
X444661Y171684D01*
X444615Y171647D01*
X444566Y171618D01*
X444513Y171597D01*
X444468Y171581D01*
X444423Y171573D01*
X444390Y171569D01*
X444365D01*
X444361D01*
X444357D01*
X444275Y171577D01*
X444205Y171593D01*
X444144Y171618D01*
X444091Y171647D01*
X444050Y171679D01*
X444021Y171704D01*
X444004Y171720D01*
X443996Y171729D01*
X443955Y171794D01*
X443923Y171864D01*
X443898Y171938D01*
X443886Y172011D01*
X443877Y172077D01*
Y172106D01*
X443873Y172130D01*
Y172180D01*
X443283Y172257D01*
X443303Y172188D01*
X443316Y172122D01*
X443328Y172069D01*
X443332Y172020D01*
X443336Y171979D01*
X443340Y171950D01*
Y171925D01*
X443332Y171847D01*
X443316Y171778D01*
X443287Y171716D01*
X443258Y171663D01*
X443230Y171622D01*
X443201Y171589D01*
X443185Y171573D01*
X443176Y171565D01*
X443111Y171515D01*
X443041Y171478D01*
X442967Y171454D01*
X442898Y171433D01*
X442836Y171425D01*
X442811Y171421D01*
X442787D01*
X442766Y171417D01*
X442754D01*
X442746D01*
X442742D01*
X442639Y171425D01*
X442549Y171442D01*
X442471Y171466D01*
X442406Y171495D01*
X442352Y171524D01*
X442315Y171548D01*
X442291Y171565D01*
X442282Y171573D01*
X442225Y171634D01*
X442184Y171700D01*
X442155Y171761D01*
X442135Y171823D01*
X442123Y171876D01*
X442119Y171917D01*
X442114Y171934D01*
Y171954D01*
X442119Y172028D01*
X442135Y172098D01*
X442160Y172159D01*
X442184Y172212D01*
X442209Y172253D01*
X442233Y172286D01*
X442250Y172303D01*
X442254Y172311D01*
X442311Y172360D01*
X442381Y172401D01*
X442447Y172434D01*
X442516Y172454D01*
X442574Y172475D01*
X442623Y172483D01*
X442643Y172487D01*
X442656Y172491D01*
X442664D01*
X442668D01*
X442582Y173192D01*
D02*
G37*
%LPD*%
G36*
X442709Y170675D02*
D01*
D01*
D01*
D02*
G37*
%LPC*%
G36*
X445366Y170449D02*
X441581Y169100D01*
Y168280D01*
X445366Y166928D01*
Y167739D01*
X442565Y168666D01*
X445366Y169625D01*
Y170449D01*
D02*
G37*
G36*
X442582Y166727D02*
X442496Y166714D01*
X442410Y166694D01*
X442332Y166669D01*
X442258Y166645D01*
X442188Y166612D01*
X442127Y166579D01*
X442069Y166546D01*
X442016Y166513D01*
X441967Y166477D01*
X441926Y166448D01*
X441889Y166415D01*
X441860Y166390D01*
X441836Y166370D01*
X441819Y166353D01*
X441811Y166341D01*
X441807Y166337D01*
X441754Y166271D01*
X441709Y166202D01*
X441672Y166132D01*
X441635Y166058D01*
X441606Y165989D01*
X441585Y165919D01*
X441565Y165849D01*
X441549Y165784D01*
X441536Y165722D01*
X441528Y165665D01*
X441520Y165611D01*
X441516Y165570D01*
Y165533D01*
X441512Y165509D01*
Y165484D01*
X441516Y165386D01*
X441528Y165287D01*
X441544Y165197D01*
X441565Y165111D01*
X441594Y165033D01*
X441622Y164955D01*
X441655Y164886D01*
X441688Y164824D01*
X441717Y164767D01*
X441749Y164718D01*
X441778Y164677D01*
X441807Y164640D01*
X441827Y164611D01*
X441844Y164591D01*
X441856Y164578D01*
X441860Y164574D01*
X441930Y164508D01*
X442000Y164455D01*
X442069Y164406D01*
X442143Y164365D01*
X442213Y164328D01*
X442282Y164299D01*
X442352Y164275D01*
X442418Y164254D01*
X442479Y164238D01*
X442533Y164230D01*
X442582Y164222D01*
X442627Y164213D01*
X442660D01*
X442688Y164209D01*
X441512D01*
X445378D01*
X442709D01*
X442770Y164213D01*
X442832Y164217D01*
X442947Y164238D01*
X443045Y164271D01*
X443131Y164308D01*
X443168Y164324D01*
X443201Y164345D01*
X443230Y164361D01*
X443254Y164373D01*
X443271Y164390D01*
X443283Y164398D01*
X443291Y164402D01*
X443295Y164406D01*
X443340Y164443D01*
X443381Y164484D01*
X443447Y164566D01*
X443504Y164652D01*
X443545Y164738D01*
X443574Y164808D01*
X443586Y164841D01*
X443595Y164869D01*
X443603Y164890D01*
X443607Y164906D01*
X443611Y164918D01*
Y164923D01*
X443668Y164828D01*
X443730Y164742D01*
X443795Y164668D01*
X443861Y164607D01*
X443927Y164554D01*
X443992Y164508D01*
X444058Y164476D01*
X444119Y164447D01*
X444177Y164422D01*
X444234Y164406D01*
X444283Y164394D01*
X444324Y164385D01*
X444357Y164381D01*
X444386Y164377D01*
X444402D01*
X444406D01*
X444472Y164381D01*
X444533Y164390D01*
X444595Y164402D01*
X444652Y164418D01*
X444759Y164463D01*
X444849Y164513D01*
X444890Y164537D01*
X444927Y164562D01*
X444960Y164586D01*
X444984Y164607D01*
X445005Y164623D01*
X445021Y164636D01*
X445029Y164644D01*
X445034Y164648D01*
X445095Y164709D01*
X445148Y164775D01*
X445193Y164845D01*
X445234Y164918D01*
X445267Y164988D01*
X445296Y165058D01*
X445317Y165128D01*
X445337Y165197D01*
X445349Y165259D01*
X445362Y165316D01*
X445366Y165369D01*
X445374Y165415D01*
Y165452D01*
X445378Y165480D01*
Y165505D01*
X445374Y165620D01*
X445362Y165726D01*
X445341Y165825D01*
X445321Y165907D01*
X445308Y165944D01*
X445296Y165976D01*
X445288Y166005D01*
X445280Y166030D01*
X445271Y166050D01*
X445263Y166062D01*
X445259Y166071D01*
Y166075D01*
X445210Y166165D01*
X445157Y166243D01*
X445103Y166308D01*
X445050Y166362D01*
X445005Y166407D01*
X444964Y166440D01*
X444939Y166456D01*
X444935Y166464D01*
X444931D01*
X444849Y166513D01*
X444759Y166554D01*
X444669Y166591D01*
X444579Y166620D01*
X444501Y166645D01*
X444468Y166653D01*
X444439Y166661D01*
X444415Y166665D01*
X444398Y166669D01*
X444386Y166673D01*
X444382D01*
X444271Y166005D01*
X444357Y165989D01*
X444435Y165968D01*
X444496Y165944D01*
X444550Y165915D01*
X444591Y165886D01*
X444620Y165866D01*
X444640Y165849D01*
X444644Y165845D01*
X444689Y165792D01*
X444722Y165738D01*
X444742Y165685D01*
X444759Y165636D01*
X444767Y165591D01*
X444775Y165558D01*
Y165525D01*
X444771Y165456D01*
X444759Y165394D01*
X444738Y165345D01*
X444718Y165300D01*
X444697Y165263D01*
X444677Y165238D01*
X444665Y165222D01*
X444661Y165218D01*
X444615Y165181D01*
X444566Y165152D01*
X444513Y165132D01*
X444468Y165115D01*
X444423Y165107D01*
X444390Y165103D01*
X444365D01*
X444361D01*
X444357D01*
X444275Y165111D01*
X444205Y165128D01*
X444144Y165152D01*
X444091Y165181D01*
X444050Y165214D01*
X444021Y165238D01*
X444004Y165255D01*
X443996Y165263D01*
X443955Y165329D01*
X443923Y165398D01*
X443898Y165472D01*
X443886Y165546D01*
X443877Y165611D01*
Y165640D01*
X443873Y165665D01*
Y165714D01*
X443283Y165792D01*
X443303Y165722D01*
X443316Y165656D01*
X443328Y165603D01*
X443332Y165554D01*
X443336Y165513D01*
X443340Y165484D01*
Y165460D01*
X443332Y165382D01*
X443316Y165312D01*
X443287Y165251D01*
X443258Y165197D01*
X443230Y165156D01*
X443201Y165123D01*
X443185Y165107D01*
X443176Y165099D01*
X443111Y165050D01*
X443041Y165013D01*
X442967Y164988D01*
X442898Y164968D01*
X442836Y164960D01*
X442811Y164955D01*
X442787D01*
X442766Y164951D01*
X442754D01*
X442746D01*
X442742D01*
X442639Y164960D01*
X442549Y164976D01*
X442471Y165000D01*
X442406Y165029D01*
X442352Y165058D01*
X442315Y165083D01*
X442291Y165099D01*
X442282Y165107D01*
X442225Y165169D01*
X442184Y165234D01*
X442155Y165296D01*
X442135Y165357D01*
X442123Y165410D01*
X442119Y165452D01*
X442114Y165468D01*
Y165488D01*
X442119Y165562D01*
X442135Y165632D01*
X442160Y165693D01*
X442184Y165747D01*
X442209Y165788D01*
X442233Y165821D01*
X442250Y165837D01*
X442254Y165845D01*
X442311Y165894D01*
X442381Y165935D01*
X442447Y165968D01*
X442516Y165989D01*
X442574Y166009D01*
X442623Y166017D01*
X442643Y166021D01*
X442656Y166025D01*
X442664D01*
X442668D01*
X442582Y166727D01*
D02*
G37*
G36*
X576645Y173500D02*
X576579D01*
X576415Y173496D01*
X576263Y173479D01*
X576120Y173455D01*
X575984Y173426D01*
X575857Y173389D01*
X575743Y173348D01*
X575636Y173303D01*
X575542Y173258D01*
X575456Y173213D01*
X575382Y173168D01*
X575320Y173127D01*
X575267Y173090D01*
X575226Y173061D01*
X575197Y173037D01*
X575177Y173020D01*
X575173Y173016D01*
X575082Y172922D01*
X575005Y172824D01*
X574935Y172721D01*
X574878Y172618D01*
X574828Y172516D01*
X574787Y172414D01*
X574750Y172311D01*
X574726Y172217D01*
X574701Y172126D01*
X574689Y172040D01*
X574677Y171967D01*
X574668Y171905D01*
X574664Y171852D01*
X574660Y171811D01*
Y173500D01*
Y170204D01*
D01*
Y171778D01*
X574664Y171667D01*
X574673Y171561D01*
X574689Y171458D01*
X574705Y171364D01*
X574730Y171274D01*
X574754Y171192D01*
X574783Y171114D01*
X574812Y171048D01*
X574836Y170983D01*
X574865Y170929D01*
X574890Y170884D01*
X574914Y170843D01*
X574931Y170815D01*
X574947Y170790D01*
X574955Y170778D01*
X574960Y170773D01*
X575021Y170700D01*
X575087Y170634D01*
X575156Y170573D01*
X575234Y170515D01*
X575308Y170466D01*
X575386Y170417D01*
X575464Y170376D01*
X575538Y170339D01*
X575607Y170306D01*
X575673Y170277D01*
X575734Y170257D01*
X575784Y170236D01*
X575829Y170220D01*
X575857Y170212D01*
X575878Y170204D01*
X575886D01*
X576116Y170946D01*
X576042Y170966D01*
X575968Y170987D01*
X575903Y171011D01*
X575845Y171036D01*
X575788Y171065D01*
X575738Y171089D01*
X575693Y171118D01*
X575652Y171142D01*
X575620Y171167D01*
X575587Y171192D01*
X575562Y171212D01*
X575542Y171229D01*
X575525Y171245D01*
X575513Y171257D01*
X575509Y171261D01*
X575505Y171265D01*
X575472Y171307D01*
X575443Y171352D01*
X575394Y171438D01*
X575361Y171524D01*
X575337Y171606D01*
X575324Y171680D01*
X575316Y171708D01*
Y171737D01*
X575312Y171757D01*
Y171786D01*
X575316Y171860D01*
X575324Y171934D01*
X575341Y172003D01*
X575361Y172065D01*
X575382Y172126D01*
X575406Y172180D01*
X575435Y172233D01*
X575464Y172278D01*
X575492Y172319D01*
X575521Y172356D01*
X575546Y172385D01*
X575566Y172414D01*
X575587Y172430D01*
X575603Y172446D01*
X575611Y172455D01*
X575616Y172459D01*
X575677Y172504D01*
X575747Y172541D01*
X575820Y172578D01*
X575903Y172606D01*
X575989Y172631D01*
X576071Y172651D01*
X576239Y172680D01*
X576321Y172692D01*
X576395Y172701D01*
X576460Y172705D01*
X576522Y172709D01*
X576567Y172713D01*
X576604D01*
X576628D01*
X576636D01*
X576759Y172709D01*
X576874Y172701D01*
X576977Y172688D01*
X577075Y172672D01*
X577165Y172651D01*
X577243Y172631D01*
X577317Y172606D01*
X577379Y172582D01*
X577436Y172561D01*
X577485Y172537D01*
X577526Y172516D01*
X577559Y172495D01*
X577584Y172479D01*
X577604Y172467D01*
X577612Y172459D01*
X577616Y172455D01*
X577670Y172405D01*
X577715Y172348D01*
X577756Y172295D01*
X577793Y172237D01*
X577821Y172180D01*
X577846Y172122D01*
X577866Y172065D01*
X577883Y172012D01*
X577895Y171962D01*
X577903Y171917D01*
X577912Y171876D01*
X577916Y171839D01*
X577920Y171811D01*
Y171770D01*
X577912Y171659D01*
X577891Y171561D01*
X577866Y171475D01*
X577834Y171397D01*
X577801Y171335D01*
X577788Y171311D01*
X577776Y171290D01*
X577764Y171274D01*
X577756Y171261D01*
X577752Y171257D01*
X577747Y171253D01*
X577678Y171179D01*
X577604Y171118D01*
X577526Y171069D01*
X577452Y171032D01*
X577387Y171003D01*
X577358Y170991D01*
X577333Y170983D01*
X577313Y170978D01*
X577296Y170974D01*
X577288Y170970D01*
X577284D01*
X577465Y170216D01*
X577547Y170240D01*
X577625Y170269D01*
X577694Y170302D01*
X577764Y170331D01*
X577825Y170363D01*
X577883Y170396D01*
X577932Y170429D01*
X577981Y170458D01*
X578022Y170491D01*
X578059Y170515D01*
X578088Y170540D01*
X578112Y170564D01*
X578133Y170581D01*
X578145Y170593D01*
X578153Y170601D01*
X578158Y170605D01*
X578231Y170692D01*
X578293Y170778D01*
X578350Y170872D01*
X578395Y170966D01*
X578436Y171061D01*
X578469Y171155D01*
X578498Y171245D01*
X578518Y171331D01*
X578539Y171413D01*
X578551Y171491D01*
X578559Y171561D01*
X578563Y171618D01*
X578568Y171667D01*
X578572Y171700D01*
Y171733D01*
X578568Y171876D01*
X578551Y172016D01*
X578522Y172147D01*
X578490Y172270D01*
X578449Y172385D01*
X578408Y172487D01*
X578358Y172586D01*
X578309Y172672D01*
X578260Y172750D01*
X578215Y172819D01*
X578170Y172877D01*
X578129Y172926D01*
X578096Y172967D01*
X578071Y172992D01*
X578051Y173012D01*
X578047Y173016D01*
X577944Y173102D01*
X577834Y173176D01*
X577719Y173242D01*
X577600Y173295D01*
X577477Y173344D01*
X577354Y173381D01*
X577235Y173414D01*
X577116Y173439D01*
X577009Y173459D01*
X576907Y173475D01*
X576813Y173484D01*
X576735Y173492D01*
X576669Y173496D01*
X576645Y173500D01*
D02*
G37*
G36*
X578477Y169527D02*
X574726D01*
Y166866D01*
X578477D01*
D01*
X575365D01*
Y168764D01*
X578477D01*
Y169527D01*
D02*
G37*
G36*
X578510Y166313D02*
X574726D01*
Y162901D01*
X578510D01*
D01*
X574726D01*
X577038Y164406D01*
X578510Y162975D01*
Y164004D01*
X576829Y165550D01*
X578510D01*
Y166313D01*
D02*
G37*
%LPD*%
G36*
X576501Y164935D02*
X574726Y163890D01*
Y165550D01*
X575866D01*
X576501Y164935D01*
D02*
G37*
%LPC*%
G36*
X474903Y174316D02*
X470987D01*
D01*
X472955D01*
X472853Y174312D01*
X472754Y174308D01*
X472660Y174295D01*
X472566Y174283D01*
X472479Y174262D01*
X472398Y174246D01*
X472320Y174225D01*
X472246Y174205D01*
X472180Y174185D01*
X472123Y174164D01*
X472070Y174144D01*
X472028Y174127D01*
X471992Y174115D01*
X471967Y174102D01*
X471951Y174098D01*
X471946Y174094D01*
X471860Y174049D01*
X471782Y174004D01*
X471709Y173951D01*
X471639Y173898D01*
X471578Y173844D01*
X471516Y173787D01*
X471463Y173733D01*
X471418Y173680D01*
X471373Y173631D01*
X471336Y173586D01*
X471307Y173541D01*
X471278Y173508D01*
X471258Y173475D01*
X471245Y173455D01*
X471237Y173438D01*
X471233Y173434D01*
X471188Y173348D01*
X471151Y173262D01*
X471118Y173176D01*
X471090Y173086D01*
X471069Y172995D01*
X471049Y172909D01*
X471032Y172827D01*
X471020Y172749D01*
X471008Y172676D01*
X470999Y172610D01*
X470995Y172549D01*
X470991Y172495D01*
X470987Y172454D01*
Y172397D01*
X470991Y172311D01*
X470995Y172225D01*
X471016Y172057D01*
X471028Y171975D01*
X471044Y171901D01*
X471061Y171827D01*
X471077Y171761D01*
X471094Y171700D01*
X471106Y171642D01*
X471122Y171593D01*
X471135Y171552D01*
X471147Y171519D01*
X471155Y171495D01*
X471163Y171478D01*
Y171474D01*
X471196Y171392D01*
X471233Y171315D01*
X471266Y171241D01*
X471303Y171175D01*
X471336Y171109D01*
X471368Y171052D01*
X471401Y171003D01*
X471434Y170954D01*
X471463Y170913D01*
X471487Y170876D01*
X471512Y170847D01*
X471532Y170823D01*
X471549Y170802D01*
X471561Y170790D01*
X471565Y170782D01*
X471569Y170777D01*
X473082D01*
Y172422D01*
X472443D01*
Y171548D01*
X471959D01*
X471910Y171618D01*
X471869Y171688D01*
X471832Y171757D01*
X471799Y171823D01*
X471770Y171880D01*
X471750Y171925D01*
X471741Y171942D01*
X471737Y171954D01*
X471733Y171962D01*
Y171966D01*
X471700Y172057D01*
X471680Y172143D01*
X471664Y172221D01*
X471651Y172294D01*
X471643Y172356D01*
Y172385D01*
X471639Y172405D01*
Y172446D01*
X471643Y172536D01*
X471655Y172618D01*
X471672Y172696D01*
X471692Y172774D01*
X471717Y172844D01*
X471746Y172905D01*
X471774Y172967D01*
X471807Y173020D01*
X471840Y173065D01*
X471869Y173110D01*
X471897Y173143D01*
X471922Y173176D01*
X471942Y173196D01*
X471963Y173217D01*
X471971Y173225D01*
X471975Y173229D01*
X472041Y173283D01*
X472115Y173328D01*
X472192Y173369D01*
X472274Y173401D01*
X472361Y173430D01*
X472443Y173455D01*
X472529Y173475D01*
X472607Y173492D01*
X472684Y173504D01*
X472758Y173512D01*
X472820Y173520D01*
X472877Y173524D01*
X472922D01*
X472959Y173529D01*
X472980D01*
X472988D01*
X473103Y173524D01*
X473209Y173516D01*
X473308Y173500D01*
X473398Y173483D01*
X473484Y173459D01*
X473562Y173434D01*
X473632Y173410D01*
X473693Y173381D01*
X473750Y173352D01*
X473796Y173328D01*
X473837Y173303D01*
X473869Y173278D01*
X473898Y173262D01*
X473914Y173246D01*
X473927Y173237D01*
X473931Y173233D01*
X473988Y173176D01*
X474038Y173114D01*
X474079Y173049D01*
X474115Y172983D01*
X474148Y172918D01*
X474173Y172852D01*
X474193Y172786D01*
X474210Y172725D01*
X474222Y172668D01*
X474234Y172610D01*
X474242Y172561D01*
X474247Y172520D01*
X474251Y172487D01*
Y172438D01*
X474242Y172319D01*
X474226Y172212D01*
X474197Y172118D01*
X474169Y172040D01*
X474152Y172007D01*
X474140Y171975D01*
X474124Y171950D01*
X474111Y171930D01*
X474103Y171909D01*
X474095Y171897D01*
X474087Y171893D01*
Y171888D01*
X474021Y171811D01*
X473951Y171749D01*
X473878Y171696D01*
X473808Y171655D01*
X473746Y171622D01*
X473718Y171610D01*
X473693Y171601D01*
X473677Y171593D01*
X473660Y171589D01*
X473652Y171585D01*
X473648D01*
X473792Y170827D01*
X473886Y170851D01*
X473976Y170880D01*
X474062Y170917D01*
X474140Y170954D01*
X474210Y170995D01*
X474279Y171040D01*
X474341Y171081D01*
X474394Y171126D01*
X474443Y171167D01*
X474488Y171208D01*
X474521Y171245D01*
X474554Y171274D01*
X474579Y171302D01*
X474595Y171323D01*
X474603Y171335D01*
X474607Y171339D01*
X474661Y171417D01*
X474706Y171499D01*
X474743Y171585D01*
X474780Y171675D01*
X474808Y171770D01*
X474829Y171860D01*
X474849Y171950D01*
X474866Y172036D01*
X474878Y172118D01*
X474886Y172192D01*
X474894Y172262D01*
X474898Y172323D01*
X474903Y172368D01*
Y170777D01*
D01*
Y174316D01*
D02*
G37*
G36*
X474841Y170064D02*
X471057D01*
Y169359D01*
X473541D01*
X471057Y167825D01*
Y167063D01*
X474841D01*
Y170064D01*
D02*
G37*
G36*
Y166255D02*
X471057D01*
Y163086D01*
Y164742D01*
X471061Y164668D01*
X471065Y164599D01*
X471069Y164537D01*
X471073Y164476D01*
X471081Y164418D01*
X471090Y164369D01*
X471098Y164324D01*
X471102Y164283D01*
X471110Y164246D01*
X471118Y164213D01*
X471122Y164189D01*
X471127Y164168D01*
X471131Y164156D01*
X471135Y164148D01*
Y164144D01*
X471180Y164025D01*
X471229Y163918D01*
X471278Y163828D01*
X471327Y163750D01*
X471348Y163717D01*
X471368Y163689D01*
X471389Y163668D01*
X471405Y163647D01*
X471418Y163631D01*
X471430Y163619D01*
X471434Y163615D01*
X471438Y163611D01*
X471541Y163516D01*
X471651Y163434D01*
X471762Y163365D01*
X471869Y163307D01*
X471918Y163283D01*
X471963Y163262D01*
X472004Y163246D01*
X472037Y163229D01*
X472065Y163221D01*
X472090Y163213D01*
X472102Y163205D01*
X472106D01*
X472238Y163164D01*
X472373Y163135D01*
X472508Y163115D01*
X472635Y163102D01*
X472693Y163094D01*
X472746Y163090D01*
X472791D01*
X472832Y163086D01*
X473008D01*
X473103Y163090D01*
X473189Y163098D01*
X473275Y163106D01*
X473353Y163115D01*
X473427Y163127D01*
X473496Y163139D01*
X473558Y163147D01*
X473611Y163160D01*
X473660Y163172D01*
X473705Y163184D01*
X473738Y163192D01*
X473767Y163201D01*
X473787Y163209D01*
X473800Y163213D01*
X473804D01*
X473935Y163262D01*
X474054Y163320D01*
X474160Y163381D01*
X474206Y163410D01*
X474247Y163438D01*
X474288Y163467D01*
X474320Y163492D01*
X474349Y163516D01*
X474374Y163533D01*
X474394Y163549D01*
X474406Y163561D01*
X474415Y163570D01*
X474419Y163574D01*
X474505Y163668D01*
X474579Y163762D01*
X474640Y163857D01*
X474685Y163947D01*
X474722Y164025D01*
X474739Y164058D01*
X474747Y164086D01*
X474755Y164111D01*
X474763Y164127D01*
X474767Y164139D01*
Y164144D01*
X474780Y164193D01*
X474792Y164246D01*
X474808Y164361D01*
X474825Y164480D01*
X474833Y164595D01*
X474837Y164648D01*
Y164742D01*
X474841Y164783D01*
Y166255D01*
D02*
G37*
%LPD*%
G36*
X474903Y172536D02*
X474894Y172631D01*
X474886Y172721D01*
X474874Y172807D01*
X474858Y172889D01*
X474841Y172963D01*
X474825Y173032D01*
X474808Y173094D01*
X474792Y173151D01*
X474776Y173201D01*
X474759Y173241D01*
X474743Y173278D01*
X474730Y173307D01*
X474722Y173328D01*
X474718Y173340D01*
X474714Y173344D01*
X474665Y173430D01*
X474612Y173512D01*
X474558Y173590D01*
X474501Y173660D01*
X474439Y173725D01*
X474382Y173783D01*
X474325Y173840D01*
X474267Y173885D01*
X474214Y173930D01*
X474165Y173967D01*
X474120Y173996D01*
X474083Y174025D01*
X474050Y174045D01*
X474025Y174057D01*
X474009Y174066D01*
X474005Y174070D01*
X473919Y174115D01*
X473828Y174152D01*
X473738Y174185D01*
X473648Y174213D01*
X473558Y174234D01*
X473472Y174254D01*
X473386Y174271D01*
X473308Y174283D01*
X473234Y174295D01*
X473168Y174303D01*
X473107Y174308D01*
X473054Y174312D01*
X473012Y174316D01*
X474903D01*
Y172536D01*
D02*
G37*
G36*
X474841Y167768D02*
X472299D01*
X474841Y169326D01*
Y167768D01*
D02*
G37*
G36*
X474201Y164992D02*
X474197Y164923D01*
Y164857D01*
X474193Y164800D01*
X474189Y164746D01*
X474185Y164701D01*
Y164664D01*
X474181Y164627D01*
X474177Y164599D01*
X474173Y164574D01*
X474169Y164558D01*
Y164541D01*
X474165Y164533D01*
Y164525D01*
X474144Y164447D01*
X474115Y164377D01*
X474087Y164316D01*
X474058Y164267D01*
X474029Y164226D01*
X474005Y164193D01*
X473988Y164176D01*
X473984Y164168D01*
X473931Y164119D01*
X473874Y164074D01*
X473812Y164037D01*
X473755Y164008D01*
X473701Y163984D01*
X473656Y163963D01*
X473644Y163959D01*
X473632Y163955D01*
X473623Y163951D01*
X473619D01*
X473574Y163939D01*
X473525Y163926D01*
X473414Y163906D01*
X473304Y163893D01*
X473197Y163881D01*
X473144D01*
X473099Y163877D01*
X473058D01*
X473021Y163873D01*
X472988D01*
X472967D01*
X472951D01*
X472947D01*
X472869D01*
X472791Y163877D01*
X472721Y163881D01*
X472652Y163885D01*
X472590Y163889D01*
X472537Y163898D01*
X472484Y163906D01*
X472434Y163910D01*
X472393Y163918D01*
X472357Y163926D01*
X472328Y163935D01*
X472299Y163939D01*
X472279Y163943D01*
X472266Y163947D01*
X472258Y163951D01*
X472254D01*
X472164Y163984D01*
X472090Y164016D01*
X472028Y164049D01*
X471975Y164082D01*
X471938Y164107D01*
X471910Y164131D01*
X471893Y164148D01*
X471889Y164152D01*
X471852Y164201D01*
X471819Y164250D01*
X471791Y164304D01*
X471766Y164353D01*
X471750Y164394D01*
X471737Y164427D01*
X471733Y164451D01*
X471729Y164455D01*
Y164459D01*
X471725Y164488D01*
X471717Y164521D01*
X471709Y164591D01*
X471705Y164668D01*
X471700Y164746D01*
X471696Y164812D01*
Y165492D01*
X474201D01*
Y164992D01*
D02*
G37*
%LPC*%
G36*
X588403Y173816D02*
D01*
Y172036D01*
X588394Y172131D01*
X588386Y172221D01*
X588374Y172307D01*
X588357Y172389D01*
X588341Y172463D01*
X588325Y172532D01*
X588308Y172594D01*
X588292Y172651D01*
X588275Y172701D01*
X588259Y172741D01*
X588243Y172778D01*
X588230Y172807D01*
X588222Y172828D01*
X588218Y172840D01*
X588214Y172844D01*
X588165Y172930D01*
X588111Y173012D01*
X588058Y173090D01*
X588001Y173160D01*
X587939Y173225D01*
X587882Y173283D01*
X587824Y173340D01*
X587767Y173385D01*
X587714Y173430D01*
X587665Y173467D01*
X587619Y173496D01*
X587583Y173525D01*
X587550Y173545D01*
X587525Y173557D01*
X587509Y173566D01*
X587505Y173570D01*
X587419Y173615D01*
X587328Y173652D01*
X587238Y173685D01*
X587148Y173713D01*
X587058Y173734D01*
X586972Y173754D01*
X586886Y173771D01*
X586808Y173783D01*
X586734Y173795D01*
X586668Y173803D01*
X586607Y173808D01*
X586553Y173812D01*
X586513Y173816D01*
X586455D01*
X586353Y173812D01*
X586254Y173808D01*
X586160Y173795D01*
X586066Y173783D01*
X585980Y173762D01*
X585897Y173746D01*
X585820Y173725D01*
X585746Y173705D01*
X585680Y173685D01*
X585623Y173664D01*
X585569Y173644D01*
X585529Y173627D01*
X585492Y173615D01*
X585467Y173602D01*
X585451Y173598D01*
X585447Y173594D01*
X585360Y173549D01*
X585283Y173504D01*
X585209Y173451D01*
X585139Y173398D01*
X585077Y173344D01*
X585016Y173287D01*
X584963Y173233D01*
X584918Y173180D01*
X584872Y173131D01*
X584836Y173086D01*
X584807Y173041D01*
X584778Y173008D01*
X584758Y172975D01*
X584745Y172955D01*
X584737Y172938D01*
X584733Y172934D01*
X584688Y172848D01*
X584651Y172762D01*
X584618Y172676D01*
X584590Y172586D01*
X584569Y172495D01*
X584549Y172409D01*
X584532Y172327D01*
X584520Y172249D01*
X584508Y172176D01*
X584499Y172110D01*
X584495Y172049D01*
X584491Y171995D01*
X584487Y171954D01*
Y171897D01*
X584491Y171811D01*
X584495Y171725D01*
X584516Y171557D01*
X584528Y171475D01*
X584545Y171401D01*
X584561Y171327D01*
X584577Y171261D01*
X584594Y171200D01*
X584606Y171142D01*
X584622Y171093D01*
X584635Y171052D01*
X584647Y171019D01*
X584655Y170995D01*
X584663Y170978D01*
Y170974D01*
X584696Y170892D01*
X584733Y170815D01*
X584766Y170741D01*
X584803Y170675D01*
X584836Y170609D01*
X584868Y170552D01*
X584901Y170503D01*
X584934Y170454D01*
X584963Y170413D01*
X584987Y170376D01*
X585012Y170347D01*
X585032Y170323D01*
X585049Y170302D01*
X585061Y170290D01*
X585065Y170282D01*
X585069Y170277D01*
X584487D01*
D01*
X588403D01*
Y173816D01*
D02*
G37*
G36*
X588341Y169564D02*
X584557D01*
Y168859D01*
X587041D01*
X584557Y167325D01*
Y166563D01*
X588341D01*
Y169564D01*
D02*
G37*
G36*
Y165755D02*
X584557D01*
Y162586D01*
X588341D01*
D01*
X586508D01*
X586603Y162590D01*
X586689Y162598D01*
X586775Y162606D01*
X586853Y162615D01*
X586927Y162627D01*
X586996Y162639D01*
X587058Y162647D01*
X587111Y162660D01*
X587160Y162672D01*
X587205Y162684D01*
X587238Y162692D01*
X587267Y162701D01*
X587287Y162709D01*
X587300Y162713D01*
X587304D01*
X587435Y162762D01*
X587554Y162820D01*
X587661Y162881D01*
X587706Y162910D01*
X587747Y162938D01*
X587788Y162967D01*
X587820Y162992D01*
X587849Y163016D01*
X587874Y163033D01*
X587894Y163049D01*
X587907Y163061D01*
X587915Y163070D01*
X587919Y163074D01*
X588005Y163168D01*
X588079Y163262D01*
X588140Y163357D01*
X588185Y163447D01*
X588222Y163525D01*
X588239Y163558D01*
X588247Y163586D01*
X588255Y163611D01*
X588263Y163627D01*
X588267Y163639D01*
Y163644D01*
X588280Y163693D01*
X588292Y163746D01*
X588308Y163861D01*
X588325Y163980D01*
X588333Y164095D01*
X588337Y164148D01*
Y164242D01*
X588341Y164283D01*
Y165755D01*
D02*
G37*
%LPD*%
G36*
X586603Y173024D02*
X586709Y173016D01*
X586808Y173000D01*
X586898Y172983D01*
X586984Y172959D01*
X587062Y172934D01*
X587132Y172910D01*
X587193Y172881D01*
X587251Y172852D01*
X587296Y172828D01*
X587337Y172803D01*
X587369Y172778D01*
X587398Y172762D01*
X587415Y172746D01*
X587427Y172737D01*
X587431Y172733D01*
X587488Y172676D01*
X587537Y172614D01*
X587578Y172549D01*
X587615Y172483D01*
X587648Y172418D01*
X587673Y172352D01*
X587693Y172286D01*
X587710Y172225D01*
X587722Y172168D01*
X587734Y172110D01*
X587743Y172061D01*
X587747Y172020D01*
X587751Y171987D01*
Y171938D01*
X587743Y171819D01*
X587726Y171712D01*
X587697Y171618D01*
X587669Y171540D01*
X587652Y171507D01*
X587640Y171475D01*
X587624Y171450D01*
X587611Y171430D01*
X587603Y171409D01*
X587595Y171397D01*
X587587Y171393D01*
Y171388D01*
X587521Y171311D01*
X587451Y171249D01*
X587378Y171196D01*
X587308Y171155D01*
X587246Y171122D01*
X587218Y171110D01*
X587193Y171101D01*
X587177Y171093D01*
X587160Y171089D01*
X587152Y171085D01*
X587148D01*
X587291Y170327D01*
X587386Y170351D01*
X587476Y170380D01*
X587562Y170417D01*
X587640Y170454D01*
X587710Y170495D01*
X587779Y170540D01*
X587841Y170581D01*
X587894Y170626D01*
X587943Y170667D01*
X587989Y170708D01*
X588021Y170745D01*
X588054Y170773D01*
X588079Y170802D01*
X588095Y170823D01*
X588103Y170835D01*
X588107Y170839D01*
X588161Y170917D01*
X588206Y170999D01*
X588243Y171085D01*
X588280Y171175D01*
X588308Y171270D01*
X588329Y171360D01*
X588349Y171450D01*
X588366Y171536D01*
X588378Y171618D01*
X588386Y171692D01*
X588394Y171762D01*
X588399Y171823D01*
X588403Y171868D01*
Y170277D01*
X586582D01*
Y171922D01*
X585943D01*
Y171048D01*
X585459D01*
X585410Y171118D01*
X585369Y171188D01*
X585332Y171257D01*
X585299Y171323D01*
X585270Y171380D01*
X585250Y171425D01*
X585242Y171442D01*
X585237Y171454D01*
X585233Y171462D01*
Y171466D01*
X585201Y171557D01*
X585180Y171643D01*
X585164Y171721D01*
X585151Y171794D01*
X585143Y171856D01*
Y171885D01*
X585139Y171905D01*
Y171946D01*
X585143Y172036D01*
X585155Y172118D01*
X585172Y172196D01*
X585192Y172274D01*
X585217Y172344D01*
X585246Y172405D01*
X585274Y172467D01*
X585307Y172520D01*
X585340Y172565D01*
X585369Y172610D01*
X585397Y172643D01*
X585422Y172676D01*
X585442Y172696D01*
X585463Y172717D01*
X585471Y172725D01*
X585475Y172729D01*
X585541Y172783D01*
X585615Y172828D01*
X585693Y172869D01*
X585775Y172901D01*
X585861Y172930D01*
X585943Y172955D01*
X586029Y172975D01*
X586107Y172992D01*
X586185Y173004D01*
X586258Y173012D01*
X586320Y173020D01*
X586377Y173024D01*
X586422D01*
X586459Y173029D01*
X586480D01*
X586488D01*
X586603Y173024D01*
D02*
G37*
G36*
X588341Y167268D02*
X585799D01*
X588341Y168826D01*
Y167268D01*
D02*
G37*
G36*
X587702Y164492D02*
X587697Y164423D01*
Y164357D01*
X587693Y164300D01*
X587689Y164246D01*
X587685Y164201D01*
Y164164D01*
X587681Y164127D01*
X587677Y164099D01*
X587673Y164074D01*
X587669Y164058D01*
Y164041D01*
X587665Y164033D01*
Y164025D01*
X587644Y163947D01*
X587615Y163877D01*
X587587Y163816D01*
X587558Y163767D01*
X587529Y163726D01*
X587505Y163693D01*
X587488Y163676D01*
X587484Y163668D01*
X587431Y163619D01*
X587373Y163574D01*
X587312Y163537D01*
X587255Y163508D01*
X587201Y163484D01*
X587156Y163463D01*
X587144Y163459D01*
X587132Y163455D01*
X587123Y163451D01*
X587119D01*
X587074Y163439D01*
X587025Y163426D01*
X586914Y163406D01*
X586804Y163393D01*
X586697Y163381D01*
X586644D01*
X586599Y163377D01*
X586558D01*
X586521Y163373D01*
X586488D01*
X586467D01*
X586451D01*
X586447D01*
X586369D01*
X586291Y163377D01*
X586221Y163381D01*
X586152Y163385D01*
X586090Y163389D01*
X586037Y163398D01*
X585984Y163406D01*
X585934Y163410D01*
X585893Y163418D01*
X585856Y163426D01*
X585828Y163435D01*
X585799Y163439D01*
X585779Y163443D01*
X585766Y163447D01*
X585758Y163451D01*
X585754D01*
X585664Y163484D01*
X585590Y163516D01*
X585529Y163549D01*
X585475Y163582D01*
X585438Y163607D01*
X585410Y163631D01*
X585393Y163648D01*
X585389Y163652D01*
X585352Y163701D01*
X585319Y163750D01*
X585291Y163804D01*
X585266Y163853D01*
X585250Y163894D01*
X585237Y163926D01*
X585233Y163951D01*
X585229Y163955D01*
Y163959D01*
X585225Y163988D01*
X585217Y164021D01*
X585209Y164091D01*
X585205Y164168D01*
X585201Y164246D01*
X585196Y164312D01*
Y164992D01*
X587702D01*
Y164492D01*
D02*
G37*
G36*
X584561Y164168D02*
X584565Y164099D01*
X584569Y164037D01*
X584573Y163976D01*
X584581Y163918D01*
X584590Y163869D01*
X584598Y163824D01*
X584602Y163783D01*
X584610Y163746D01*
X584618Y163713D01*
X584622Y163689D01*
X584626Y163668D01*
X584631Y163656D01*
X584635Y163648D01*
Y163644D01*
X584680Y163525D01*
X584729Y163418D01*
X584778Y163328D01*
X584827Y163250D01*
X584848Y163217D01*
X584868Y163189D01*
X584889Y163168D01*
X584905Y163147D01*
X584918Y163131D01*
X584930Y163119D01*
X584934Y163115D01*
X584938Y163111D01*
X585041Y163016D01*
X585151Y162934D01*
X585262Y162865D01*
X585369Y162807D01*
X585418Y162783D01*
X585463Y162762D01*
X585504Y162746D01*
X585537Y162729D01*
X585565Y162721D01*
X585590Y162713D01*
X585602Y162705D01*
X585606D01*
X585738Y162664D01*
X585873Y162635D01*
X586008Y162615D01*
X586135Y162602D01*
X586193Y162594D01*
X586246Y162590D01*
X586291D01*
X586332Y162586D01*
X584557D01*
Y164242D01*
X584561Y164168D01*
D02*
G37*
D44*
X549807Y156000D02*
G03*
X549807Y156000I-787J0D01*
G01*
X436307Y156500D02*
G03*
X436307Y156500I-787J0D01*
G01*
D45*
X569394Y226000D02*
G03*
X569394Y226000I-394J0D01*
G01*
X566638Y178118D02*
G03*
X566638Y178118I-394J0D01*
G01*
X560524Y338500D02*
G03*
X560524Y338500I-394J0D01*
G01*
X573394Y210000D02*
G03*
X573394Y210000I-394J0D01*
G01*
X467650Y339000D02*
G03*
X467650Y339000I-394J0D01*
G01*
X514650Y338500D02*
G03*
X514650Y338500I-394J0D01*
G01*
X551579Y151079D02*
Y160921D01*
Y151079D02*
X591539D01*
Y160921D01*
X551579D02*
X591539D01*
X438079Y151579D02*
Y161421D01*
Y151579D02*
X478039D01*
Y161421D01*
X438079D02*
X478039D01*
X560374Y242480D02*
X565886D01*
Y236968D02*
Y242480D01*
X539114D02*
X544626D01*
X539114D02*
X539114Y242480D01*
Y227520D02*
Y242480D01*
X565886Y227520D02*
Y236968D01*
X526205Y272295D02*
Y296705D01*
X501795Y272295D02*
Y296705D01*
Y272295D02*
X526205D01*
X501795Y296705D02*
X526205D01*
X443524Y232449D02*
Y255874D01*
X425610Y232449D02*
X430532D01*
X425610Y247016D02*
Y255874D01*
X430532D01*
X435453D02*
X443524D01*
X425610Y232449D02*
Y241110D01*
X435453Y232449D02*
X443524D01*
Y195949D02*
Y219374D01*
X425610Y195949D02*
X430532D01*
X425610Y210516D02*
Y219374D01*
X430532D01*
X435453D02*
X443524D01*
X425610Y195949D02*
Y204610D01*
X435453Y195949D02*
X443524D01*
Y268949D02*
Y292374D01*
X425610Y268949D02*
X430532D01*
X425610Y283516D02*
Y292374D01*
X430532D01*
X435453D02*
X443524D01*
X425610Y268949D02*
Y277610D01*
X435453Y268949D02*
X443524D01*
Y305449D02*
Y328874D01*
X425610Y305449D02*
X430532D01*
X425610Y320016D02*
Y328874D01*
X430532D01*
X435453D02*
X443524D01*
X425610Y305449D02*
Y314110D01*
X435453Y305449D02*
X443524D01*
X416024Y195823D02*
Y219248D01*
X398110Y195823D02*
X403031D01*
X398110Y210390D02*
Y219248D01*
X403031D01*
X407953D02*
X416024D01*
X398110Y195823D02*
Y204484D01*
X407953Y195823D02*
X416024D01*
Y232323D02*
Y255748D01*
X398110Y232323D02*
X403031D01*
X398110Y246890D02*
Y255748D01*
X403031D01*
X407953D02*
X416024D01*
X398110Y232323D02*
Y240984D01*
X407953Y232323D02*
X416024D01*
Y305323D02*
Y328748D01*
X398110Y305323D02*
X403031D01*
X398110Y319890D02*
Y328748D01*
X403031D01*
X407953D02*
X416024D01*
X398110Y305323D02*
Y313984D01*
X407953Y305323D02*
X416024D01*
Y268823D02*
Y292248D01*
X398110Y268823D02*
X403031D01*
X398110Y283390D02*
Y292248D01*
X403031D01*
X407953D02*
X416024D01*
X398110Y268823D02*
Y277484D01*
X407953Y268823D02*
X416024D01*
X542075Y347976D02*
Y356047D01*
X542075Y365890D02*
X550736D01*
X573374Y347976D02*
Y356047D01*
Y360968D02*
Y365890D01*
X564516D02*
X573374D01*
X542075Y360968D02*
Y365890D01*
X542075Y347976D02*
X573374D01*
X496075D02*
Y356047D01*
X496075Y365890D02*
X504736D01*
X527374Y347976D02*
Y356047D01*
Y360968D02*
Y365890D01*
X518516D02*
X527374D01*
X496075Y360968D02*
Y365890D01*
X496075Y347976D02*
X527374D01*
X448949D02*
Y356047D01*
X448949Y365890D02*
X457610D01*
X480248Y347976D02*
Y356047D01*
Y360968D02*
Y365890D01*
X471390D02*
X480248D01*
X448949Y360968D02*
Y365890D01*
X448949Y347976D02*
X480248D01*
X610976Y325760D02*
X619047D01*
X628890Y317098D02*
Y325760D01*
X610976Y302335D02*
X619047D01*
X623969D02*
X628890D01*
Y311193D01*
X623969Y325760D02*
X628890D01*
X610976Y302335D02*
Y325760D01*
Y289051D02*
X619047D01*
X628890Y280390D02*
Y289051D01*
X610976Y265626D02*
X619047D01*
X623969D02*
X628890D01*
Y274484D01*
X623969Y289051D02*
X628890D01*
X610976Y265626D02*
Y289051D01*
X584476Y326343D02*
X592547D01*
X602390Y317681D02*
Y326343D01*
X584476Y302917D02*
X592547D01*
X597469D02*
X602390D01*
Y311776D01*
X597469Y326343D02*
X602390D01*
X584476Y302917D02*
Y326343D01*
Y289551D02*
X592547D01*
X602390Y280890D02*
Y289551D01*
X584476Y266126D02*
X592547D01*
X597469D02*
X602390D01*
Y274984D01*
X597469Y289551D02*
X602390D01*
X584476Y266126D02*
Y289551D01*
Y252760D02*
X592547D01*
X602390Y244098D02*
Y252760D01*
X584476Y229335D02*
X592547D01*
X597469D02*
X602390D01*
Y238193D01*
X597469Y252760D02*
X602390D01*
X584476Y229335D02*
Y252760D01*
X544900Y184835D02*
Y189165D01*
X538100Y184835D02*
Y189165D01*
X610976Y252343D02*
X619047D01*
X628890Y243681D02*
Y252343D01*
X610976Y228917D02*
X619047D01*
X623969D02*
X628890D01*
Y237776D01*
X623969Y252343D02*
X628890D01*
X610976Y228917D02*
Y252343D01*
X584476Y215968D02*
X592547D01*
X602390Y207307D02*
Y215968D01*
X584476Y192543D02*
X592547D01*
X597469D02*
X602390D01*
Y201402D01*
X597469Y215968D02*
X602390D01*
X584476Y192543D02*
Y215968D01*
X610976Y215634D02*
X619047D01*
X628890Y206973D02*
Y215634D01*
X610976Y192209D02*
X619047D01*
X623969D02*
X628890D01*
Y201067D01*
X623969Y215634D02*
X628890D01*
X610976Y192209D02*
Y215634D01*
X541064Y276426D02*
Y279574D01*
X542639D01*
X543163Y279049D01*
Y278000D01*
X542639Y277475D01*
X541064D01*
X542114D02*
X543163Y276426D01*
X544213D02*
X545262D01*
X544738D01*
Y279574D01*
X544213Y279049D01*
X546837D02*
X547361Y279574D01*
X548411D01*
X548936Y279049D01*
Y278525D01*
X548411Y278000D01*
X548936Y277475D01*
Y276951D01*
X548411Y276426D01*
X547361D01*
X546837Y276951D01*
Y277475D01*
X547361Y278000D01*
X546837Y278525D01*
Y279049D01*
X547361Y278000D02*
X548411D01*
X517074Y245064D02*
X513926D01*
Y246639D01*
X514451Y247163D01*
X515500D01*
X516025Y246639D01*
Y245064D01*
Y246114D02*
X517074Y247163D01*
Y248213D02*
Y249262D01*
Y248738D01*
X513926D01*
X514451Y248213D01*
X513926Y250837D02*
Y252936D01*
X514451D01*
X516549Y250837D01*
X517074D01*
X490975Y322049D02*
X490450Y322574D01*
X489401D01*
X488876Y322049D01*
Y319951D01*
X489401Y319426D01*
X490450D01*
X490975Y319951D01*
X492025Y322049D02*
X492550Y322574D01*
X493599D01*
X494124Y322049D01*
Y321525D01*
X493599Y321000D01*
X494124Y320475D01*
Y319951D01*
X493599Y319426D01*
X492550D01*
X492025Y319951D01*
Y320475D01*
X492550Y321000D01*
X492025Y321525D01*
Y322049D01*
X492550Y321000D02*
X493599D01*
X483951Y266975D02*
X483426Y266451D01*
Y265401D01*
X483951Y264876D01*
X486050D01*
X486574Y265401D01*
Y266451D01*
X486050Y266975D01*
X483426Y268025D02*
Y270124D01*
X483951D01*
X486050Y268025D01*
X486574D01*
X544975Y298049D02*
X544451Y298574D01*
X543401D01*
X542876Y298049D01*
Y295951D01*
X543401Y295426D01*
X544451D01*
X544975Y295951D01*
X548124Y298574D02*
X547074Y298049D01*
X546025Y297000D01*
Y295951D01*
X546550Y295426D01*
X547599D01*
X548124Y295951D01*
Y296475D01*
X547599Y297000D01*
X546025D01*
X545975Y271550D02*
X545450Y272074D01*
X544401D01*
X543876Y271550D01*
Y269450D01*
X544401Y268926D01*
X545450D01*
X545975Y269450D01*
X549124Y272074D02*
X547025D01*
Y270500D01*
X548074Y271025D01*
X548599D01*
X549124Y270500D01*
Y269450D01*
X548599Y268926D01*
X547549D01*
X547025Y269450D01*
X432574Y152302D02*
X429426D01*
Y153876D01*
X429951Y154401D01*
X431000D01*
X431525Y153876D01*
Y152302D01*
X432574Y157550D02*
Y155450D01*
X430475Y157550D01*
X429951D01*
X429426Y157025D01*
Y155975D01*
X429951Y155450D01*
X432574Y160698D02*
Y158599D01*
X430475Y160698D01*
X429951D01*
X429426Y160173D01*
Y159124D01*
X429951Y158599D01*
X545574Y152327D02*
X542426D01*
Y153901D01*
X542950Y154426D01*
X544000D01*
X544525Y153901D01*
Y152327D01*
X545574Y157574D02*
Y155475D01*
X543475Y157574D01*
X542950D01*
X542426Y157050D01*
Y156000D01*
X542950Y155475D01*
X545574Y158624D02*
Y159673D01*
Y159149D01*
X542426D01*
X542950Y158624D01*
X503426Y330376D02*
X506574D01*
Y331950D01*
X506049Y332475D01*
X503951D01*
X503426Y331950D01*
Y330376D01*
Y335624D02*
X503951Y334574D01*
X505000Y333525D01*
X506049D01*
X506574Y334050D01*
Y335099D01*
X506049Y335624D01*
X505525D01*
X505000Y335099D01*
Y333525D01*
X456426Y331376D02*
X459574D01*
Y332950D01*
X459050Y333475D01*
X456951D01*
X456426Y332950D01*
Y331376D01*
Y334525D02*
Y336624D01*
X456951D01*
X459050Y334525D01*
X459574D01*
X548300Y330376D02*
X551448D01*
Y331950D01*
X550923Y332475D01*
X548825D01*
X548300Y331950D01*
Y330376D01*
Y335624D02*
Y333525D01*
X549874D01*
X549349Y334574D01*
Y335099D01*
X549874Y335624D01*
X550923D01*
X551448Y335099D01*
Y334050D01*
X550923Y333525D01*
X536876Y249074D02*
Y246450D01*
X537401Y245926D01*
X538450D01*
X538975Y246450D01*
Y249074D01*
X542124Y245926D02*
X540025D01*
X542124Y248025D01*
Y248550D01*
X541599Y249074D01*
X540550D01*
X540025Y248550D01*
X570064Y289926D02*
Y293074D01*
X571639D01*
X572163Y292549D01*
Y291500D01*
X571639Y290975D01*
X570064D01*
X571114D02*
X572163Y289926D01*
X573213D02*
X574262D01*
X573738D01*
Y293074D01*
X573213Y292549D01*
X577936Y293074D02*
X576886Y292549D01*
X575837Y291500D01*
Y290451D01*
X576361Y289926D01*
X577411D01*
X577936Y290451D01*
Y290975D01*
X577411Y291500D01*
X575837D01*
X531426Y185500D02*
Y183401D01*
X533000D01*
Y184450D01*
Y183401D01*
X534574D01*
Y186549D02*
Y187599D01*
Y187074D01*
X531426D01*
X531951Y186549D01*
X571574Y273868D02*
X568426D01*
Y272294D01*
X568951Y271769D01*
X571049D01*
X571574Y272294D01*
Y273868D01*
X568426Y269145D02*
X571574D01*
X570000Y270719D01*
Y268620D01*
X540475Y210549D02*
X539951Y211074D01*
X538901D01*
X538376Y210549D01*
Y208451D01*
X538901Y207926D01*
X539951D01*
X540475Y208451D01*
X543099Y207926D02*
Y211074D01*
X541525Y209500D01*
X543624D01*
X539975Y203550D02*
X539451Y204074D01*
X538401D01*
X537876Y203550D01*
Y201450D01*
X538401Y200926D01*
X539451D01*
X539975Y201450D01*
X541025Y203550D02*
X541549Y204074D01*
X542599D01*
X543124Y203550D01*
Y203025D01*
X542599Y202500D01*
X542074D01*
X542599D01*
X543124Y201975D01*
Y201450D01*
X542599Y200926D01*
X541549D01*
X541025Y201450D01*
X569064Y308426D02*
Y311574D01*
X570639D01*
X571163Y311050D01*
Y310000D01*
X570639Y309475D01*
X569064D01*
X570114D02*
X571163Y308426D01*
X572213D02*
X573262D01*
X572738D01*
Y311574D01*
X572213Y311050D01*
X576936Y311574D02*
X574837D01*
Y310000D01*
X575886Y310525D01*
X576411D01*
X576936Y310000D01*
Y308950D01*
X576411Y308426D01*
X575361D01*
X574837Y308950D01*
X476426Y331436D02*
X479574D01*
Y329861D01*
X479049Y329337D01*
X478000D01*
X477475Y329861D01*
Y331436D01*
Y330386D02*
X476426Y329337D01*
Y328287D02*
Y327238D01*
Y327762D01*
X479574D01*
X479049Y328287D01*
X476426Y324089D02*
X479574D01*
X478000Y325663D01*
Y323564D01*
X523926Y329436D02*
X527074D01*
Y327861D01*
X526549Y327337D01*
X525500D01*
X524975Y327861D01*
Y329436D01*
Y328386D02*
X523926Y327337D01*
Y326287D02*
Y325238D01*
Y325762D01*
X527074D01*
X526549Y326287D01*
Y323663D02*
X527074Y323138D01*
Y322089D01*
X526549Y321564D01*
X526025D01*
X525500Y322089D01*
Y322614D01*
Y322089D01*
X524975Y321564D01*
X524450D01*
X523926Y322089D01*
Y323138D01*
X524450Y323663D01*
X569426Y329936D02*
X572574D01*
Y328361D01*
X572050Y327837D01*
X571000D01*
X570475Y328361D01*
Y329936D01*
Y328886D02*
X569426Y327837D01*
Y326787D02*
Y325738D01*
Y326262D01*
X572574D01*
X572050Y326787D01*
X569426Y322064D02*
Y324163D01*
X571525Y322064D01*
X572050D01*
X572574Y322589D01*
Y323639D01*
X572050Y324163D01*
X569926Y340411D02*
X573074D01*
Y338837D01*
X572549Y338312D01*
X571500D01*
X570975Y338837D01*
Y340411D01*
Y339361D02*
X569926Y338312D01*
Y337262D02*
Y336213D01*
Y336738D01*
X573074D01*
X572549Y337262D01*
X569926Y334639D02*
Y333589D01*
Y334114D01*
X573074D01*
X572549Y334639D01*
X524426Y340936D02*
X527574D01*
Y339361D01*
X527049Y338837D01*
X526000D01*
X525475Y339361D01*
Y340936D01*
Y339886D02*
X524426Y338837D01*
Y337787D02*
Y336738D01*
Y337262D01*
X527574D01*
X527049Y337787D01*
Y335163D02*
X527574Y334639D01*
Y333589D01*
X527049Y333064D01*
X524951D01*
X524426Y333589D01*
Y334639D01*
X524951Y335163D01*
X527049D01*
X576074Y186624D02*
X572926D01*
Y185049D01*
X573451Y184525D01*
X575550D01*
X576074Y185049D01*
Y186624D01*
X575550Y183475D02*
X576074Y182950D01*
Y181901D01*
X575550Y181376D01*
X575025D01*
X574500Y181901D01*
Y182426D01*
Y181901D01*
X573975Y181376D01*
X573451D01*
X572926Y181901D01*
Y182950D01*
X573451Y183475D01*
X577574Y204124D02*
X574426D01*
Y202550D01*
X574951Y202025D01*
X577049D01*
X577574Y202550D01*
Y204124D01*
X574426Y198876D02*
Y200975D01*
X576525Y198876D01*
X577049D01*
X577574Y199401D01*
Y200450D01*
X577049Y200975D01*
X581574Y236599D02*
X578426D01*
Y235025D01*
X578951Y234500D01*
X581049D01*
X581574Y235025D01*
Y236599D01*
X578426Y233451D02*
Y232401D01*
Y232926D01*
X581574D01*
X581049Y233451D01*
X486574Y235599D02*
X486050D01*
X485000Y234549D01*
X486050Y233500D01*
X486574D01*
X485000Y234549D02*
X483426D01*
Y232451D02*
Y231401D01*
Y231926D01*
X486574D01*
X486050Y232451D01*
X529901Y269074D02*
Y266451D01*
X530426Y265926D01*
X531475D01*
X532000Y266451D01*
Y269074D01*
X533049Y265926D02*
X534099D01*
X533574D01*
Y269074D01*
X533049Y268549D01*
X510376Y207170D02*
Y210318D01*
X511950D01*
X512475Y209794D01*
Y208744D01*
X511950Y208219D01*
X510376D01*
X511426D02*
X512475Y207170D01*
X513525Y207695D02*
X514049Y207170D01*
X515099D01*
X515624Y207695D01*
Y209794D01*
X515099Y210318D01*
X514049D01*
X513525Y209794D01*
Y209269D01*
X514049Y208744D01*
X515624D01*
X502876Y190170D02*
Y193318D01*
X504451D01*
X504975Y192794D01*
Y191744D01*
X504451Y191219D01*
X502876D01*
X503926D02*
X504975Y190170D01*
X506025Y192794D02*
X506550Y193318D01*
X507599D01*
X508124Y192794D01*
Y192269D01*
X507599Y191744D01*
X508124Y191219D01*
Y190695D01*
X507599Y190170D01*
X506550D01*
X506025Y190695D01*
Y191219D01*
X506550Y191744D01*
X506025Y192269D01*
Y192794D01*
X506550Y191744D02*
X507599D01*
X510376Y190426D02*
Y193574D01*
X511950D01*
X512475Y193050D01*
Y192000D01*
X511950Y191475D01*
X510376D01*
X511426D02*
X512475Y190426D01*
X513525Y193574D02*
X515624D01*
Y193050D01*
X513525Y190951D01*
Y190426D01*
X491426Y217124D02*
X494574D01*
Y215549D01*
X494050Y215025D01*
X493000D01*
X492475Y215549D01*
Y217124D01*
Y216074D02*
X491426Y215025D01*
X494574Y211876D02*
X494050Y212926D01*
X493000Y213975D01*
X491951D01*
X491426Y213451D01*
Y212401D01*
X491951Y211876D01*
X492475D01*
X493000Y212401D01*
Y213975D01*
X517376Y190426D02*
Y193574D01*
X518951D01*
X519475Y193050D01*
Y192000D01*
X518951Y191475D01*
X517376D01*
X518426D02*
X519475Y190426D01*
X522624Y193574D02*
X520525D01*
Y192000D01*
X521574Y192525D01*
X522099D01*
X522624Y192000D01*
Y190951D01*
X522099Y190426D01*
X521049D01*
X520525Y190951D01*
X476426Y341124D02*
X479574D01*
Y339549D01*
X479049Y339025D01*
X478000D01*
X477475Y339549D01*
Y341124D01*
Y340074D02*
X476426Y339025D01*
Y336401D02*
X479574D01*
X478000Y337975D01*
Y335876D01*
X461876Y300426D02*
Y303574D01*
X463450D01*
X463975Y303049D01*
Y302000D01*
X463450Y301475D01*
X461876D01*
X462926D02*
X463975Y300426D01*
X465025Y303049D02*
X465550Y303574D01*
X466599D01*
X467124Y303049D01*
Y302525D01*
X466599Y302000D01*
X466074D01*
X466599D01*
X467124Y301475D01*
Y300951D01*
X466599Y300426D01*
X465550D01*
X465025Y300951D01*
X462376Y306426D02*
Y309574D01*
X463950D01*
X464475Y309050D01*
Y308000D01*
X463950Y307475D01*
X462376D01*
X463426D02*
X464475Y306426D01*
X467624D02*
X465525D01*
X467624Y308525D01*
Y309050D01*
X467099Y309574D01*
X466049D01*
X465525Y309050D01*
X568426Y262343D02*
X571574D01*
Y260769D01*
X571049Y260244D01*
X570000D01*
X569475Y260769D01*
Y262343D01*
Y261294D02*
X568426Y260244D01*
Y259195D02*
Y258145D01*
Y258670D01*
X571574D01*
X571049Y259195D01*
X492064Y173426D02*
Y176574D01*
X493639D01*
X494163Y176049D01*
Y175000D01*
X493639Y174475D01*
X492064D01*
X495213Y173426D02*
X496262D01*
X495738D01*
Y176574D01*
X495213Y176049D01*
X497837Y176574D02*
X499936D01*
Y176049D01*
X497837Y173951D01*
Y173426D01*
X576926Y355124D02*
X580074D01*
Y353550D01*
X579550Y353025D01*
X578500D01*
X577975Y353550D01*
Y355124D01*
X577451Y351975D02*
X576926Y351450D01*
Y350401D01*
X577451Y349876D01*
X579550D01*
X580074Y350401D01*
Y351450D01*
X579550Y351975D01*
X579025D01*
X578500Y351450D01*
Y349876D01*
X530239Y355624D02*
X533387D01*
Y354049D01*
X532863Y353525D01*
X531813D01*
X531288Y354049D01*
Y355624D01*
X530239Y350901D02*
X533387D01*
X531813Y352475D01*
Y350376D01*
X482926Y354599D02*
X486074D01*
Y353025D01*
X485549Y352500D01*
X484500D01*
X483975Y353025D01*
Y354599D01*
X482926Y351450D02*
Y350401D01*
Y350926D01*
X486074D01*
X485549Y351450D01*
X454975Y209050D02*
X454451Y209574D01*
X453401D01*
X452876Y209050D01*
Y206950D01*
X453401Y206426D01*
X454451D01*
X454975Y206950D01*
X458124Y206426D02*
X456025D01*
X458124Y208525D01*
Y209050D01*
X457599Y209574D01*
X456550D01*
X456025Y209050D01*
X455500Y240050D02*
X454975Y240574D01*
X453926D01*
X453401Y240050D01*
Y237950D01*
X453926Y237426D01*
X454975D01*
X455500Y237950D01*
X456550Y237426D02*
X457599D01*
X457074D01*
Y240574D01*
X456550Y240050D01*
D46*
X538819Y225157D02*
G03*
X538819Y225157I-492J0D01*
G01*
X531126Y270917D02*
G03*
X531126Y270917I-492J0D01*
G01*
D47*
X523449Y276232D02*
G03*
X523449Y276232I-1181J0D01*
G01*
D48*
X433250Y258433D02*
G03*
X433250Y258433I-750J0D01*
G01*
Y221933D02*
G03*
X433250Y221933I-750J0D01*
G01*
Y294933D02*
G03*
X433250Y294933I-750J0D01*
G01*
Y331433D02*
G03*
X433250Y331433I-750J0D01*
G01*
X405750Y221807D02*
G03*
X405750Y221807I-750J0D01*
G01*
Y258307D02*
G03*
X405750Y258307I-750J0D01*
G01*
Y331307D02*
G03*
X405750Y331307I-750J0D01*
G01*
Y294807D02*
G03*
X405750Y294807I-750J0D01*
G01*
X576683Y359000D02*
G03*
X576683Y359000I-750J0D01*
G01*
X530683D02*
G03*
X530683Y359000I-750J0D01*
G01*
X483557D02*
G03*
X483557Y359000I-750J0D01*
G01*
X622750Y299776D02*
G03*
X622750Y299776I-750J0D01*
G01*
Y263067D02*
G03*
X622750Y263067I-750J0D01*
G01*
X596250Y300358D02*
G03*
X596250Y300358I-750J0D01*
G01*
Y263567D02*
G03*
X596250Y263567I-750J0D01*
G01*
Y226776D02*
G03*
X596250Y226776I-750J0D01*
G01*
X622750Y226358D02*
G03*
X622750Y226358I-750J0D01*
G01*
X596250Y189984D02*
G03*
X596250Y189984I-750J0D01*
G01*
X622750Y189650D02*
G03*
X622750Y189650I-750J0D01*
G01*
D49*
X551771Y175500D02*
X590871D01*
X551771Y152300D02*
Y175500D01*
X590871Y152300D02*
Y175500D01*
X477500Y153000D02*
Y175900D01*
X438400Y153000D02*
Y175900D01*
X477500D01*
D50*
X461551Y191862D02*
X465095D01*
X476905D02*
X480449D01*
X476905Y237138D02*
X480449D01*
X461551D02*
X465095D01*
X461551Y191862D02*
Y237138D01*
X480449Y191862D02*
Y237138D01*
D51*
X566244Y181618D02*
X571756D01*
X566244Y180075D02*
Y187161D01*
X571756Y180075D02*
Y187161D01*
X566244Y180075D02*
X566933D01*
X566244Y187161D02*
X566933D01*
X571067Y180075D02*
X571756D01*
X571067Y187161D02*
X571756D01*
X554618Y335000D02*
X560130D01*
Y329457D02*
Y336543D01*
X554618Y329457D02*
Y336543D01*
X559441D02*
X560130D01*
X559441Y329457D02*
X560130D01*
X554618Y336543D02*
X555307D01*
X554618Y329457D02*
X555307D01*
X461744Y335500D02*
X467256D01*
Y329957D02*
Y337043D01*
X461744Y329957D02*
Y337043D01*
X466567D02*
X467256D01*
X466567Y329957D02*
X467256D01*
X461744Y337043D02*
X462433D01*
X461744Y329957D02*
X462433D01*
X508744Y335000D02*
X514256D01*
Y329457D02*
Y336543D01*
X508744Y329457D02*
Y336543D01*
X513567D02*
X514256D01*
X513567Y329457D02*
X514256D01*
X508744Y336543D02*
X509433D01*
X508744Y329457D02*
X509433D01*
D52*
X634936Y329500D02*
X631000D01*
Y327532D01*
X631656Y326876D01*
X632312D01*
X632968Y327532D01*
Y329500D01*
Y327532D01*
X633624Y326876D01*
X634280D01*
X634936Y327532D01*
Y329500D01*
X633624Y325564D02*
X631656D01*
X631000Y324908D01*
Y322940D01*
X633624D01*
X634280Y320973D02*
X633624D01*
Y321628D01*
Y320317D01*
Y320973D01*
X631656D01*
X631000Y320317D01*
X634280Y317693D02*
X633624D01*
Y318349D01*
Y317037D01*
Y317693D01*
X631656D01*
X631000Y317037D01*
Y314413D02*
Y313101D01*
X631656Y312445D01*
X632968D01*
X633624Y313101D01*
Y314413D01*
X632968Y315069D01*
X631656D01*
X631000Y314413D01*
Y311133D02*
X633624D01*
Y309165D01*
X632968Y308509D01*
X631000D01*
Y303262D02*
Y301950D01*
Y302606D01*
X634936D01*
X634280Y303262D01*
Y299982D02*
X634936Y299326D01*
Y298014D01*
X634280Y297358D01*
X633624D01*
X632968Y298014D01*
Y298670D01*
Y298014D01*
X632312Y297358D01*
X631656D01*
X631000Y298014D01*
Y299326D01*
X631656Y299982D01*
X634936Y292000D02*
X631000D01*
Y290032D01*
X631656Y289376D01*
X632312D01*
X632968Y290032D01*
Y292000D01*
Y290032D01*
X633624Y289376D01*
X634280D01*
X634936Y290032D01*
Y292000D01*
Y288064D02*
X631656D01*
X631000Y287408D01*
Y286096D01*
X631656Y285440D01*
X634936D01*
X634280Y283473D02*
X633624D01*
Y284128D01*
Y282817D01*
Y283473D01*
X631656D01*
X631000Y282817D01*
X634280Y280193D02*
X633624D01*
Y280849D01*
Y279537D01*
Y280193D01*
X631656D01*
X631000Y279537D01*
Y276913D02*
Y275601D01*
X631656Y274945D01*
X632968D01*
X633624Y275601D01*
Y276913D01*
X632968Y277569D01*
X631656D01*
X631000Y276913D01*
Y273633D02*
X633624D01*
Y271665D01*
X632968Y271009D01*
X631000D01*
Y265762D02*
Y264450D01*
Y265106D01*
X634936D01*
X634280Y265762D01*
X631000Y260514D02*
X634936D01*
X632968Y262482D01*
Y259858D01*
X634936Y256000D02*
X631000D01*
Y254032D01*
X631656Y253376D01*
X632312D01*
X632968Y254032D01*
Y256000D01*
Y254032D01*
X633624Y253376D01*
X634280D01*
X634936Y254032D01*
Y256000D01*
X633624Y252064D02*
X631656D01*
X631000Y251408D01*
Y249440D01*
X633624D01*
X634280Y247473D02*
X633624D01*
Y248129D01*
Y246817D01*
Y247473D01*
X631656D01*
X631000Y246817D01*
X634280Y244193D02*
X633624D01*
Y244849D01*
Y243537D01*
Y244193D01*
X631656D01*
X631000Y243537D01*
Y240913D02*
Y239601D01*
X631656Y238945D01*
X632968D01*
X633624Y239601D01*
Y240913D01*
X632968Y241569D01*
X631656D01*
X631000Y240913D01*
Y237633D02*
X633624D01*
Y235665D01*
X632968Y235009D01*
X631000D01*
Y229762D02*
Y228450D01*
Y229106D01*
X634936D01*
X634280Y229762D01*
X634936Y223858D02*
Y226482D01*
X632968D01*
X633624Y225170D01*
Y224514D01*
X632968Y223858D01*
X631656D01*
X631000Y224514D01*
Y225826D01*
X631656Y226482D01*
X635436Y219500D02*
X631500D01*
Y217532D01*
X632156Y216876D01*
X632812D01*
X633468Y217532D01*
Y219500D01*
Y217532D01*
X634124Y216876D01*
X634780D01*
X635436Y217532D01*
Y219500D01*
Y215564D02*
X632156D01*
X631500Y214908D01*
Y213596D01*
X632156Y212940D01*
X635436D01*
X634780Y210973D02*
X634124D01*
Y211629D01*
Y210317D01*
Y210973D01*
X632156D01*
X631500Y210317D01*
X634780Y207693D02*
X634124D01*
Y208349D01*
Y207037D01*
Y207693D01*
X632156D01*
X631500Y207037D01*
Y204413D02*
Y203101D01*
X632156Y202445D01*
X633468D01*
X634124Y203101D01*
Y204413D01*
X633468Y205069D01*
X632156D01*
X631500Y204413D01*
Y201133D02*
X634124D01*
Y199165D01*
X633468Y198509D01*
X631500D01*
Y193262D02*
Y191950D01*
Y192606D01*
X635436D01*
X634780Y193262D01*
X635436Y187358D02*
X634780Y188670D01*
X633468Y189982D01*
X632156D01*
X631500Y189326D01*
Y188014D01*
X632156Y187358D01*
X632812D01*
X633468Y188014D01*
Y189982D01*
X608936Y220500D02*
X605000D01*
Y218532D01*
X605656Y217876D01*
X606312D01*
X606968Y218532D01*
Y220500D01*
Y218532D01*
X607624Y217876D01*
X608280D01*
X608936Y218532D01*
Y220500D01*
X607624Y216564D02*
X605656D01*
X605000Y215908D01*
Y213940D01*
X607624D01*
X608280Y211973D02*
X607624D01*
Y212629D01*
Y211317D01*
Y211973D01*
X605656D01*
X605000Y211317D01*
X608280Y208693D02*
X607624D01*
Y209349D01*
Y208037D01*
Y208693D01*
X605656D01*
X605000Y208037D01*
Y205413D02*
Y204101D01*
X605656Y203445D01*
X606968D01*
X607624Y204101D01*
Y205413D01*
X606968Y206069D01*
X605656D01*
X605000Y205413D01*
Y202133D02*
X607624D01*
Y200165D01*
X606968Y199509D01*
X605000D01*
Y194262D02*
Y192950D01*
Y193606D01*
X608936D01*
X608280Y194262D01*
X605000Y188358D02*
Y190982D01*
X607624Y188358D01*
X608280D01*
X608936Y189014D01*
Y190326D01*
X608280Y190982D01*
X608436Y256500D02*
X604500D01*
Y254532D01*
X605156Y253876D01*
X605812D01*
X606468Y254532D01*
Y256500D01*
Y254532D01*
X607124Y253876D01*
X607780D01*
X608436Y254532D01*
Y256500D01*
X607124Y252564D02*
X605156D01*
X604500Y251908D01*
Y249940D01*
X607124D01*
X607780Y247973D02*
X607124D01*
Y248628D01*
Y247317D01*
Y247973D01*
X605156D01*
X604500Y247317D01*
X607780Y244693D02*
X607124D01*
Y245349D01*
Y244037D01*
Y244693D01*
X605156D01*
X604500Y244037D01*
Y241413D02*
Y240101D01*
X605156Y239445D01*
X606468D01*
X607124Y240101D01*
Y241413D01*
X606468Y242069D01*
X605156D01*
X604500Y241413D01*
Y238133D02*
X607124D01*
Y236165D01*
X606468Y235509D01*
X604500D01*
Y230262D02*
Y228950D01*
Y229606D01*
X608436D01*
X607780Y230262D01*
X604500Y226982D02*
Y225670D01*
Y226326D01*
X608436D01*
X607780Y226982D01*
X608436Y294500D02*
X604500D01*
Y292532D01*
X605156Y291876D01*
X605812D01*
X606468Y292532D01*
Y294500D01*
Y292532D01*
X607124Y291876D01*
X607780D01*
X608436Y292532D01*
Y294500D01*
X607124Y290564D02*
X605156D01*
X604500Y289908D01*
Y287940D01*
X607124D01*
X607780Y285973D02*
X607124D01*
Y286629D01*
Y285317D01*
Y285973D01*
X605156D01*
X604500Y285317D01*
X607780Y282693D02*
X607124D01*
Y283349D01*
Y282037D01*
Y282693D01*
X605156D01*
X604500Y282037D01*
Y279413D02*
Y278101D01*
X605156Y277445D01*
X606468D01*
X607124Y278101D01*
Y279413D01*
X606468Y280069D01*
X605156D01*
X604500Y279413D01*
Y276133D02*
X607124D01*
Y274165D01*
X606468Y273509D01*
X604500D01*
Y268262D02*
Y266950D01*
Y267606D01*
X608436D01*
X607780Y268262D01*
Y264982D02*
X608436Y264326D01*
Y263014D01*
X607780Y262358D01*
X605156D01*
X604500Y263014D01*
Y264326D01*
X605156Y264982D01*
X607780D01*
X608436Y329000D02*
X604500D01*
Y327032D01*
X605156Y326376D01*
X605812D01*
X606468Y327032D01*
Y329000D01*
Y327032D01*
X607124Y326376D01*
X607780D01*
X608436Y327032D01*
Y329000D01*
X607124Y325064D02*
X605156D01*
X604500Y324408D01*
Y322440D01*
X607124D01*
X607780Y320473D02*
X607124D01*
Y321129D01*
Y319817D01*
Y320473D01*
X605156D01*
X604500Y319817D01*
X607780Y317193D02*
X607124D01*
Y317849D01*
Y316537D01*
Y317193D01*
X605156D01*
X604500Y316537D01*
Y313913D02*
Y312601D01*
X605156Y311945D01*
X606468D01*
X607124Y312601D01*
Y313913D01*
X606468Y314569D01*
X605156D01*
X604500Y313913D01*
Y310633D02*
X607124D01*
Y308665D01*
X606468Y308009D01*
X604500D01*
X605156Y302762D02*
X604500Y302106D01*
Y300794D01*
X605156Y300138D01*
X607780D01*
X608436Y300794D01*
Y302106D01*
X607780Y302762D01*
X607124D01*
X606468Y302106D01*
Y300138D01*
X419564Y302000D02*
X423500D01*
Y303968D01*
X422844Y304624D01*
X422188D01*
X421532Y303968D01*
Y302000D01*
Y303968D01*
X420876Y304624D01*
X420220D01*
X419564Y303968D01*
Y302000D01*
X420876Y305936D02*
X422844D01*
X423500Y306592D01*
Y308560D01*
X420876D01*
X420220Y310527D02*
X420876D01*
Y309872D01*
Y311183D01*
Y310527D01*
X422844D01*
X423500Y311183D01*
X420220Y313807D02*
X420876D01*
Y313151D01*
Y314463D01*
Y313807D01*
X422844D01*
X423500Y314463D01*
Y317087D02*
Y318399D01*
X422844Y319055D01*
X421532D01*
X420876Y318399D01*
Y317087D01*
X421532Y316431D01*
X422844D01*
X423500Y317087D01*
Y320367D02*
X420876D01*
Y322335D01*
X421532Y322991D01*
X423500D01*
X419564Y330862D02*
Y328238D01*
X421532D01*
X420876Y329550D01*
Y330206D01*
X421532Y330862D01*
X422844D01*
X423500Y330206D01*
Y328894D01*
X422844Y328238D01*
X419564Y265500D02*
X423500D01*
Y267468D01*
X422844Y268124D01*
X422188D01*
X421532Y267468D01*
Y265500D01*
Y267468D01*
X420876Y268124D01*
X420220D01*
X419564Y267468D01*
Y265500D01*
X420876Y269436D02*
X422844D01*
X423500Y270092D01*
Y272060D01*
X420876D01*
X420220Y274027D02*
X420876D01*
Y273372D01*
Y274683D01*
Y274027D01*
X422844D01*
X423500Y274683D01*
X420220Y277307D02*
X420876D01*
Y276651D01*
Y277963D01*
Y277307D01*
X422844D01*
X423500Y277963D01*
Y280587D02*
Y281899D01*
X422844Y282555D01*
X421532D01*
X420876Y281899D01*
Y280587D01*
X421532Y279931D01*
X422844D01*
X423500Y280587D01*
Y283867D02*
X420876D01*
Y285835D01*
X421532Y286491D01*
X423500D01*
X419564Y294362D02*
X420220Y293050D01*
X421532Y291738D01*
X422844D01*
X423500Y292394D01*
Y293706D01*
X422844Y294362D01*
X422188D01*
X421532Y293706D01*
Y291738D01*
X419564Y229500D02*
X423500D01*
Y231468D01*
X422844Y232124D01*
X422188D01*
X421532Y231468D01*
Y229500D01*
Y231468D01*
X420876Y232124D01*
X420220D01*
X419564Y231468D01*
Y229500D01*
X420876Y233436D02*
X422844D01*
X423500Y234092D01*
Y236060D01*
X420876D01*
X420220Y238027D02*
X420876D01*
Y237371D01*
Y238683D01*
Y238027D01*
X422844D01*
X423500Y238683D01*
X420220Y241307D02*
X420876D01*
Y240651D01*
Y241963D01*
Y241307D01*
X422844D01*
X423500Y241963D01*
Y244587D02*
Y245899D01*
X422844Y246555D01*
X421532D01*
X420876Y245899D01*
Y244587D01*
X421532Y243931D01*
X422844D01*
X423500Y244587D01*
Y247867D02*
X420876D01*
Y249835D01*
X421532Y250491D01*
X423500D01*
X419564Y255738D02*
Y258362D01*
X420220D01*
X422844Y255738D01*
X423500D01*
X419564Y193500D02*
X423500D01*
Y195468D01*
X422844Y196124D01*
X422188D01*
X421532Y195468D01*
Y193500D01*
Y195468D01*
X420876Y196124D01*
X420220D01*
X419564Y195468D01*
Y193500D01*
X420876Y197436D02*
X422844D01*
X423500Y198092D01*
Y200060D01*
X420876D01*
X420220Y202027D02*
X420876D01*
Y201372D01*
Y202683D01*
Y202027D01*
X422844D01*
X423500Y202683D01*
X420220Y205307D02*
X420876D01*
Y204651D01*
Y205963D01*
Y205307D01*
X422844D01*
X423500Y205963D01*
Y208587D02*
Y209899D01*
X422844Y210555D01*
X421532D01*
X420876Y209899D01*
Y208587D01*
X421532Y207931D01*
X422844D01*
X423500Y208587D01*
Y211867D02*
X420876D01*
Y213835D01*
X421532Y214491D01*
X423500D01*
X420220Y219738D02*
X419564Y220394D01*
Y221706D01*
X420220Y222362D01*
X420876D01*
X421532Y221706D01*
X422188Y222362D01*
X422844D01*
X423500Y221706D01*
Y220394D01*
X422844Y219738D01*
X422188D01*
X421532Y220394D01*
X420876Y219738D01*
X420220D01*
X421532Y220394D02*
Y221706D01*
X391564Y193500D02*
X395500D01*
Y195468D01*
X394844Y196124D01*
X394188D01*
X393532Y195468D01*
Y193500D01*
Y195468D01*
X392876Y196124D01*
X392220D01*
X391564Y195468D01*
Y193500D01*
X392876Y197436D02*
X394844D01*
X395500Y198092D01*
Y200060D01*
X392876D01*
X392220Y202027D02*
X392876D01*
Y201372D01*
Y202683D01*
Y202027D01*
X394844D01*
X395500Y202683D01*
X392220Y205307D02*
X392876D01*
Y204651D01*
Y205963D01*
Y205307D01*
X394844D01*
X395500Y205963D01*
Y208587D02*
Y209899D01*
X394844Y210555D01*
X393532D01*
X392876Y209899D01*
Y208587D01*
X393532Y207931D01*
X394844D01*
X395500Y208587D01*
Y211867D02*
X392876D01*
Y213835D01*
X393532Y214491D01*
X395500D01*
Y221706D02*
X391564D01*
X393532Y219738D01*
Y222362D01*
X391064Y230000D02*
X395000D01*
Y231968D01*
X394344Y232624D01*
X393688D01*
X393032Y231968D01*
Y230000D01*
Y231968D01*
X392376Y232624D01*
X391720D01*
X391064Y231968D01*
Y230000D01*
X392376Y233936D02*
X394344D01*
X395000Y234592D01*
Y236560D01*
X392376D01*
X391720Y238527D02*
X392376D01*
Y237872D01*
Y239183D01*
Y238527D01*
X394344D01*
X395000Y239183D01*
X391720Y241807D02*
X392376D01*
Y241151D01*
Y242463D01*
Y241807D01*
X394344D01*
X395000Y242463D01*
Y245087D02*
Y246399D01*
X394344Y247055D01*
X393032D01*
X392376Y246399D01*
Y245087D01*
X393032Y244431D01*
X394344D01*
X395000Y245087D01*
Y248367D02*
X392376D01*
Y250335D01*
X393032Y250991D01*
X395000D01*
X391720Y256238D02*
X391064Y256894D01*
Y258206D01*
X391720Y258862D01*
X392376D01*
X393032Y258206D01*
Y257550D01*
Y258206D01*
X393688Y258862D01*
X394344D01*
X395000Y258206D01*
Y256894D01*
X394344Y256238D01*
X390564Y266500D02*
X394500D01*
Y268468D01*
X393844Y269124D01*
X393188D01*
X392532Y268468D01*
Y266500D01*
Y268468D01*
X391876Y269124D01*
X391220D01*
X390564Y268468D01*
Y266500D01*
X391876Y270436D02*
X393844D01*
X394500Y271092D01*
Y273060D01*
X391876D01*
X391220Y275027D02*
X391876D01*
Y274372D01*
Y275683D01*
Y275027D01*
X393844D01*
X394500Y275683D01*
X391220Y278307D02*
X391876D01*
Y277651D01*
Y278963D01*
Y278307D01*
X393844D01*
X394500Y278963D01*
Y281587D02*
Y282899D01*
X393844Y283555D01*
X392532D01*
X391876Y282899D01*
Y281587D01*
X392532Y280931D01*
X393844D01*
X394500Y281587D01*
Y284867D02*
X391876D01*
Y286835D01*
X392532Y287491D01*
X394500D01*
Y295362D02*
Y292738D01*
X391876Y295362D01*
X391220D01*
X390564Y294706D01*
Y293394D01*
X391220Y292738D01*
X390064Y303500D02*
X394000D01*
Y305468D01*
X393344Y306124D01*
X392688D01*
X392032Y305468D01*
Y303500D01*
Y305468D01*
X391376Y306124D01*
X390720D01*
X390064Y305468D01*
Y303500D01*
X391376Y307436D02*
X393344D01*
X394000Y308092D01*
Y310060D01*
X391376D01*
X390720Y312027D02*
X391376D01*
Y311371D01*
Y312683D01*
Y312027D01*
X393344D01*
X394000Y312683D01*
X390720Y315307D02*
X391376D01*
Y314651D01*
Y315963D01*
Y315307D01*
X393344D01*
X394000Y315963D01*
Y318587D02*
Y319899D01*
X393344Y320555D01*
X392032D01*
X391376Y319899D01*
Y318587D01*
X392032Y317931D01*
X393344D01*
X394000Y318587D01*
Y321867D02*
X391376D01*
Y323835D01*
X392032Y324491D01*
X394000D01*
Y329738D02*
Y331050D01*
Y330394D01*
X390064D01*
X390720Y329738D01*
X545500Y369312D02*
Y371936D01*
X546812Y373248D01*
X548124Y371936D01*
Y369312D01*
Y371280D01*
X545500D01*
X549436Y369312D02*
Y371936D01*
X551404D01*
X552060Y371280D01*
Y369312D01*
X554027Y371936D02*
X555339D01*
X555995Y371280D01*
Y369312D01*
X554027D01*
X553371Y369968D01*
X554027Y370624D01*
X555995D01*
X557307Y369312D02*
X558619D01*
X557963D01*
Y373248D01*
X557307D01*
X561243Y369312D02*
X562555D01*
X563211Y369968D01*
Y371280D01*
X562555Y371936D01*
X561243D01*
X560587Y371280D01*
Y369968D01*
X561243Y369312D01*
X565835Y368000D02*
X566491D01*
X567147Y368656D01*
Y371936D01*
X565179D01*
X564523Y371280D01*
Y369968D01*
X565179Y369312D01*
X567147D01*
X572394Y372592D02*
X573050Y373248D01*
X574362D01*
X575018Y372592D01*
Y371936D01*
X574362Y371280D01*
X573706D01*
X574362D01*
X575018Y370624D01*
Y369968D01*
X574362Y369312D01*
X573050D01*
X572394Y369968D01*
X496500Y369812D02*
Y372436D01*
X497812Y373748D01*
X499124Y372436D01*
Y369812D01*
Y371780D01*
X496500D01*
X500436Y369812D02*
Y372436D01*
X502404D01*
X503060Y371780D01*
Y369812D01*
X505027Y372436D02*
X506339D01*
X506995Y371780D01*
Y369812D01*
X505027D01*
X504372Y370468D01*
X505027Y371124D01*
X506995D01*
X508307Y369812D02*
X509619D01*
X508963D01*
Y373748D01*
X508307D01*
X512243Y369812D02*
X513555D01*
X514211Y370468D01*
Y371780D01*
X513555Y372436D01*
X512243D01*
X511587Y371780D01*
Y370468D01*
X512243Y369812D01*
X516835Y368500D02*
X517491D01*
X518147Y369156D01*
Y372436D01*
X516179D01*
X515523Y371780D01*
Y370468D01*
X516179Y369812D01*
X518147D01*
X526018D02*
X523394D01*
X526018Y372436D01*
Y373092D01*
X525362Y373748D01*
X524050D01*
X523394Y373092D01*
X452500Y369312D02*
Y371936D01*
X453812Y373248D01*
X455124Y371936D01*
Y369312D01*
Y371280D01*
X452500D01*
X456436Y369312D02*
Y371936D01*
X458404D01*
X459060Y371280D01*
Y369312D01*
X461027Y371936D02*
X462339D01*
X462995Y371280D01*
Y369312D01*
X461027D01*
X460371Y369968D01*
X461027Y370624D01*
X462995D01*
X464307Y369312D02*
X465619D01*
X464963D01*
Y373248D01*
X464307D01*
X468243Y369312D02*
X469555D01*
X470211Y369968D01*
Y371280D01*
X469555Y371936D01*
X468243D01*
X467587Y371280D01*
Y369968D01*
X468243Y369312D01*
X472835Y368000D02*
X473491D01*
X474147Y368656D01*
Y371936D01*
X472179D01*
X471523Y371280D01*
Y369968D01*
X472179Y369312D01*
X474147D01*
X479394D02*
X480706D01*
X480050D01*
Y373248D01*
X479394Y372592D01*
%TF.MD5,ffecca0b63e739f051fcf9e32b6ad1fa*%
M02*
