G04*
G04 #@! TF.GenerationSoftware,Altium Limited,Altium Designer,20.0.13 (296)*
G04*
G04 Layer_Color=16711935*
%FSLAX25Y25*%
%MOIN*%
G70*
G01*
G75*
%ADD66C,0.00394*%
D66*
X526205Y274264D02*
X525941Y275248D01*
X525220Y275969D01*
X524236Y276232D01*
X523252Y275969D01*
X522532Y275248D01*
X522268Y274264D01*
X522532Y273280D01*
X523252Y272559D01*
X524236Y272295D01*
X525220Y272559D01*
X525941Y273280D01*
X526205Y274264D01*
X453728Y233846D02*
X457272D01*
X453728Y227153D02*
X457272D01*
Y233846D01*
X453728Y227153D02*
Y233846D01*
X493272Y309409D02*
Y316102D01*
X489728Y309409D02*
Y316102D01*
X493272D01*
X489728Y309409D02*
X493272D01*
X453728Y202847D02*
X457272D01*
X453728Y196153D02*
X457272D01*
Y202847D01*
X453728Y196153D02*
Y202847D01*
X518228Y245654D02*
Y252346D01*
X521772Y245654D02*
Y252346D01*
X518228Y245654D02*
X521772D01*
X518228Y252346D02*
X521772D01*
X541653Y281728D02*
X548347D01*
X541653Y285272D02*
X548347D01*
Y281728D02*
Y285272D01*
X541653Y281728D02*
Y285272D01*
X576543Y228291D02*
Y239709D01*
X569457Y228291D02*
Y239709D01*
X576543D01*
X569457Y228291D02*
X576543D01*
X565886Y227520D02*
Y242480D01*
X539114Y227520D02*
Y242480D01*
X565886D01*
X539114Y227520D02*
X565886D01*
X543398Y262728D02*
X550091D01*
X543398Y266272D02*
X550091D01*
Y262728D02*
Y266272D01*
X543398Y262728D02*
Y266272D01*
X488728Y264398D02*
Y271091D01*
X492272Y264398D02*
Y271091D01*
X488728Y264398D02*
X492272D01*
X488728Y271091D02*
X492272D01*
X542654Y289728D02*
X549346D01*
X542654Y293272D02*
X549346D01*
Y289728D02*
Y293272D01*
X542654Y289728D02*
Y293272D01*
X527779Y270721D02*
Y298280D01*
X500220Y270721D02*
Y298280D01*
Y270721D02*
X527779D01*
X500220Y298280D02*
X527779D01*
X562728Y257653D02*
X566272D01*
X562728Y264347D02*
X566272D01*
X562728Y257653D02*
Y264347D01*
X566272Y257653D02*
Y264347D01*
X511228Y196898D02*
X514772D01*
X511228Y203591D02*
X514772D01*
X511228Y196898D02*
Y203591D01*
X514772Y196898D02*
Y203591D01*
X503228Y180154D02*
X506772D01*
X503228Y186846D02*
X506772D01*
X503228Y180154D02*
Y186846D01*
X506772Y180154D02*
Y186846D01*
X511228Y180409D02*
X514772D01*
X511228Y187102D02*
X514772D01*
X511228Y180409D02*
Y187102D01*
X514772Y180409D02*
Y187102D01*
X522272Y179909D02*
Y186602D01*
X518728Y179909D02*
Y186602D01*
X522272D01*
X518728Y179909D02*
X522272D01*
X566342Y180075D02*
X571658D01*
X566342Y187161D02*
X571658D01*
X566342Y180075D02*
Y187161D01*
X571658Y180075D02*
Y187161D01*
X547154Y211272D02*
X553847D01*
X547154Y207728D02*
X553847D01*
X547154D02*
Y211272D01*
X553847Y207728D02*
Y211272D01*
X547154Y204272D02*
X553847D01*
X547154Y200728D02*
X553847D01*
X547154D02*
Y204272D01*
X553847Y200728D02*
Y204272D01*
X570154Y299272D02*
X576847D01*
X570154Y295728D02*
X576847D01*
X570154D02*
Y299272D01*
X576847Y295728D02*
Y299272D01*
X570154Y306272D02*
X576847D01*
X570154Y302728D02*
X576847D01*
X570154D02*
Y306272D01*
X576847Y302728D02*
Y306272D01*
X452654Y300228D02*
X459346D01*
X452654Y303772D02*
X459346D01*
Y300228D02*
Y303772D01*
X452654Y300228D02*
Y303772D01*
Y306228D02*
X459346D01*
X452654Y309772D02*
X459346D01*
Y306228D02*
Y309772D01*
X452654Y306228D02*
Y309772D01*
X563602Y322654D02*
Y329346D01*
X567146Y322654D02*
Y329346D01*
X563602Y322654D02*
X567146D01*
X563602Y329346D02*
X567146D01*
X567146Y334154D02*
Y340846D01*
X563602Y334154D02*
Y340846D01*
X567146D01*
X563602Y334154D02*
X567146D01*
X517228Y323153D02*
Y329847D01*
X520772Y323153D02*
Y329847D01*
X517228Y323153D02*
X520772D01*
X517228Y329847D02*
X520772D01*
X520772Y334653D02*
Y341347D01*
X517228Y334653D02*
Y341347D01*
X520772D01*
X517228Y334653D02*
X520772D01*
X470228Y323898D02*
Y330591D01*
X473772Y323898D02*
Y330591D01*
X470228Y323898D02*
X473772D01*
X470228Y330591D02*
X473772D01*
X473772Y335154D02*
Y341846D01*
X470228Y335154D02*
Y341846D01*
X473772D01*
X470228Y335154D02*
X473772D01*
X554716Y336543D02*
X560032D01*
X554716Y329457D02*
X560032D01*
Y336543D01*
X554716Y329457D02*
Y336543D01*
X485228Y211154D02*
Y217846D01*
X488772Y211154D02*
Y217846D01*
X485228Y211154D02*
X488772D01*
X485228Y217846D02*
X488772D01*
X562728Y268898D02*
Y275590D01*
X566272Y268898D02*
Y275590D01*
X562728Y268898D02*
X566272D01*
X562728Y275590D02*
X566272D01*
X565457Y207709D02*
X572543D01*
X565457Y196291D02*
X572543D01*
Y207709D01*
X565457Y196291D02*
Y207709D01*
X538154Y193496D02*
X544846D01*
X538154Y180504D02*
X544846D01*
Y193496D01*
X538154Y180504D02*
Y193496D01*
X461842Y337043D02*
X467158D01*
X461842Y329957D02*
X467158D01*
Y337043D01*
X461842Y329957D02*
Y337043D01*
X508843Y336543D02*
X514157D01*
X508843Y329457D02*
X514157D01*
Y336543D01*
X508843Y329457D02*
Y336543D01*
M02*
